M48
INCH,TZ
T1C0.016
T2C0.024
T3C0.031
T4C0.043
%
G90
G05
T1
X56542Y-43595
X56549Y-41358
X60574Y-44476
T2
X66000Y-54250
X66591Y-54250
X68000Y-54250
X68591Y-54250
T3
X57715Y-33090
X57715Y-36090
X57715Y-39090
X57715Y-40090
X57715Y-41090
X57715Y-42090
X57715Y-43090
X57715Y-44090
X57715Y-45090
X57715Y-46090
X57715Y-47090
X57715Y-48090
X57715Y-49090
X57715Y-50090
X63715Y-33090
X63715Y-36090
X63715Y-39090
X63715Y-40090
X63715Y-41090
X63715Y-42090
X63715Y-43090
X63715Y-44090
X63715Y-45090
X63715Y-46090
X63715Y-47090
X63715Y-48090
X63715Y-49090
X63715Y-50090
X65750Y-43500
X65750Y-44500
X65750Y-45500
X65750Y-46500
X65750Y-48500
X65750Y-49500
X65750Y-50500
X65750Y-51500
X66750Y-40000
X67734Y-40000
X68750Y-43500
X68750Y-44500
X68750Y-45500
X68750Y-46500
X68750Y-48500
X68750Y-49500
X68750Y-50500
X68750Y-51500
T4
X48715Y-32090
X48715Y-33090
X48715Y-34090
X48715Y-35090
X48715Y-36090
X48715Y-37090
X48715Y-38090
X48715Y-39090
X48715Y-40090
X48715Y-41090
X48715Y-42090
X48715Y-43090
X48715Y-44090
X48715Y-45090
X48715Y-46090
X48715Y-47090
X48715Y-48090
X48715Y-49090
X48715Y-50090
X48715Y-51090
X48715Y-52090
X48715Y-53090
X48715Y-54090
X48715Y-55090
X49715Y-50090
X49896Y-34590
X49896Y-35590
X49896Y-36590
X49896Y-37590
X49896Y-38590
X50715Y-50090
X51715Y-38090
X51715Y-39090
X51715Y-40090
X51715Y-41090
X51715Y-47090
X51715Y-48090
X51715Y-49090
X51715Y-50090
X51715Y-51090
X51715Y-52090
X51715Y-53090
X51715Y-54090
X51715Y-55090
X52715Y-38090
X52715Y-39090
X52715Y-40090
X52715Y-41090
X52715Y-47090
X52715Y-48090
X52715Y-49090
X52715Y-50090
X52715Y-51090
X52715Y-52090
X52715Y-53090
X52715Y-54090
X52715Y-55090
X53715Y-33090
X53715Y-35090
X53715Y-36090
X53715Y-37090
X53715Y-50090
X54715Y-32090
X54715Y-33090
X54715Y-34090
X54715Y-35090
X54715Y-36090
X54715Y-37090
X54715Y-38090
X54715Y-39090
X54715Y-40090
X54715Y-41090
X54715Y-42090
X54715Y-43090
X54715Y-44090
X54715Y-45090
X54715Y-46090
X54715Y-47090
X54715Y-48090
X54715Y-49090
X54715Y-50090
X54715Y-51090
X54715Y-52090
X54715Y-53090
X54715Y-54090
X54715Y-55090
T2
X66250Y-32876G85X66250Y-33112
G05
X66250Y-34057G85X66250Y-34293
G05
X66250Y-35632G85X66250Y-35868
G05
X68022Y-36222G85X68022Y-36459
G05
X68415Y-32876G85X68415Y-33112
G05
T0
M30
