G04 #@! TF.FileFunction,Other,Fab,Top*
%FSLAX46Y46*%
G04 Gerber Fmt 4.6, Leading zero omitted, Abs format (unit mm)*
G04 Created by KiCad (PCBNEW 4.0.7) date 02/06/18 12:48:21*
%MOMM*%
%LPD*%
G01*
G04 APERTURE LIST*
%ADD10C,0.100000*%
%ADD11C,0.150000*%
G04 APERTURE END LIST*
D10*
X175470000Y-137795000D02*
G75*
G03X175470000Y-137795000I-2000000J0D01*
G01*
X171020000Y-137795000D02*
X171920000Y-137795000D01*
X171470000Y-137345000D02*
X171470000Y-138245000D01*
X170390000Y-137795000D02*
G75*
G03X170390000Y-137795000I-2000000J0D01*
G01*
X165940000Y-137795000D02*
X166840000Y-137795000D01*
X166390000Y-137345000D02*
X166390000Y-138245000D01*
X174795000Y-101600000D02*
G75*
G03X174795000Y-101600000I-4000000J0D01*
G01*
X167345000Y-101600000D02*
X168545000Y-101600000D01*
X167945000Y-100950000D02*
X167945000Y-102250000D01*
X171975000Y-92805000D02*
X167475000Y-92805000D01*
X167475000Y-92805000D02*
X167475000Y-81605000D01*
X167475000Y-81605000D02*
X167775000Y-81605000D01*
X167775000Y-81605000D02*
X167775000Y-78805000D01*
X167775000Y-78805000D02*
X173375000Y-78805000D01*
X173375000Y-78805000D02*
X173375000Y-81605000D01*
X173375000Y-81605000D02*
X174575000Y-81605000D01*
X174575000Y-81605000D02*
X174575000Y-92805000D01*
X174575000Y-92805000D02*
X173575000Y-92805000D01*
X147940000Y-95250000D02*
X161670000Y-95250000D01*
X161670000Y-95250000D02*
X161670000Y-125730000D01*
X161670000Y-125730000D02*
X146940000Y-125730000D01*
X146940000Y-125730000D02*
X146940000Y-96250000D01*
X146940000Y-96250000D02*
X147940000Y-95250000D01*
X168640000Y-121920000D02*
X173990000Y-121920000D01*
X173990000Y-121920000D02*
X173990000Y-132080000D01*
X173990000Y-132080000D02*
X167640000Y-132080000D01*
X167640000Y-132080000D02*
X167640000Y-122920000D01*
X167640000Y-122920000D02*
X168640000Y-121920000D01*
X168640000Y-109220000D02*
X173990000Y-109220000D01*
X173990000Y-109220000D02*
X173990000Y-119380000D01*
X173990000Y-119380000D02*
X167640000Y-119380000D01*
X167640000Y-119380000D02*
X167640000Y-110220000D01*
X167640000Y-110220000D02*
X168640000Y-109220000D01*
X163566000Y-92858600D02*
X163566000Y-82858600D01*
X145216000Y-82508600D02*
X163216000Y-82508600D01*
X144866000Y-93208600D02*
X144866000Y-82858600D01*
X144866000Y-93208600D02*
X163216000Y-93208600D01*
X143866000Y-94208600D02*
X163916000Y-94208600D01*
X164566000Y-82158600D02*
X164566000Y-93558600D01*
X144516000Y-81508600D02*
X163916000Y-81508600D01*
X143866000Y-94208600D02*
X143866000Y-82158600D01*
X163216000Y-93208600D02*
G75*
G03X163566000Y-92858600I0J350000D01*
G01*
X163566000Y-82858600D02*
G75*
G03X163216000Y-82508600I-350000J0D01*
G01*
X145216000Y-82508600D02*
G75*
G03X144866000Y-82858600I0J-350000D01*
G01*
X163916000Y-94208600D02*
G75*
G03X164566000Y-93558600I0J650000D01*
G01*
X164566000Y-82158600D02*
G75*
G03X163916000Y-81508600I-650000J0D01*
G01*
X144516000Y-81508600D02*
G75*
G03X143866000Y-82158600I0J-650000D01*
G01*
X142125000Y-133735000D02*
X148125000Y-133735000D01*
X142125000Y-127735000D02*
X148125000Y-127735000D01*
X142125000Y-133735000D02*
X142125000Y-127735000D01*
X148125000Y-133735000D02*
X148125000Y-127735000D01*
X150380000Y-133735000D02*
X156380000Y-133735000D01*
X150380000Y-127735000D02*
X156380000Y-127735000D01*
X150380000Y-133735000D02*
X150380000Y-127735000D01*
X156380000Y-133735000D02*
X156380000Y-127735000D01*
X158635000Y-133735000D02*
X164635000Y-133735000D01*
X158635000Y-127735000D02*
X164635000Y-127735000D01*
X158635000Y-133735000D02*
X158635000Y-127735000D01*
X164635000Y-133735000D02*
X164635000Y-127735000D01*
X143125000Y-135775000D02*
X143125000Y-141775000D01*
X149125000Y-135775000D02*
X149125000Y-141775000D01*
X143125000Y-135775000D02*
X149125000Y-135775000D01*
X143125000Y-141775000D02*
X149125000Y-141775000D01*
X157730000Y-135775000D02*
X157730000Y-141775000D01*
X163730000Y-135775000D02*
X163730000Y-141775000D01*
X157730000Y-135775000D02*
X163730000Y-135775000D01*
X157730000Y-141775000D02*
X163730000Y-141775000D01*
D11*
X172398572Y-141557381D02*
X171827143Y-141557381D01*
X172112857Y-141557381D02*
X172112857Y-140557381D01*
X172017619Y-140700238D01*
X171922381Y-140795476D01*
X171827143Y-140843095D01*
X173017619Y-140557381D02*
X173112858Y-140557381D01*
X173208096Y-140605000D01*
X173255715Y-140652619D01*
X173303334Y-140747857D01*
X173350953Y-140938333D01*
X173350953Y-141176429D01*
X173303334Y-141366905D01*
X173255715Y-141462143D01*
X173208096Y-141509762D01*
X173112858Y-141557381D01*
X173017619Y-141557381D01*
X172922381Y-141509762D01*
X172874762Y-141462143D01*
X172827143Y-141366905D01*
X172779524Y-141176429D01*
X172779524Y-140938333D01*
X172827143Y-140747857D01*
X172874762Y-140652619D01*
X172922381Y-140605000D01*
X173017619Y-140557381D01*
X174208096Y-140890714D02*
X174208096Y-141557381D01*
X173779524Y-140890714D02*
X173779524Y-141414524D01*
X173827143Y-141509762D01*
X173922381Y-141557381D01*
X174065239Y-141557381D01*
X174160477Y-141509762D01*
X174208096Y-141462143D01*
X175017620Y-141033571D02*
X174684286Y-141033571D01*
X174684286Y-141557381D02*
X174684286Y-140557381D01*
X175160477Y-140557381D01*
X173303334Y-138152143D02*
X173255715Y-138199762D01*
X173112858Y-138247381D01*
X173017620Y-138247381D01*
X172874762Y-138199762D01*
X172779524Y-138104524D01*
X172731905Y-138009286D01*
X172684286Y-137818810D01*
X172684286Y-137675952D01*
X172731905Y-137485476D01*
X172779524Y-137390238D01*
X172874762Y-137295000D01*
X173017620Y-137247381D01*
X173112858Y-137247381D01*
X173255715Y-137295000D01*
X173303334Y-137342619D01*
X174255715Y-138247381D02*
X173684286Y-138247381D01*
X173970000Y-138247381D02*
X173970000Y-137247381D01*
X173874762Y-137390238D01*
X173779524Y-137485476D01*
X173684286Y-137533095D01*
X167318572Y-141557381D02*
X166747143Y-141557381D01*
X167032857Y-141557381D02*
X167032857Y-140557381D01*
X166937619Y-140700238D01*
X166842381Y-140795476D01*
X166747143Y-140843095D01*
X167937619Y-140557381D02*
X168032858Y-140557381D01*
X168128096Y-140605000D01*
X168175715Y-140652619D01*
X168223334Y-140747857D01*
X168270953Y-140938333D01*
X168270953Y-141176429D01*
X168223334Y-141366905D01*
X168175715Y-141462143D01*
X168128096Y-141509762D01*
X168032858Y-141557381D01*
X167937619Y-141557381D01*
X167842381Y-141509762D01*
X167794762Y-141462143D01*
X167747143Y-141366905D01*
X167699524Y-141176429D01*
X167699524Y-140938333D01*
X167747143Y-140747857D01*
X167794762Y-140652619D01*
X167842381Y-140605000D01*
X167937619Y-140557381D01*
X169128096Y-140890714D02*
X169128096Y-141557381D01*
X168699524Y-140890714D02*
X168699524Y-141414524D01*
X168747143Y-141509762D01*
X168842381Y-141557381D01*
X168985239Y-141557381D01*
X169080477Y-141509762D01*
X169128096Y-141462143D01*
X169937620Y-141033571D02*
X169604286Y-141033571D01*
X169604286Y-141557381D02*
X169604286Y-140557381D01*
X170080477Y-140557381D01*
X168223334Y-138152143D02*
X168175715Y-138199762D01*
X168032858Y-138247381D01*
X167937620Y-138247381D01*
X167794762Y-138199762D01*
X167699524Y-138104524D01*
X167651905Y-138009286D01*
X167604286Y-137818810D01*
X167604286Y-137675952D01*
X167651905Y-137485476D01*
X167699524Y-137390238D01*
X167794762Y-137295000D01*
X167937620Y-137247381D01*
X168032858Y-137247381D01*
X168175715Y-137295000D01*
X168223334Y-137342619D01*
X168604286Y-137342619D02*
X168651905Y-137295000D01*
X168747143Y-137247381D01*
X168985239Y-137247381D01*
X169080477Y-137295000D01*
X169128096Y-137342619D01*
X169175715Y-137437857D01*
X169175715Y-137533095D01*
X169128096Y-137675952D01*
X168556667Y-138247381D01*
X169175715Y-138247381D01*
X168771191Y-107362381D02*
X168199762Y-107362381D01*
X168485476Y-107362381D02*
X168485476Y-106362381D01*
X168390238Y-106505238D01*
X168295000Y-106600476D01*
X168199762Y-106648095D01*
X169390238Y-106362381D02*
X169485477Y-106362381D01*
X169580715Y-106410000D01*
X169628334Y-106457619D01*
X169675953Y-106552857D01*
X169723572Y-106743333D01*
X169723572Y-106981429D01*
X169675953Y-107171905D01*
X169628334Y-107267143D01*
X169580715Y-107314762D01*
X169485477Y-107362381D01*
X169390238Y-107362381D01*
X169295000Y-107314762D01*
X169247381Y-107267143D01*
X169199762Y-107171905D01*
X169152143Y-106981429D01*
X169152143Y-106743333D01*
X169199762Y-106552857D01*
X169247381Y-106457619D01*
X169295000Y-106410000D01*
X169390238Y-106362381D01*
X170342619Y-106362381D02*
X170437858Y-106362381D01*
X170533096Y-106410000D01*
X170580715Y-106457619D01*
X170628334Y-106552857D01*
X170675953Y-106743333D01*
X170675953Y-106981429D01*
X170628334Y-107171905D01*
X170580715Y-107267143D01*
X170533096Y-107314762D01*
X170437858Y-107362381D01*
X170342619Y-107362381D01*
X170247381Y-107314762D01*
X170199762Y-107267143D01*
X170152143Y-107171905D01*
X170104524Y-106981429D01*
X170104524Y-106743333D01*
X170152143Y-106552857D01*
X170199762Y-106457619D01*
X170247381Y-106410000D01*
X170342619Y-106362381D01*
X171295000Y-106362381D02*
X171390239Y-106362381D01*
X171485477Y-106410000D01*
X171533096Y-106457619D01*
X171580715Y-106552857D01*
X171628334Y-106743333D01*
X171628334Y-106981429D01*
X171580715Y-107171905D01*
X171533096Y-107267143D01*
X171485477Y-107314762D01*
X171390239Y-107362381D01*
X171295000Y-107362381D01*
X171199762Y-107314762D01*
X171152143Y-107267143D01*
X171104524Y-107171905D01*
X171056905Y-106981429D01*
X171056905Y-106743333D01*
X171104524Y-106552857D01*
X171152143Y-106457619D01*
X171199762Y-106410000D01*
X171295000Y-106362381D01*
X172485477Y-106695714D02*
X172485477Y-107362381D01*
X172056905Y-106695714D02*
X172056905Y-107219524D01*
X172104524Y-107314762D01*
X172199762Y-107362381D01*
X172342620Y-107362381D01*
X172437858Y-107314762D01*
X172485477Y-107267143D01*
X173295001Y-106838571D02*
X172961667Y-106838571D01*
X172961667Y-107362381D02*
X172961667Y-106362381D01*
X173437858Y-106362381D01*
X170628334Y-101957143D02*
X170580715Y-102004762D01*
X170437858Y-102052381D01*
X170342620Y-102052381D01*
X170199762Y-102004762D01*
X170104524Y-101909524D01*
X170056905Y-101814286D01*
X170009286Y-101623810D01*
X170009286Y-101480952D01*
X170056905Y-101290476D01*
X170104524Y-101195238D01*
X170199762Y-101100000D01*
X170342620Y-101052381D01*
X170437858Y-101052381D01*
X170580715Y-101100000D01*
X170628334Y-101147619D01*
X170961667Y-101052381D02*
X171580715Y-101052381D01*
X171247381Y-101433333D01*
X171390239Y-101433333D01*
X171485477Y-101480952D01*
X171533096Y-101528571D01*
X171580715Y-101623810D01*
X171580715Y-101861905D01*
X171533096Y-101957143D01*
X171485477Y-102004762D01*
X171390239Y-102052381D01*
X171104524Y-102052381D01*
X171009286Y-102004762D01*
X170961667Y-101957143D01*
X165195953Y-93432381D02*
X165195953Y-94146667D01*
X165148333Y-94289524D01*
X165053095Y-94384762D01*
X164910238Y-94432381D01*
X164815000Y-94432381D01*
X165624524Y-94146667D02*
X166100715Y-94146667D01*
X165529286Y-94432381D02*
X165862619Y-93432381D01*
X166195953Y-94432381D01*
X167100715Y-94337143D02*
X167053096Y-94384762D01*
X166910239Y-94432381D01*
X166815001Y-94432381D01*
X166672143Y-94384762D01*
X166576905Y-94289524D01*
X166529286Y-94194286D01*
X166481667Y-94003810D01*
X166481667Y-93860952D01*
X166529286Y-93670476D01*
X166576905Y-93575238D01*
X166672143Y-93480000D01*
X166815001Y-93432381D01*
X166910239Y-93432381D01*
X167053096Y-93480000D01*
X167100715Y-93527619D01*
X167529286Y-94432381D02*
X167529286Y-93432381D01*
X168100715Y-94432381D02*
X167672143Y-93860952D01*
X168100715Y-93432381D02*
X167529286Y-94003810D01*
X168291191Y-94527619D02*
X169053096Y-94527619D01*
X169148334Y-93432381D02*
X169719763Y-93432381D01*
X169434048Y-94432381D02*
X169434048Y-93432381D01*
X170624525Y-94432381D02*
X170291191Y-93956190D01*
X170053096Y-94432381D02*
X170053096Y-93432381D01*
X170434049Y-93432381D01*
X170529287Y-93480000D01*
X170576906Y-93527619D01*
X170624525Y-93622857D01*
X170624525Y-93765714D01*
X170576906Y-93860952D01*
X170529287Y-93908571D01*
X170434049Y-93956190D01*
X170053096Y-93956190D01*
X171005477Y-94384762D02*
X171148334Y-94432381D01*
X171386430Y-94432381D01*
X171481668Y-94384762D01*
X171529287Y-94337143D01*
X171576906Y-94241905D01*
X171576906Y-94146667D01*
X171529287Y-94051429D01*
X171481668Y-94003810D01*
X171386430Y-93956190D01*
X171195953Y-93908571D01*
X171100715Y-93860952D01*
X171053096Y-93813333D01*
X171005477Y-93718095D01*
X171005477Y-93622857D01*
X171053096Y-93527619D01*
X171100715Y-93480000D01*
X171195953Y-93432381D01*
X171434049Y-93432381D01*
X171576906Y-93480000D01*
X171767382Y-94527619D02*
X172529287Y-94527619D01*
X173195954Y-93432381D02*
X173005477Y-93432381D01*
X172910239Y-93480000D01*
X172862620Y-93527619D01*
X172767382Y-93670476D01*
X172719763Y-93860952D01*
X172719763Y-94241905D01*
X172767382Y-94337143D01*
X172815001Y-94384762D01*
X172910239Y-94432381D01*
X173100716Y-94432381D01*
X173195954Y-94384762D01*
X173243573Y-94337143D01*
X173291192Y-94241905D01*
X173291192Y-94003810D01*
X173243573Y-93908571D01*
X173195954Y-93860952D01*
X173100716Y-93813333D01*
X172910239Y-93813333D01*
X172815001Y-93860952D01*
X172767382Y-93908571D01*
X172719763Y-94003810D01*
X173719763Y-94432381D02*
X173719763Y-93432381D01*
X174100716Y-93432381D01*
X174195954Y-93480000D01*
X174243573Y-93527619D01*
X174291192Y-93622857D01*
X174291192Y-93765714D01*
X174243573Y-93860952D01*
X174195954Y-93908571D01*
X174100716Y-93956190D01*
X173719763Y-93956190D01*
X174719763Y-94432381D02*
X174719763Y-93432381D01*
X175195953Y-94432381D02*
X175195953Y-93432381D01*
X175767382Y-94432381D01*
X175767382Y-93432381D01*
X176195953Y-94384762D02*
X176338810Y-94432381D01*
X176576906Y-94432381D01*
X176672144Y-94384762D01*
X176719763Y-94337143D01*
X176767382Y-94241905D01*
X176767382Y-94146667D01*
X176719763Y-94051429D01*
X176672144Y-94003810D01*
X176576906Y-93956190D01*
X176386429Y-93908571D01*
X176291191Y-93860952D01*
X176243572Y-93813333D01*
X176195953Y-93718095D01*
X176195953Y-93622857D01*
X176243572Y-93527619D01*
X176291191Y-93480000D01*
X176386429Y-93432381D01*
X176624525Y-93432381D01*
X176767382Y-93480000D01*
X165401667Y-79462381D02*
X165401667Y-80176667D01*
X165354047Y-80319524D01*
X165258809Y-80414762D01*
X165115952Y-80462381D01*
X165020714Y-80462381D01*
X166401667Y-80462381D02*
X165830238Y-80462381D01*
X166115952Y-80462381D02*
X166115952Y-79462381D01*
X166020714Y-79605238D01*
X165925476Y-79700476D01*
X165830238Y-79748095D01*
X141057281Y-108981829D02*
X141057281Y-108410400D01*
X142057281Y-108696115D02*
X141057281Y-108696115D01*
X142009662Y-107696114D02*
X142057281Y-107791352D01*
X142057281Y-107981829D01*
X142009662Y-108077067D01*
X141914424Y-108124686D01*
X141533471Y-108124686D01*
X141438233Y-108077067D01*
X141390614Y-107981829D01*
X141390614Y-107791352D01*
X141438233Y-107696114D01*
X141533471Y-107648495D01*
X141628710Y-107648495D01*
X141723948Y-108124686D01*
X142009662Y-106838971D02*
X142057281Y-106934209D01*
X142057281Y-107124686D01*
X142009662Y-107219924D01*
X141914424Y-107267543D01*
X141533471Y-107267543D01*
X141438233Y-107219924D01*
X141390614Y-107124686D01*
X141390614Y-106934209D01*
X141438233Y-106838971D01*
X141533471Y-106791352D01*
X141628710Y-106791352D01*
X141723948Y-107267543D01*
X141390614Y-106362781D02*
X142057281Y-106362781D01*
X141485852Y-106362781D02*
X141438233Y-106315162D01*
X141390614Y-106219924D01*
X141390614Y-106077066D01*
X141438233Y-105981828D01*
X141533471Y-105934209D01*
X142057281Y-105934209D01*
X142009662Y-105505638D02*
X142057281Y-105410400D01*
X142057281Y-105219924D01*
X142009662Y-105124685D01*
X141914424Y-105077066D01*
X141866805Y-105077066D01*
X141771567Y-105124685D01*
X141723948Y-105219924D01*
X141723948Y-105362781D01*
X141676329Y-105458019D01*
X141581090Y-105505638D01*
X141533471Y-105505638D01*
X141438233Y-105458019D01*
X141390614Y-105362781D01*
X141390614Y-105219924D01*
X141438233Y-105124685D01*
X141390614Y-104743733D02*
X142057281Y-104505638D01*
X141390614Y-104267542D02*
X142057281Y-104505638D01*
X142295376Y-104600876D01*
X142342995Y-104648495D01*
X142390614Y-104743733D01*
X141057281Y-103981828D02*
X141057281Y-103362780D01*
X141438233Y-103696114D01*
X141438233Y-103553256D01*
X141485852Y-103458018D01*
X141533471Y-103410399D01*
X141628710Y-103362780D01*
X141866805Y-103362780D01*
X141962043Y-103410399D01*
X142009662Y-103458018D01*
X142057281Y-103553256D01*
X142057281Y-103838971D01*
X142009662Y-103934209D01*
X141962043Y-103981828D01*
X141962043Y-102934209D02*
X142009662Y-102886590D01*
X142057281Y-102934209D01*
X142009662Y-102981828D01*
X141962043Y-102934209D01*
X142057281Y-102934209D01*
X141057281Y-101981828D02*
X141057281Y-102458019D01*
X141533471Y-102505638D01*
X141485852Y-102458019D01*
X141438233Y-102362781D01*
X141438233Y-102124685D01*
X141485852Y-102029447D01*
X141533471Y-101981828D01*
X141628710Y-101934209D01*
X141866805Y-101934209D01*
X141962043Y-101981828D01*
X142009662Y-102029447D01*
X142057281Y-102124685D01*
X142057281Y-102362781D01*
X142009662Y-102458019D01*
X141962043Y-102505638D01*
X151828809Y-126766190D02*
X151828809Y-127242381D01*
X151495476Y-126242381D02*
X151828809Y-126766190D01*
X152162143Y-126242381D01*
X152495476Y-127242381D02*
X152495476Y-126242381D01*
X152828810Y-126956667D01*
X153162143Y-126242381D01*
X153162143Y-127242381D01*
X153543095Y-126242381D02*
X154162143Y-126242381D01*
X153828809Y-126623333D01*
X153971667Y-126623333D01*
X154066905Y-126670952D01*
X154114524Y-126718571D01*
X154162143Y-126813810D01*
X154162143Y-127051905D01*
X154114524Y-127147143D01*
X154066905Y-127194762D01*
X153971667Y-127242381D01*
X153685952Y-127242381D01*
X153590714Y-127194762D01*
X153543095Y-127147143D01*
X154733571Y-126670952D02*
X154638333Y-126623333D01*
X154590714Y-126575714D01*
X154543095Y-126480476D01*
X154543095Y-126432857D01*
X154590714Y-126337619D01*
X154638333Y-126290000D01*
X154733571Y-126242381D01*
X154924048Y-126242381D01*
X155019286Y-126290000D01*
X155066905Y-126337619D01*
X155114524Y-126432857D01*
X155114524Y-126480476D01*
X155066905Y-126575714D01*
X155019286Y-126623333D01*
X154924048Y-126670952D01*
X154733571Y-126670952D01*
X154638333Y-126718571D01*
X154590714Y-126766190D01*
X154543095Y-126861429D01*
X154543095Y-127051905D01*
X154590714Y-127147143D01*
X154638333Y-127194762D01*
X154733571Y-127242381D01*
X154924048Y-127242381D01*
X155019286Y-127194762D01*
X155066905Y-127147143D01*
X155114524Y-127051905D01*
X155114524Y-126861429D01*
X155066905Y-126766190D01*
X155019286Y-126718571D01*
X154924048Y-126670952D01*
X156066905Y-127242381D02*
X155495476Y-127242381D01*
X155781190Y-127242381D02*
X155781190Y-126242381D01*
X155685952Y-126385238D01*
X155590714Y-126480476D01*
X155495476Y-126528095D01*
X156447857Y-126337619D02*
X156495476Y-126290000D01*
X156590714Y-126242381D01*
X156828810Y-126242381D01*
X156924048Y-126290000D01*
X156971667Y-126337619D01*
X157019286Y-126432857D01*
X157019286Y-126528095D01*
X156971667Y-126670952D01*
X156400238Y-127242381D01*
X157019286Y-127242381D01*
X153543095Y-109942381D02*
X153543095Y-110751905D01*
X153590714Y-110847143D01*
X153638333Y-110894762D01*
X153733571Y-110942381D01*
X153924048Y-110942381D01*
X154019286Y-110894762D01*
X154066905Y-110847143D01*
X154114524Y-110751905D01*
X154114524Y-109942381D01*
X154543095Y-110037619D02*
X154590714Y-109990000D01*
X154685952Y-109942381D01*
X154924048Y-109942381D01*
X155019286Y-109990000D01*
X155066905Y-110037619D01*
X155114524Y-110132857D01*
X155114524Y-110228095D01*
X155066905Y-110370952D01*
X154495476Y-110942381D01*
X155114524Y-110942381D01*
X168410238Y-133116190D02*
X168410238Y-133592381D01*
X168076905Y-132592381D02*
X168410238Y-133116190D01*
X168743572Y-132592381D01*
X168981667Y-132592381D02*
X169600715Y-132592381D01*
X169267381Y-132973333D01*
X169410239Y-132973333D01*
X169505477Y-133020952D01*
X169553096Y-133068571D01*
X169600715Y-133163810D01*
X169600715Y-133401905D01*
X169553096Y-133497143D01*
X169505477Y-133544762D01*
X169410239Y-133592381D01*
X169124524Y-133592381D01*
X169029286Y-133544762D01*
X168981667Y-133497143D01*
X170219762Y-132592381D02*
X170315001Y-132592381D01*
X170410239Y-132640000D01*
X170457858Y-132687619D01*
X170505477Y-132782857D01*
X170553096Y-132973333D01*
X170553096Y-133211429D01*
X170505477Y-133401905D01*
X170457858Y-133497143D01*
X170410239Y-133544762D01*
X170315001Y-133592381D01*
X170219762Y-133592381D01*
X170124524Y-133544762D01*
X170076905Y-133497143D01*
X170029286Y-133401905D01*
X169981667Y-133211429D01*
X169981667Y-132973333D01*
X170029286Y-132782857D01*
X170076905Y-132687619D01*
X170124524Y-132640000D01*
X170219762Y-132592381D01*
X171505477Y-133592381D02*
X170934048Y-133592381D01*
X171219762Y-133592381D02*
X171219762Y-132592381D01*
X171124524Y-132735238D01*
X171029286Y-132830476D01*
X170934048Y-132878095D01*
X172362620Y-132925714D02*
X172362620Y-133592381D01*
X172124524Y-132544762D02*
X171886429Y-133259048D01*
X172505477Y-133259048D01*
X173219763Y-133068571D02*
X173362620Y-133116190D01*
X173410239Y-133163810D01*
X173457858Y-133259048D01*
X173457858Y-133401905D01*
X173410239Y-133497143D01*
X173362620Y-133544762D01*
X173267382Y-133592381D01*
X172886429Y-133592381D01*
X172886429Y-132592381D01*
X173219763Y-132592381D01*
X173315001Y-132640000D01*
X173362620Y-132687619D01*
X173410239Y-132782857D01*
X173410239Y-132878095D01*
X173362620Y-132973333D01*
X173315001Y-133020952D01*
X173219763Y-133068571D01*
X172886429Y-133068571D01*
X170053095Y-126452381D02*
X170053095Y-127261905D01*
X170100714Y-127357143D01*
X170148333Y-127404762D01*
X170243571Y-127452381D01*
X170434048Y-127452381D01*
X170529286Y-127404762D01*
X170576905Y-127357143D01*
X170624524Y-127261905D01*
X170624524Y-126452381D01*
X171005476Y-126452381D02*
X171624524Y-126452381D01*
X171291190Y-126833333D01*
X171434048Y-126833333D01*
X171529286Y-126880952D01*
X171576905Y-126928571D01*
X171624524Y-127023810D01*
X171624524Y-127261905D01*
X171576905Y-127357143D01*
X171529286Y-127404762D01*
X171434048Y-127452381D01*
X171148333Y-127452381D01*
X171053095Y-127404762D01*
X171005476Y-127357143D01*
X168600715Y-120892381D02*
X168124524Y-120892381D01*
X168124524Y-119892381D01*
X168934048Y-120892381D02*
X168934048Y-119892381D01*
X169267382Y-120606667D01*
X169600715Y-119892381D01*
X169600715Y-120892381D01*
X169981667Y-119892381D02*
X170600715Y-119892381D01*
X170267381Y-120273333D01*
X170410239Y-120273333D01*
X170505477Y-120320952D01*
X170553096Y-120368571D01*
X170600715Y-120463810D01*
X170600715Y-120701905D01*
X170553096Y-120797143D01*
X170505477Y-120844762D01*
X170410239Y-120892381D01*
X170124524Y-120892381D01*
X170029286Y-120844762D01*
X169981667Y-120797143D01*
X171505477Y-119892381D02*
X171029286Y-119892381D01*
X170981667Y-120368571D01*
X171029286Y-120320952D01*
X171124524Y-120273333D01*
X171362620Y-120273333D01*
X171457858Y-120320952D01*
X171505477Y-120368571D01*
X171553096Y-120463810D01*
X171553096Y-120701905D01*
X171505477Y-120797143D01*
X171457858Y-120844762D01*
X171362620Y-120892381D01*
X171124524Y-120892381D01*
X171029286Y-120844762D01*
X170981667Y-120797143D01*
X172124524Y-120320952D02*
X172029286Y-120273333D01*
X171981667Y-120225714D01*
X171934048Y-120130476D01*
X171934048Y-120082857D01*
X171981667Y-119987619D01*
X172029286Y-119940000D01*
X172124524Y-119892381D01*
X172315001Y-119892381D01*
X172410239Y-119940000D01*
X172457858Y-119987619D01*
X172505477Y-120082857D01*
X172505477Y-120130476D01*
X172457858Y-120225714D01*
X172410239Y-120273333D01*
X172315001Y-120320952D01*
X172124524Y-120320952D01*
X172029286Y-120368571D01*
X171981667Y-120416190D01*
X171934048Y-120511429D01*
X171934048Y-120701905D01*
X171981667Y-120797143D01*
X172029286Y-120844762D01*
X172124524Y-120892381D01*
X172315001Y-120892381D01*
X172410239Y-120844762D01*
X172457858Y-120797143D01*
X172505477Y-120701905D01*
X172505477Y-120511429D01*
X172457858Y-120416190D01*
X172410239Y-120368571D01*
X172315001Y-120320952D01*
X172934048Y-120892381D02*
X172934048Y-119892381D01*
X173505477Y-120892381D01*
X173505477Y-119892381D01*
X170053095Y-113752381D02*
X170053095Y-114561905D01*
X170100714Y-114657143D01*
X170148333Y-114704762D01*
X170243571Y-114752381D01*
X170434048Y-114752381D01*
X170529286Y-114704762D01*
X170576905Y-114657143D01*
X170624524Y-114561905D01*
X170624524Y-113752381D01*
X171529286Y-114085714D02*
X171529286Y-114752381D01*
X171291190Y-113704762D02*
X171053095Y-114419048D01*
X171672143Y-114419048D01*
X149287429Y-94860981D02*
X149906477Y-94860981D01*
X149573143Y-95241933D01*
X149716001Y-95241933D01*
X149811239Y-95289552D01*
X149858858Y-95337171D01*
X149906477Y-95432410D01*
X149906477Y-95670505D01*
X149858858Y-95765743D01*
X149811239Y-95813362D01*
X149716001Y-95860981D01*
X149430286Y-95860981D01*
X149335048Y-95813362D01*
X149287429Y-95765743D01*
X150335048Y-95765743D02*
X150382667Y-95813362D01*
X150335048Y-95860981D01*
X150287429Y-95813362D01*
X150335048Y-95765743D01*
X150335048Y-95860981D01*
X151287429Y-94860981D02*
X150811238Y-94860981D01*
X150763619Y-95337171D01*
X150811238Y-95289552D01*
X150906476Y-95241933D01*
X151144572Y-95241933D01*
X151239810Y-95289552D01*
X151287429Y-95337171D01*
X151335048Y-95432410D01*
X151335048Y-95670505D01*
X151287429Y-95765743D01*
X151239810Y-95813362D01*
X151144572Y-95860981D01*
X150906476Y-95860981D01*
X150811238Y-95813362D01*
X150763619Y-95765743D01*
X151668381Y-94860981D02*
X152335048Y-94860981D01*
X151906476Y-95860981D01*
X152763619Y-95860981D02*
X152954095Y-95860981D01*
X153049334Y-95813362D01*
X153096953Y-95765743D01*
X153192191Y-95622886D01*
X153239810Y-95432410D01*
X153239810Y-95051457D01*
X153192191Y-94956219D01*
X153144572Y-94908600D01*
X153049334Y-94860981D01*
X152858857Y-94860981D01*
X152763619Y-94908600D01*
X152716000Y-94956219D01*
X152668381Y-95051457D01*
X152668381Y-95289552D01*
X152716000Y-95384790D01*
X152763619Y-95432410D01*
X152858857Y-95480029D01*
X153049334Y-95480029D01*
X153144572Y-95432410D01*
X153192191Y-95384790D01*
X153239810Y-95289552D01*
X154144572Y-94860981D02*
X153668381Y-94860981D01*
X153620762Y-95337171D01*
X153668381Y-95289552D01*
X153763619Y-95241933D01*
X154001715Y-95241933D01*
X154096953Y-95289552D01*
X154144572Y-95337171D01*
X154192191Y-95432410D01*
X154192191Y-95670505D01*
X154144572Y-95765743D01*
X154096953Y-95813362D01*
X154001715Y-95860981D01*
X153763619Y-95860981D01*
X153668381Y-95813362D01*
X153620762Y-95765743D01*
X155049334Y-95194314D02*
X155049334Y-95860981D01*
X154811238Y-94813362D02*
X154573143Y-95527648D01*
X155192191Y-95527648D01*
X156049334Y-94860981D02*
X155573143Y-94860981D01*
X155525524Y-95337171D01*
X155573143Y-95289552D01*
X155668381Y-95241933D01*
X155906477Y-95241933D01*
X156001715Y-95289552D01*
X156049334Y-95337171D01*
X156096953Y-95432410D01*
X156096953Y-95670505D01*
X156049334Y-95765743D01*
X156001715Y-95813362D01*
X155906477Y-95860981D01*
X155668381Y-95860981D01*
X155573143Y-95813362D01*
X155525524Y-95765743D01*
X156525524Y-95860981D02*
X156525524Y-94860981D01*
X156858858Y-95575267D01*
X157192191Y-94860981D01*
X157192191Y-95860981D01*
X157668381Y-95860981D02*
X157668381Y-94860981D01*
X157668381Y-95337171D02*
X158239810Y-95337171D01*
X158239810Y-95860981D02*
X158239810Y-94860981D01*
X158620762Y-95194314D02*
X159144572Y-95194314D01*
X158620762Y-95860981D01*
X159144572Y-95860981D01*
X153406476Y-87310981D02*
X154073143Y-88310981D01*
X154073143Y-87310981D02*
X153406476Y-88310981D01*
X154977905Y-88310981D02*
X154406476Y-88310981D01*
X154692190Y-88310981D02*
X154692190Y-87310981D01*
X154596952Y-87453838D01*
X154501714Y-87549076D01*
X154406476Y-87596695D01*
X149827381Y-132427857D02*
X148827381Y-132427857D01*
X148827381Y-132046904D01*
X148875000Y-131951666D01*
X148922619Y-131904047D01*
X149017857Y-131856428D01*
X149160714Y-131856428D01*
X149255952Y-131904047D01*
X149303571Y-131951666D01*
X149351190Y-132046904D01*
X149351190Y-132427857D01*
X149827381Y-130856428D02*
X149351190Y-131189762D01*
X149827381Y-131427857D02*
X148827381Y-131427857D01*
X148827381Y-131046904D01*
X148875000Y-130951666D01*
X148922619Y-130904047D01*
X149017857Y-130856428D01*
X149160714Y-130856428D01*
X149255952Y-130904047D01*
X149303571Y-130951666D01*
X149351190Y-131046904D01*
X149351190Y-131427857D01*
X149303571Y-130427857D02*
X149303571Y-130094523D01*
X149827381Y-129951666D02*
X149827381Y-130427857D01*
X148827381Y-130427857D01*
X148827381Y-129951666D01*
X148827381Y-129665952D02*
X149827381Y-129332619D01*
X148827381Y-128999285D01*
X145577381Y-132377857D02*
X144577381Y-132377857D01*
X144577381Y-131996904D01*
X144625000Y-131901666D01*
X144672619Y-131854047D01*
X144767857Y-131806428D01*
X144910714Y-131806428D01*
X145005952Y-131854047D01*
X145053571Y-131901666D01*
X145101190Y-131996904D01*
X145101190Y-132377857D01*
X145577381Y-130806428D02*
X145101190Y-131139762D01*
X145577381Y-131377857D02*
X144577381Y-131377857D01*
X144577381Y-130996904D01*
X144625000Y-130901666D01*
X144672619Y-130854047D01*
X144767857Y-130806428D01*
X144910714Y-130806428D01*
X145005952Y-130854047D01*
X145053571Y-130901666D01*
X145101190Y-130996904D01*
X145101190Y-131377857D01*
X145053571Y-130377857D02*
X145053571Y-130044523D01*
X145577381Y-129901666D02*
X145577381Y-130377857D01*
X144577381Y-130377857D01*
X144577381Y-129901666D01*
X144577381Y-129615952D02*
X145577381Y-129282619D01*
X144577381Y-128949285D01*
X158082381Y-131927857D02*
X157606190Y-132261191D01*
X158082381Y-132499286D02*
X157082381Y-132499286D01*
X157082381Y-132118333D01*
X157130000Y-132023095D01*
X157177619Y-131975476D01*
X157272857Y-131927857D01*
X157415714Y-131927857D01*
X157510952Y-131975476D01*
X157558571Y-132023095D01*
X157606190Y-132118333D01*
X157606190Y-132499286D01*
X157796667Y-131546905D02*
X157796667Y-131070714D01*
X158082381Y-131642143D02*
X157082381Y-131308810D01*
X158082381Y-130975476D01*
X158082381Y-130642143D02*
X157082381Y-130642143D01*
X158082381Y-130070714D01*
X157082381Y-130070714D01*
X158082381Y-129594524D02*
X157082381Y-129594524D01*
X157082381Y-129356429D01*
X157130000Y-129213571D01*
X157225238Y-129118333D01*
X157320476Y-129070714D01*
X157510952Y-129023095D01*
X157653810Y-129023095D01*
X157844286Y-129070714D01*
X157939524Y-129118333D01*
X158034762Y-129213571D01*
X158082381Y-129356429D01*
X158082381Y-129594524D01*
X153832381Y-131877857D02*
X153356190Y-132211191D01*
X153832381Y-132449286D02*
X152832381Y-132449286D01*
X152832381Y-132068333D01*
X152880000Y-131973095D01*
X152927619Y-131925476D01*
X153022857Y-131877857D01*
X153165714Y-131877857D01*
X153260952Y-131925476D01*
X153308571Y-131973095D01*
X153356190Y-132068333D01*
X153356190Y-132449286D01*
X153546667Y-131496905D02*
X153546667Y-131020714D01*
X153832381Y-131592143D02*
X152832381Y-131258810D01*
X153832381Y-130925476D01*
X153832381Y-130592143D02*
X152832381Y-130592143D01*
X153832381Y-130020714D01*
X152832381Y-130020714D01*
X153832381Y-129544524D02*
X152832381Y-129544524D01*
X152832381Y-129306429D01*
X152880000Y-129163571D01*
X152975238Y-129068333D01*
X153070476Y-129020714D01*
X153260952Y-128973095D01*
X153403810Y-128973095D01*
X153594286Y-129020714D01*
X153689524Y-129068333D01*
X153784762Y-129163571D01*
X153832381Y-129306429D01*
X153832381Y-129544524D01*
X166337381Y-132380238D02*
X165337381Y-132380238D01*
X166337381Y-131808809D01*
X165337381Y-131808809D01*
X165813571Y-131332619D02*
X165813571Y-130999285D01*
X166337381Y-130856428D02*
X166337381Y-131332619D01*
X165337381Y-131332619D01*
X165337381Y-130856428D01*
X165337381Y-130523095D02*
X166337381Y-129856428D01*
X165337381Y-129856428D02*
X166337381Y-130523095D01*
X165337381Y-129618333D02*
X165337381Y-129046904D01*
X166337381Y-129332619D02*
X165337381Y-129332619D01*
X162087381Y-132330238D02*
X161087381Y-132330238D01*
X162087381Y-131758809D01*
X161087381Y-131758809D01*
X161563571Y-131282619D02*
X161563571Y-130949285D01*
X162087381Y-130806428D02*
X162087381Y-131282619D01*
X161087381Y-131282619D01*
X161087381Y-130806428D01*
X161087381Y-130473095D02*
X162087381Y-129806428D01*
X161087381Y-129806428D02*
X162087381Y-130473095D01*
X161087381Y-129568333D02*
X161087381Y-128996904D01*
X162087381Y-129282619D02*
X161087381Y-129282619D01*
X144836905Y-143477381D02*
X144360714Y-143477381D01*
X144360714Y-142477381D01*
X145360714Y-142477381D02*
X145551191Y-142477381D01*
X145646429Y-142525000D01*
X145741667Y-142620238D01*
X145789286Y-142810714D01*
X145789286Y-143144048D01*
X145741667Y-143334524D01*
X145646429Y-143429762D01*
X145551191Y-143477381D01*
X145360714Y-143477381D01*
X145265476Y-143429762D01*
X145170238Y-143334524D01*
X145122619Y-143144048D01*
X145122619Y-142810714D01*
X145170238Y-142620238D01*
X145265476Y-142525000D01*
X145360714Y-142477381D01*
X146408333Y-142477381D02*
X146598810Y-142477381D01*
X146694048Y-142525000D01*
X146789286Y-142620238D01*
X146836905Y-142810714D01*
X146836905Y-143144048D01*
X146789286Y-143334524D01*
X146694048Y-143429762D01*
X146598810Y-143477381D01*
X146408333Y-143477381D01*
X146313095Y-143429762D01*
X146217857Y-143334524D01*
X146170238Y-143144048D01*
X146170238Y-142810714D01*
X146217857Y-142620238D01*
X146313095Y-142525000D01*
X146408333Y-142477381D01*
X147265476Y-143477381D02*
X147265476Y-142477381D01*
X147646429Y-142477381D01*
X147741667Y-142525000D01*
X147789286Y-142572619D01*
X147836905Y-142667857D01*
X147836905Y-142810714D01*
X147789286Y-142905952D01*
X147741667Y-142953571D01*
X147646429Y-143001190D01*
X147265476Y-143001190D01*
X144553572Y-138560714D02*
X143791667Y-138846429D01*
X144553572Y-139132143D01*
X145505953Y-139227381D02*
X145029762Y-139227381D01*
X145029762Y-138227381D01*
X146029762Y-138227381D02*
X146220239Y-138227381D01*
X146315477Y-138275000D01*
X146410715Y-138370238D01*
X146458334Y-138560714D01*
X146458334Y-138894048D01*
X146410715Y-139084524D01*
X146315477Y-139179762D01*
X146220239Y-139227381D01*
X146029762Y-139227381D01*
X145934524Y-139179762D01*
X145839286Y-139084524D01*
X145791667Y-138894048D01*
X145791667Y-138560714D01*
X145839286Y-138370238D01*
X145934524Y-138275000D01*
X146029762Y-138227381D01*
X147077381Y-138227381D02*
X147267858Y-138227381D01*
X147363096Y-138275000D01*
X147458334Y-138370238D01*
X147505953Y-138560714D01*
X147505953Y-138894048D01*
X147458334Y-139084524D01*
X147363096Y-139179762D01*
X147267858Y-139227381D01*
X147077381Y-139227381D01*
X146982143Y-139179762D01*
X146886905Y-139084524D01*
X146839286Y-138894048D01*
X146839286Y-138560714D01*
X146886905Y-138370238D01*
X146982143Y-138275000D01*
X147077381Y-138227381D01*
X147934524Y-139227381D02*
X147934524Y-138227381D01*
X148315477Y-138227381D01*
X148410715Y-138275000D01*
X148458334Y-138322619D01*
X148505953Y-138417857D01*
X148505953Y-138560714D01*
X148458334Y-138655952D01*
X148410715Y-138703571D01*
X148315477Y-138751190D01*
X147934524Y-138751190D01*
X158918095Y-143429762D02*
X159060952Y-143477381D01*
X159299048Y-143477381D01*
X159394286Y-143429762D01*
X159441905Y-143382143D01*
X159489524Y-143286905D01*
X159489524Y-143191667D01*
X159441905Y-143096429D01*
X159394286Y-143048810D01*
X159299048Y-143001190D01*
X159108571Y-142953571D01*
X159013333Y-142905952D01*
X158965714Y-142858333D01*
X158918095Y-142763095D01*
X158918095Y-142667857D01*
X158965714Y-142572619D01*
X159013333Y-142525000D01*
X159108571Y-142477381D01*
X159346667Y-142477381D01*
X159489524Y-142525000D01*
X159918095Y-143477381D02*
X159918095Y-142477381D01*
X159918095Y-142953571D02*
X160489524Y-142953571D01*
X160489524Y-143477381D02*
X160489524Y-142477381D01*
X160965714Y-142477381D02*
X160965714Y-143286905D01*
X161013333Y-143382143D01*
X161060952Y-143429762D01*
X161156190Y-143477381D01*
X161346667Y-143477381D01*
X161441905Y-143429762D01*
X161489524Y-143382143D01*
X161537143Y-143286905D01*
X161537143Y-142477381D01*
X162346667Y-142953571D02*
X162013333Y-142953571D01*
X162013333Y-143477381D02*
X162013333Y-142477381D01*
X162489524Y-142477381D01*
X158349048Y-139179762D02*
X158491905Y-139227381D01*
X158730001Y-139227381D01*
X158825239Y-139179762D01*
X158872858Y-139132143D01*
X158920477Y-139036905D01*
X158920477Y-138941667D01*
X158872858Y-138846429D01*
X158825239Y-138798810D01*
X158730001Y-138751190D01*
X158539524Y-138703571D01*
X158444286Y-138655952D01*
X158396667Y-138608333D01*
X158349048Y-138513095D01*
X158349048Y-138417857D01*
X158396667Y-138322619D01*
X158444286Y-138275000D01*
X158539524Y-138227381D01*
X158777620Y-138227381D01*
X158920477Y-138275000D01*
X159349048Y-139227381D02*
X159349048Y-138227381D01*
X159349048Y-138703571D02*
X159920477Y-138703571D01*
X159920477Y-139227381D02*
X159920477Y-138227381D01*
X160396667Y-138227381D02*
X160396667Y-139036905D01*
X160444286Y-139132143D01*
X160491905Y-139179762D01*
X160587143Y-139227381D01*
X160777620Y-139227381D01*
X160872858Y-139179762D01*
X160920477Y-139132143D01*
X160968096Y-139036905D01*
X160968096Y-138227381D01*
X161777620Y-138703571D02*
X161444286Y-138703571D01*
X161444286Y-139227381D02*
X161444286Y-138227381D01*
X161920477Y-138227381D01*
X162301429Y-138560714D02*
X163063334Y-138846429D01*
X162301429Y-139132143D01*
M02*
