G04 #@! TF.FileFunction,Other,User*
%FSLAX46Y46*%
G04 Gerber Fmt 4.6, Leading zero omitted, Abs format (unit mm)*
G04 Created by KiCad (PCBNEW 4.0.6) date 01/21/18 18:38:45*
%MOMM*%
%LPD*%
G01*
G04 APERTURE LIST*
%ADD10C,0.100000*%
%ADD11C,0.050000*%
G04 APERTURE END LIST*
D10*
D11*
X171120000Y-135445000D02*
X171120000Y-140145000D01*
X171120000Y-140145000D02*
X175820000Y-140145000D01*
X175820000Y-140145000D02*
X175820000Y-135445000D01*
X175820000Y-135445000D02*
X171120000Y-135445000D01*
X166040000Y-135445000D02*
X166040000Y-140145000D01*
X166040000Y-140145000D02*
X170740000Y-140145000D01*
X170740000Y-140145000D02*
X170740000Y-135445000D01*
X170740000Y-135445000D02*
X166040000Y-135445000D01*
X166445000Y-97250000D02*
X166445000Y-105950000D01*
X166445000Y-105950000D02*
X175145000Y-105950000D01*
X175145000Y-105950000D02*
X175145000Y-97250000D01*
X175145000Y-97250000D02*
X166445000Y-97250000D01*
X166975000Y-93805000D02*
X175075000Y-93805000D01*
X166975000Y-78305000D02*
X166975000Y-93805000D01*
X175075000Y-78305000D02*
X175075000Y-93805000D01*
X166975000Y-78305000D02*
X175075000Y-78305000D01*
X145635000Y-94970000D02*
X145635000Y-126020000D01*
X145635000Y-126020000D02*
X162985000Y-126020000D01*
X162985000Y-126020000D02*
X162985000Y-94970000D01*
X162985000Y-94970000D02*
X145635000Y-94970000D01*
X165905000Y-121640000D02*
X165905000Y-132340000D01*
X165905000Y-132340000D02*
X175705000Y-132340000D01*
X175705000Y-132340000D02*
X175705000Y-121640000D01*
X175705000Y-121640000D02*
X165905000Y-121640000D01*
X165905000Y-108940000D02*
X165905000Y-119640000D01*
X165905000Y-119640000D02*
X175705000Y-119640000D01*
X175705000Y-119640000D02*
X175705000Y-108940000D01*
X175705000Y-108940000D02*
X165905000Y-108940000D01*
X164816000Y-94458600D02*
X164816000Y-81258600D01*
X164816000Y-81258600D02*
X143616000Y-81258600D01*
X143616000Y-81258600D02*
X143616000Y-94458600D01*
X143616000Y-94458600D02*
X164816000Y-94458600D01*
X141725000Y-126335000D02*
X141725000Y-135085000D01*
X148475000Y-126385000D02*
X141775000Y-126385000D01*
X148475000Y-135085000D02*
X148475000Y-126385000D01*
X141725000Y-135085000D02*
X148475000Y-135085000D01*
X149980000Y-126335000D02*
X149980000Y-135085000D01*
X156730000Y-126385000D02*
X150030000Y-126385000D01*
X156730000Y-135085000D02*
X156730000Y-126385000D01*
X149980000Y-135085000D02*
X156730000Y-135085000D01*
X158235000Y-126335000D02*
X158235000Y-135085000D01*
X164985000Y-126385000D02*
X158285000Y-126385000D01*
X164985000Y-135085000D02*
X164985000Y-126385000D01*
X158235000Y-135085000D02*
X164985000Y-135085000D01*
X150525000Y-135375000D02*
X141775000Y-135375000D01*
X150475000Y-142125000D02*
X150475000Y-135425000D01*
X141775000Y-142125000D02*
X150475000Y-142125000D01*
X141775000Y-135375000D02*
X141775000Y-142125000D01*
X165130000Y-135375000D02*
X156380000Y-135375000D01*
X165080000Y-142125000D02*
X165080000Y-135425000D01*
X156380000Y-142125000D02*
X165080000Y-142125000D01*
X156380000Y-135375000D02*
X156380000Y-142125000D01*
M02*
