G04 #@! TF.FileFunction,Copper,L1,Top,Signal*
%FSLAX46Y46*%
G04 Gerber Fmt 4.6, Leading zero omitted, Abs format (unit mm)*
G04 Created by KiCad (PCBNEW 4.0.6) date 01/20/18 20:01:26*
%MOMM*%
%LPD*%
G01*
G04 APERTURE LIST*
%ADD10C,0.100000*%
%ADD11R,1.200000X1.200000*%
%ADD12C,1.200000*%
%ADD13R,1.600000X1.600000*%
%ADD14C,1.600000*%
%ADD15O,1.400000X2.000000*%
%ADD16R,1.400000X2.000000*%
%ADD17O,1.600000X1.600000*%
%ADD18C,0.600000*%
%ADD19C,0.250000*%
G04 APERTURE END LIST*
D10*
D11*
X172720000Y-137795000D03*
D12*
X174220000Y-137795000D03*
D11*
X167640000Y-137795000D03*
D12*
X169140000Y-137795000D03*
D13*
X169545000Y-101600000D03*
D14*
X172045000Y-101600000D03*
D15*
X173775000Y-83805000D03*
X172775000Y-92305000D03*
D16*
X168275000Y-90805000D03*
D15*
X168275000Y-86805000D03*
X168275000Y-83805000D03*
D14*
X123736000Y-122149000D03*
X123736000Y-124689000D03*
X123736000Y-127229000D03*
X123736000Y-129769000D03*
X123736000Y-119609000D03*
X123736000Y-117069000D03*
X123736000Y-114529000D03*
X123736000Y-132309000D03*
X123736000Y-134849000D03*
X123736000Y-137389000D03*
X123736000Y-139929000D03*
X126276000Y-127229000D03*
X128816000Y-127229000D03*
X131356000Y-127229000D03*
X133896000Y-127229000D03*
X136436000Y-127229000D03*
X138976000Y-139929000D03*
X138976000Y-137389000D03*
X138976000Y-134849000D03*
X138976000Y-132309000D03*
X138976000Y-129769000D03*
X138976000Y-127229000D03*
X138976000Y-124689000D03*
X138976000Y-122149000D03*
X123736000Y-111989000D03*
X123736000Y-109449000D03*
X123736000Y-106909000D03*
X123736000Y-104369000D03*
X123736000Y-101829000D03*
X123736000Y-99289000D03*
X123736000Y-96749000D03*
X123736000Y-94209000D03*
X123736000Y-91669000D03*
X123736000Y-89129000D03*
X123736000Y-86589000D03*
X123736000Y-84049000D03*
D13*
X123736000Y-81509000D03*
D14*
X138976000Y-119609000D03*
X138976000Y-117069000D03*
X138976000Y-114529000D03*
X138976000Y-111989000D03*
X138976000Y-109449000D03*
X138976000Y-106909000D03*
X138976000Y-104369000D03*
X138976000Y-101829000D03*
X138976000Y-99289000D03*
X138976000Y-96749000D03*
X138976000Y-94209000D03*
X138976000Y-91669000D03*
X138976000Y-89129000D03*
X138976000Y-86589000D03*
X138976000Y-84049000D03*
X138976000Y-81509000D03*
X136436000Y-84049000D03*
X136436000Y-89129000D03*
X136436000Y-91669000D03*
X136436000Y-94209000D03*
X131356000Y-96749000D03*
X131356000Y-99289000D03*
X131356000Y-101829000D03*
X131356000Y-104369000D03*
X131356000Y-119609000D03*
X131356000Y-122149000D03*
X131356000Y-124689000D03*
X131356000Y-129769000D03*
X131356000Y-132309000D03*
X131356000Y-134849000D03*
X131356000Y-137389000D03*
X131356000Y-139929000D03*
X133896000Y-139929000D03*
X133896000Y-137389000D03*
X133896000Y-134849000D03*
X133896000Y-132309000D03*
X133896000Y-129769000D03*
X133896000Y-124689000D03*
X133896000Y-122149000D03*
X133896000Y-119609000D03*
X133896000Y-104369000D03*
X133896000Y-101829000D03*
X133896000Y-99289000D03*
X133896000Y-96749000D03*
X126736000Y-87859000D03*
X126736000Y-90399000D03*
X126736000Y-92939000D03*
X126736000Y-95479000D03*
X126736000Y-98019000D03*
D13*
X146596000Y-99288600D03*
D17*
X161836000Y-127228600D03*
X146596000Y-101828600D03*
X161836000Y-124688600D03*
X146596000Y-104368600D03*
X161836000Y-122148600D03*
X146596000Y-106908600D03*
X161836000Y-119608600D03*
X146596000Y-109448600D03*
X161836000Y-117068600D03*
X146596000Y-111988600D03*
X161836000Y-114528600D03*
X146596000Y-114528600D03*
X161836000Y-111988600D03*
X146596000Y-117068600D03*
X161836000Y-109448600D03*
X146596000Y-119608600D03*
X161836000Y-106908600D03*
X146596000Y-122148600D03*
X161836000Y-104368600D03*
X146596000Y-124688600D03*
X161836000Y-101828600D03*
X146596000Y-127228600D03*
X161836000Y-99288600D03*
D13*
X167005000Y-123190000D03*
D17*
X174625000Y-130810000D03*
X167005000Y-125730000D03*
X174625000Y-128270000D03*
X167005000Y-128270000D03*
X174625000Y-125730000D03*
X167005000Y-130810000D03*
X174625000Y-123190000D03*
D13*
X167005000Y-110490000D03*
D17*
X174625000Y-118110000D03*
X167005000Y-113030000D03*
X174625000Y-115570000D03*
X167005000Y-115570000D03*
X174625000Y-113030000D03*
X167005000Y-118110000D03*
X174625000Y-110490000D03*
D13*
X146596000Y-91668600D03*
D14*
X146596000Y-84048600D03*
X161836000Y-84048600D03*
X161836000Y-91668600D03*
D18*
X143633700Y-105048500D03*
X143617500Y-110731100D03*
X153859200Y-112968800D03*
D19*
X172720000Y-128479000D02*
X172720000Y-137795000D01*
X174343700Y-126855300D02*
X172720000Y-128479000D01*
X174625000Y-126855300D02*
X174343700Y-126855300D01*
X174625000Y-125730000D02*
X174625000Y-126855300D01*
X174625000Y-115570000D02*
X174625000Y-113030000D01*
X175750300Y-120939400D02*
X174625000Y-122064700D01*
X175750300Y-117539200D02*
X175750300Y-120939400D01*
X174906400Y-116695300D02*
X175750300Y-117539200D01*
X174625000Y-116695300D02*
X174906400Y-116695300D01*
X174625000Y-115570000D02*
X174625000Y-116695300D01*
X174625000Y-122627300D02*
X174625000Y-123086000D01*
X174625000Y-123190000D02*
X174625000Y-123086000D01*
X174625000Y-122627300D02*
X174625000Y-122064700D01*
X168214600Y-136295100D02*
X167640000Y-136869700D01*
X168214600Y-129496400D02*
X168214600Y-136295100D01*
X174625000Y-123086000D02*
X168214600Y-129496400D01*
X167640000Y-137795000D02*
X167640000Y-136869700D01*
X167005000Y-113030000D02*
X167005000Y-110490000D01*
X169545000Y-106824700D02*
X169545000Y-101600000D01*
X167005000Y-109364700D02*
X169545000Y-106824700D01*
X167005000Y-110490000D02*
X167005000Y-109364700D01*
X168275000Y-83805000D02*
X168275000Y-86805000D01*
X169300300Y-98855300D02*
X172045000Y-101600000D01*
X169300300Y-86805000D02*
X169300300Y-98855300D01*
X168275000Y-86805000D02*
X169300300Y-86805000D01*
X125150600Y-133434400D02*
X123736000Y-134849000D01*
X125150700Y-133434400D02*
X125150600Y-133434400D01*
X125150700Y-124215400D02*
X125150700Y-133434400D01*
X138647100Y-110719000D02*
X125150700Y-124215400D01*
X139370100Y-110719000D02*
X138647100Y-110719000D01*
X143633700Y-106455400D02*
X139370100Y-110719000D01*
X143633700Y-105048500D02*
X143633700Y-106455400D01*
X143617500Y-111531300D02*
X143617500Y-110731100D01*
X139349800Y-115799000D02*
X143617500Y-111531300D01*
X138648500Y-115799000D02*
X139349800Y-115799000D01*
X135394300Y-119053200D02*
X138648500Y-115799000D01*
X135394300Y-119767500D02*
X135394300Y-119053200D01*
X134138200Y-121023600D02*
X135394300Y-119767500D01*
X133382000Y-121023600D02*
X134138200Y-121023600D01*
X132481400Y-121924200D02*
X133382000Y-121023600D01*
X132481400Y-125168400D02*
X132481400Y-121924200D01*
X131546200Y-126103600D02*
X132481400Y-125168400D01*
X130876600Y-126103600D02*
X131546200Y-126103600D01*
X130230600Y-126749600D02*
X130876600Y-126103600D01*
X130230600Y-130894400D02*
X130230600Y-126749600D01*
X123736000Y-137389000D02*
X130230600Y-130894400D01*
X130086000Y-133579000D02*
X123736000Y-139929000D01*
X136066300Y-133579000D02*
X130086000Y-133579000D01*
X138606300Y-131039000D02*
X136066300Y-133579000D01*
X140395200Y-131039000D02*
X138606300Y-131039000D01*
X145619800Y-125814400D02*
X140395200Y-131039000D01*
X147070900Y-125814400D02*
X145619800Y-125814400D01*
X147721400Y-125163900D02*
X147070900Y-125814400D01*
X147721400Y-119065000D02*
X147721400Y-125163900D01*
X146995000Y-118338600D02*
X147721400Y-119065000D01*
X146268400Y-118338600D02*
X146995000Y-118338600D01*
X145470700Y-117540900D02*
X146268400Y-118338600D01*
X145470700Y-111521100D02*
X145470700Y-117540900D01*
X146417900Y-110573900D02*
X145470700Y-111521100D01*
X146596000Y-110573900D02*
X146417900Y-110573900D01*
X146596000Y-109448600D02*
X146596000Y-110573900D01*
X146596000Y-111988600D02*
X146596000Y-113113900D01*
X146877300Y-113113900D02*
X146596000Y-113113900D01*
X148622000Y-114858600D02*
X146877300Y-113113900D01*
X148622000Y-130283000D02*
X148622000Y-114858600D01*
X138976000Y-139929000D02*
X148622000Y-130283000D01*
X146596000Y-114528600D02*
X146596000Y-115653900D01*
X146826900Y-115653900D02*
X146596000Y-115653900D01*
X148171700Y-116998700D02*
X146826900Y-115653900D01*
X148171700Y-128193300D02*
X148171700Y-116998700D01*
X138976000Y-137389000D02*
X148171700Y-128193300D01*
X155419000Y-114528600D02*
X153859200Y-112968800D01*
X161836000Y-114528600D02*
X155419000Y-114528600D01*
X161836000Y-127228600D02*
X161836000Y-126103300D01*
X137802700Y-93035700D02*
X138976000Y-94209000D01*
X137802700Y-88680500D02*
X137802700Y-93035700D01*
X138479600Y-88003600D02*
X137802700Y-88680500D01*
X139474300Y-88003600D02*
X138479600Y-88003600D01*
X141681600Y-90210900D02*
X139474300Y-88003600D01*
X141681600Y-98523000D02*
X141681600Y-90210900D01*
X146257200Y-103098600D02*
X141681600Y-98523000D01*
X146978800Y-103098600D02*
X146257200Y-103098600D01*
X148437400Y-104557200D02*
X146978800Y-103098600D01*
X148437400Y-112986000D02*
X148437400Y-104557200D01*
X161554700Y-126103300D02*
X148437400Y-112986000D01*
X161836000Y-126103300D02*
X161554700Y-126103300D01*
X140390600Y-93083600D02*
X138976000Y-91669000D01*
X140390600Y-100921000D02*
X140390600Y-93083600D01*
X144570000Y-105100400D02*
X140390600Y-100921000D01*
X144570000Y-121818600D02*
X144570000Y-105100400D01*
X146314700Y-123563300D02*
X144570000Y-121818600D01*
X146596000Y-123563300D02*
X146314700Y-123563300D01*
X146596000Y-124688600D02*
X146596000Y-123563300D01*
X146596000Y-122148600D02*
X146596000Y-121023300D01*
X140847400Y-91000400D02*
X138976000Y-89129000D01*
X140847400Y-99213600D02*
X140847400Y-91000400D01*
X145020400Y-103386600D02*
X140847400Y-99213600D01*
X145020400Y-119729100D02*
X145020400Y-103386600D01*
X146314600Y-121023300D02*
X145020400Y-119729100D01*
X146596000Y-121023300D02*
X146314600Y-121023300D01*
X146033400Y-84611200D02*
X145429800Y-84611200D01*
X146596000Y-84048600D02*
X146033400Y-84611200D01*
X142078200Y-84611200D02*
X138976000Y-81509000D01*
X145429800Y-84611200D02*
X142078200Y-84611200D01*
X174625000Y-110490000D02*
X173499700Y-110490000D01*
X146596000Y-99288600D02*
X147721300Y-99288600D01*
X167005000Y-123190000D02*
X167005000Y-122064700D01*
X168166700Y-120903000D02*
X167005000Y-122064700D01*
X168166700Y-114167400D02*
X168166700Y-120903000D01*
X166516000Y-114167400D02*
X168166700Y-114167400D01*
X165248100Y-112899500D02*
X166516000Y-114167400D01*
X165248100Y-111202600D02*
X165248100Y-112899500D01*
X162224100Y-108178600D02*
X165248100Y-111202600D01*
X156611300Y-108178600D02*
X162224100Y-108178600D01*
X147721300Y-99288600D02*
X156611300Y-108178600D01*
X169822300Y-114167400D02*
X173499700Y-110490000D01*
X168166700Y-114167400D02*
X169822300Y-114167400D01*
X145429800Y-96997100D02*
X145429800Y-84611200D01*
X146596000Y-98163300D02*
X145429800Y-96997100D01*
X146596000Y-99288600D02*
X146596000Y-98163300D01*
X162117300Y-110573900D02*
X161836000Y-110573900D01*
X164156900Y-112613500D02*
X162117300Y-110573900D01*
X164156900Y-124577900D02*
X164156900Y-112613500D01*
X166723700Y-127144700D02*
X164156900Y-124577900D01*
X167005000Y-127144700D02*
X166723700Y-127144700D01*
X167005000Y-128270000D02*
X167005000Y-127144700D01*
X161836000Y-109448600D02*
X161836000Y-110573900D01*
X166301600Y-124604700D02*
X167005000Y-124604700D01*
X165879700Y-124182800D02*
X166301600Y-124604700D01*
X165879700Y-117539300D02*
X165879700Y-124182800D01*
X166723700Y-116695300D02*
X165879700Y-117539300D01*
X167005000Y-116695300D02*
X166723700Y-116695300D01*
X167005000Y-115570000D02*
X167005000Y-116695300D01*
X167005000Y-125730000D02*
X167005000Y-124604700D01*
M02*
