G04 #@! TF.FileFunction,Copper,L2,Bot,Signal*
%FSLAX46Y46*%
G04 Gerber Fmt 4.6, Leading zero omitted, Abs format (unit mm)*
G04 Created by KiCad (PCBNEW 4.0.7) date 02/06/18 12:48:21*
%MOMM*%
%LPD*%
G01*
G04 APERTURE LIST*
%ADD10C,0.100000*%
%ADD11R,1.200000X1.200000*%
%ADD12C,1.200000*%
%ADD13R,1.600000X1.600000*%
%ADD14C,1.600000*%
%ADD15O,1.400000X2.000000*%
%ADD16R,1.400000X2.000000*%
%ADD17O,1.600000X1.600000*%
%ADD18C,1.700000*%
%ADD19C,0.600000*%
%ADD20C,0.250000*%
%ADD21C,0.200000*%
G04 APERTURE END LIST*
D10*
D11*
X172720000Y-137795000D03*
D12*
X174220000Y-137795000D03*
D11*
X167640000Y-137795000D03*
D12*
X169140000Y-137795000D03*
D13*
X169545000Y-101600000D03*
D14*
X172045000Y-101600000D03*
D15*
X173775000Y-83805000D03*
X172775000Y-92305000D03*
D16*
X168275000Y-90805000D03*
D15*
X168275000Y-86805000D03*
X168275000Y-83805000D03*
D14*
X123736000Y-122149000D03*
X123736000Y-124689000D03*
X123736000Y-127229000D03*
X123736000Y-129769000D03*
X123736000Y-119609000D03*
X123736000Y-117069000D03*
X123736000Y-114529000D03*
X123736000Y-132309000D03*
X123736000Y-134849000D03*
X123736000Y-137389000D03*
X123736000Y-139929000D03*
X126276000Y-127229000D03*
X128816000Y-127229000D03*
X131356000Y-127229000D03*
X133896000Y-127229000D03*
X136436000Y-127229000D03*
X138976000Y-139929000D03*
X138976000Y-137389000D03*
X138976000Y-134849000D03*
X138976000Y-132309000D03*
X138976000Y-129769000D03*
X138976000Y-127229000D03*
X138976000Y-124689000D03*
X138976000Y-122149000D03*
X123736000Y-111989000D03*
X123736000Y-109449000D03*
X123736000Y-106909000D03*
X123736000Y-104369000D03*
X123736000Y-101829000D03*
X123736000Y-99289000D03*
X123736000Y-96749000D03*
X123736000Y-94209000D03*
X123736000Y-91669000D03*
X123736000Y-89129000D03*
X123736000Y-86589000D03*
X123736000Y-84049000D03*
D13*
X123736000Y-81509000D03*
D14*
X138976000Y-119609000D03*
X138976000Y-117069000D03*
X138976000Y-114529000D03*
X138976000Y-111989000D03*
X138976000Y-109449000D03*
X138976000Y-106909000D03*
X138976000Y-104369000D03*
X138976000Y-101829000D03*
X138976000Y-99289000D03*
X138976000Y-96749000D03*
X138976000Y-94209000D03*
X138976000Y-91669000D03*
X138976000Y-89129000D03*
X138976000Y-86589000D03*
X138976000Y-84049000D03*
X138976000Y-81509000D03*
X136436000Y-84049000D03*
X136436000Y-89129000D03*
X136436000Y-91669000D03*
X136436000Y-94209000D03*
X131356000Y-96749000D03*
X131356000Y-99289000D03*
X131356000Y-101829000D03*
X131356000Y-104369000D03*
X131356000Y-119609000D03*
X131356000Y-122149000D03*
X131356000Y-124689000D03*
X131356000Y-129769000D03*
X131356000Y-132309000D03*
X131356000Y-134849000D03*
X131356000Y-137389000D03*
X131356000Y-139929000D03*
X133896000Y-139929000D03*
X133896000Y-137389000D03*
X133896000Y-134849000D03*
X133896000Y-132309000D03*
X133896000Y-129769000D03*
X133896000Y-124689000D03*
X133896000Y-122149000D03*
X133896000Y-119609000D03*
X133896000Y-104369000D03*
X133896000Y-101829000D03*
X133896000Y-99289000D03*
X133896000Y-96749000D03*
X126736000Y-87859000D03*
X126736000Y-90399000D03*
X126736000Y-92939000D03*
X126736000Y-95479000D03*
X126736000Y-98019000D03*
D13*
X146685000Y-96520000D03*
D17*
X161925000Y-124460000D03*
X146685000Y-99060000D03*
X161925000Y-121920000D03*
X146685000Y-101600000D03*
X161925000Y-119380000D03*
X146685000Y-104140000D03*
X161925000Y-116840000D03*
X146685000Y-106680000D03*
X161925000Y-114300000D03*
X146685000Y-109220000D03*
X161925000Y-111760000D03*
X146685000Y-111760000D03*
X161925000Y-109220000D03*
X146685000Y-114300000D03*
X161925000Y-106680000D03*
X146685000Y-116840000D03*
X161925000Y-104140000D03*
X146685000Y-119380000D03*
X161925000Y-101600000D03*
X146685000Y-121920000D03*
X161925000Y-99060000D03*
X146685000Y-124460000D03*
X161925000Y-96520000D03*
D13*
X167005000Y-123190000D03*
D17*
X174625000Y-130810000D03*
X167005000Y-125730000D03*
X174625000Y-128270000D03*
X167005000Y-128270000D03*
X174625000Y-125730000D03*
X167005000Y-130810000D03*
X174625000Y-123190000D03*
D13*
X167005000Y-110490000D03*
D17*
X174625000Y-118110000D03*
X167005000Y-113030000D03*
X174625000Y-115570000D03*
X167005000Y-115570000D03*
X174625000Y-113030000D03*
X167005000Y-118110000D03*
X174625000Y-110490000D03*
D13*
X146596000Y-91668600D03*
D14*
X146596000Y-84048600D03*
X161836000Y-84048600D03*
X161836000Y-91668600D03*
D18*
X147375000Y-127485000D03*
X147375000Y-133985000D03*
X142875000Y-127485000D03*
X142875000Y-133985000D03*
X155630000Y-127485000D03*
X155630000Y-133985000D03*
X151130000Y-127485000D03*
X151130000Y-133985000D03*
X163885000Y-127485000D03*
X163885000Y-133985000D03*
X159385000Y-127485000D03*
X159385000Y-133985000D03*
X149375000Y-141025000D03*
X142875000Y-141025000D03*
X149375000Y-136525000D03*
X142875000Y-136525000D03*
X163980000Y-141025000D03*
X157480000Y-141025000D03*
X163980000Y-136525000D03*
X157480000Y-136525000D03*
D19*
X146970000Y-125947500D03*
X149713900Y-108214400D03*
X144932400Y-109342700D03*
D20*
X169300300Y-98855300D02*
X172045000Y-101600000D01*
X169300300Y-86805000D02*
X169300300Y-98855300D01*
X168275000Y-86805000D02*
X169300300Y-86805000D01*
X122126600Y-133239600D02*
X123736000Y-134849000D01*
X122126600Y-84062300D02*
X122126600Y-133239600D01*
X123285700Y-82903200D02*
X122126600Y-84062300D01*
X139892100Y-82903200D02*
X123285700Y-82903200D01*
X147812600Y-90823700D02*
X139892100Y-82903200D01*
X147812600Y-99628400D02*
X147812600Y-90823700D01*
X146966300Y-100474700D02*
X147812600Y-99628400D01*
X146685000Y-100474700D02*
X146966300Y-100474700D01*
X146685000Y-101600000D02*
X146685000Y-100474700D01*
X122586600Y-138538400D02*
X123736000Y-137389000D01*
X122586600Y-140413800D02*
X122586600Y-138538400D01*
X124399800Y-142227000D02*
X122586600Y-140413800D01*
X146053100Y-142227000D02*
X124399800Y-142227000D01*
X153220200Y-135059900D02*
X146053100Y-142227000D01*
X153220200Y-112636200D02*
X153220200Y-135059900D01*
X147810300Y-107226300D02*
X153220200Y-112636200D01*
X147810300Y-106109200D02*
X147810300Y-107226300D01*
X146966400Y-105265300D02*
X147810300Y-106109200D01*
X146685000Y-105265300D02*
X146966400Y-105265300D01*
X146685000Y-104140000D02*
X146685000Y-105265300D01*
X124890700Y-141083700D02*
X123736000Y-139929000D01*
X139494600Y-141083700D02*
X124890700Y-141083700D01*
X141613500Y-138964800D02*
X139494600Y-141083700D01*
X148607500Y-138964800D02*
X141613500Y-138964800D01*
X152769800Y-134802500D02*
X148607500Y-138964800D01*
X152769800Y-113678200D02*
X152769800Y-134802500D01*
X146896900Y-107805300D02*
X152769800Y-113678200D01*
X146685000Y-107805300D02*
X146896900Y-107805300D01*
X146685000Y-106680000D02*
X146685000Y-107805300D01*
X140390600Y-138514400D02*
X138976000Y-139929000D01*
X143748600Y-138514400D02*
X140390600Y-138514400D01*
X147102600Y-135160400D02*
X143748600Y-138514400D01*
X151634800Y-135160400D02*
X147102600Y-135160400D01*
X152314900Y-134480300D02*
X151634800Y-135160400D01*
X152314900Y-115693900D02*
X152314900Y-134480300D01*
X146966300Y-110345300D02*
X152314900Y-115693900D01*
X146685000Y-110345300D02*
X146966300Y-110345300D01*
X146685000Y-109220000D02*
X146685000Y-110345300D01*
X147858200Y-125059300D02*
X146970000Y-125947500D01*
X147858200Y-113777200D02*
X147858200Y-125059300D01*
X146966300Y-112885300D02*
X147858200Y-113777200D01*
X146685000Y-112885300D02*
X146966300Y-112885300D01*
X146685000Y-111760000D02*
X146685000Y-112885300D01*
X157254100Y-108214400D02*
X149713900Y-108214400D01*
X160799700Y-111760000D02*
X157254100Y-108214400D01*
X161925000Y-111760000D02*
X160799700Y-111760000D01*
X144932400Y-107785400D02*
X138976000Y-101829000D01*
X144932400Y-109342700D02*
X144932400Y-107785400D01*
X137824500Y-92820500D02*
X138976000Y-91669000D01*
X137824500Y-102269200D02*
X137824500Y-92820500D01*
X138654300Y-103099000D02*
X137824500Y-102269200D01*
X139299100Y-103099000D02*
X138654300Y-103099000D01*
X141398200Y-105198100D02*
X139299100Y-103099000D01*
X141398200Y-115789200D02*
X141398200Y-105198100D01*
X146403700Y-120794700D02*
X141398200Y-115789200D01*
X146685000Y-120794700D02*
X146403700Y-120794700D01*
X146685000Y-121920000D02*
X146685000Y-120794700D01*
X145559700Y-95712700D02*
X138976000Y-89129000D01*
X145559700Y-117410800D02*
X145559700Y-95712700D01*
X146403600Y-118254700D02*
X145559700Y-117410800D01*
X146685000Y-118254700D02*
X146403600Y-118254700D01*
X146685000Y-119380000D02*
X146685000Y-118254700D01*
X162206400Y-107805300D02*
X161925000Y-107805300D01*
X163050300Y-108649200D02*
X162206400Y-107805300D01*
X163050300Y-123471300D02*
X163050300Y-108649200D01*
X166723700Y-127144700D02*
X163050300Y-123471300D01*
X167005000Y-127144700D02*
X166723700Y-127144700D01*
X167005000Y-128270000D02*
X167005000Y-127144700D01*
X161925000Y-106680000D02*
X161925000Y-107805300D01*
X162206300Y-100185300D02*
X161925000Y-100185300D01*
X173499700Y-111478700D02*
X162206300Y-100185300D01*
X173499700Y-128840800D02*
X173499700Y-111478700D01*
X174343600Y-129684700D02*
X173499700Y-128840800D01*
X174625000Y-129684700D02*
X174343600Y-129684700D01*
X174625000Y-130810000D02*
X174625000Y-129684700D01*
X161925000Y-99060000D02*
X161925000Y-100185300D01*
X167708400Y-124604700D02*
X167005000Y-124604700D01*
X168130300Y-124182800D02*
X167708400Y-124604700D01*
X168130300Y-117539300D02*
X168130300Y-124182800D01*
X167286300Y-116695300D02*
X168130300Y-117539300D01*
X167005000Y-116695300D02*
X167286300Y-116695300D01*
X167005000Y-115570000D02*
X167005000Y-116695300D01*
X167005000Y-125730000D02*
X167005000Y-124604700D01*
X122577800Y-85207200D02*
X123736000Y-84049000D01*
X122577800Y-89629600D02*
X122577800Y-85207200D01*
X123347200Y-90399000D02*
X122577800Y-89629600D01*
X124083900Y-90399000D02*
X123347200Y-90399000D01*
X125610600Y-91925700D02*
X124083900Y-90399000D01*
X125610600Y-107866200D02*
X125610600Y-91925700D01*
X138623400Y-120879000D02*
X125610600Y-107866200D01*
X139312000Y-120879000D02*
X138623400Y-120879000D01*
X140949300Y-122516300D02*
X139312000Y-120879000D01*
X140949300Y-132059300D02*
X140949300Y-122516300D01*
X142875000Y-133985000D02*
X140949300Y-132059300D01*
X125150600Y-88003600D02*
X123736000Y-86589000D01*
X125150600Y-90438000D02*
X125150600Y-88003600D01*
X126381600Y-91669000D02*
X125150600Y-90438000D01*
X127122800Y-91669000D02*
X126381600Y-91669000D01*
X128234300Y-92780500D02*
X127122800Y-91669000D01*
X128234300Y-107919400D02*
X128234300Y-92780500D01*
X138756800Y-118441900D02*
X128234300Y-107919400D01*
X139400800Y-118441900D02*
X138756800Y-118441900D01*
X143094700Y-122135800D02*
X139400800Y-118441900D01*
X143094700Y-125949700D02*
X143094700Y-122135800D01*
X151130000Y-133985000D02*
X143094700Y-125949700D01*
X125150600Y-93083600D02*
X123736000Y-91669000D01*
X125150600Y-109221000D02*
X125150600Y-93083600D01*
X135202000Y-119272400D02*
X125150600Y-109221000D01*
X135202000Y-127656900D02*
X135202000Y-119272400D01*
X138439500Y-130894400D02*
X135202000Y-127656900D01*
X139173200Y-130894400D02*
X138439500Y-130894400D01*
X140354300Y-132075500D02*
X139173200Y-130894400D01*
X140354300Y-134004300D02*
X140354300Y-132075500D01*
X142875000Y-136525000D02*
X140354300Y-134004300D01*
D21*
G36*
X176114515Y-78845045D02*
X176300611Y-78969390D01*
X176424955Y-79155485D01*
X176482000Y-79442267D01*
X176482000Y-141537733D01*
X176424955Y-141824515D01*
X176300611Y-142010610D01*
X176114515Y-142134955D01*
X175827732Y-142192000D01*
X164846364Y-142192000D01*
X164904394Y-141987578D01*
X163980000Y-141063184D01*
X163055606Y-141987578D01*
X163113636Y-142192000D01*
X158374687Y-142192000D01*
X158715312Y-141851969D01*
X158937746Y-141316286D01*
X158937774Y-141284179D01*
X162516203Y-141284179D01*
X162726812Y-141824621D01*
X162761673Y-141876793D01*
X163017422Y-141949394D01*
X163941816Y-141025000D01*
X164018184Y-141025000D01*
X164942578Y-141949394D01*
X165198327Y-141876793D01*
X165431555Y-141345720D01*
X165443797Y-140765821D01*
X165233188Y-140225379D01*
X165198327Y-140173207D01*
X164942578Y-140100606D01*
X164018184Y-141025000D01*
X163941816Y-141025000D01*
X163017422Y-140100606D01*
X162761673Y-140173207D01*
X162528445Y-140704280D01*
X162516203Y-141284179D01*
X158937774Y-141284179D01*
X158938253Y-140736258D01*
X158716753Y-140200188D01*
X158579228Y-140062422D01*
X163055606Y-140062422D01*
X163980000Y-140986816D01*
X164904394Y-140062422D01*
X164831793Y-139806673D01*
X164300720Y-139573445D01*
X163720821Y-139561203D01*
X163180379Y-139771812D01*
X163128207Y-139806673D01*
X163055606Y-140062422D01*
X158579228Y-140062422D01*
X158306969Y-139789688D01*
X157771286Y-139567254D01*
X157191258Y-139566747D01*
X156655188Y-139788247D01*
X156244688Y-140198031D01*
X156022254Y-140733714D01*
X156021747Y-141313742D01*
X156243247Y-141849812D01*
X156584838Y-142192000D01*
X150241364Y-142192000D01*
X150299394Y-141987578D01*
X149375000Y-141063184D01*
X148450606Y-141987578D01*
X148508636Y-142192000D01*
X147124718Y-142192000D01*
X147945228Y-141371490D01*
X148121812Y-141824621D01*
X148156673Y-141876793D01*
X148412422Y-141949394D01*
X149336816Y-141025000D01*
X149413184Y-141025000D01*
X150337578Y-141949394D01*
X150593327Y-141876793D01*
X150826555Y-141345720D01*
X150838797Y-140765821D01*
X150628188Y-140225379D01*
X150593327Y-140173207D01*
X150337578Y-140100606D01*
X149413184Y-141025000D01*
X149336816Y-141025000D01*
X149322674Y-141010858D01*
X149360858Y-140972674D01*
X149375000Y-140986816D01*
X150299394Y-140062422D01*
X150226793Y-139806673D01*
X149728762Y-139587956D01*
X152502976Y-136813742D01*
X156021747Y-136813742D01*
X156243247Y-137349812D01*
X156653031Y-137760312D01*
X157188714Y-137982746D01*
X157768742Y-137983253D01*
X158304812Y-137761753D01*
X158715312Y-137351969D01*
X158937746Y-136816286D01*
X158938253Y-136236258D01*
X158716753Y-135700188D01*
X158306969Y-135289688D01*
X157771286Y-135067254D01*
X157191258Y-135066747D01*
X156655188Y-135288247D01*
X156244688Y-135698031D01*
X156022254Y-136233714D01*
X156021747Y-136813742D01*
X152502976Y-136813742D01*
X153738509Y-135578209D01*
X153897404Y-135340407D01*
X153953200Y-135059900D01*
X153953200Y-134273742D01*
X154171747Y-134273742D01*
X154393247Y-134809812D01*
X154803031Y-135220312D01*
X155338714Y-135442746D01*
X155918742Y-135443253D01*
X156454812Y-135221753D01*
X156865312Y-134811969D01*
X157087746Y-134276286D01*
X157087748Y-134273742D01*
X157926747Y-134273742D01*
X158148247Y-134809812D01*
X158558031Y-135220312D01*
X159093714Y-135442746D01*
X159673742Y-135443253D01*
X160209812Y-135221753D01*
X160620312Y-134811969D01*
X160842746Y-134276286D01*
X160842748Y-134273742D01*
X162426747Y-134273742D01*
X162648247Y-134809812D01*
X163058031Y-135220312D01*
X163188495Y-135274485D01*
X163155188Y-135288247D01*
X162744688Y-135698031D01*
X162522254Y-136233714D01*
X162521747Y-136813742D01*
X162743247Y-137349812D01*
X163153031Y-137760312D01*
X163688714Y-137982746D01*
X164268742Y-137983253D01*
X164804812Y-137761753D01*
X165215312Y-137351969D01*
X165280490Y-137195000D01*
X166420089Y-137195000D01*
X166420089Y-138395000D01*
X166462484Y-138620311D01*
X166595643Y-138827246D01*
X166798820Y-138966071D01*
X167040000Y-139014911D01*
X168240000Y-139014911D01*
X168465311Y-138972516D01*
X168607777Y-138880842D01*
X168878796Y-138998650D01*
X169359296Y-139006986D01*
X169806410Y-138830808D01*
X169841938Y-138807069D01*
X169884108Y-138577292D01*
X169140000Y-137833184D01*
X169125858Y-137847326D01*
X169087674Y-137809142D01*
X169101816Y-137795000D01*
X169178184Y-137795000D01*
X169922292Y-138539108D01*
X170152069Y-138496938D01*
X170343650Y-138056204D01*
X170351986Y-137575704D01*
X170201976Y-137195000D01*
X171500089Y-137195000D01*
X171500089Y-138395000D01*
X171542484Y-138620311D01*
X171675643Y-138827246D01*
X171878820Y-138966071D01*
X172120000Y-139014911D01*
X173320000Y-139014911D01*
X173545311Y-138972516D01*
X173687777Y-138880842D01*
X173958796Y-138998650D01*
X174439296Y-139006986D01*
X174886410Y-138830808D01*
X174921938Y-138807069D01*
X174964108Y-138577292D01*
X174220000Y-137833184D01*
X174205858Y-137847326D01*
X174167674Y-137809142D01*
X174181816Y-137795000D01*
X174258184Y-137795000D01*
X175002292Y-138539108D01*
X175232069Y-138496938D01*
X175423650Y-138056204D01*
X175431986Y-137575704D01*
X175255808Y-137128590D01*
X175232069Y-137093062D01*
X175002292Y-137050892D01*
X174258184Y-137795000D01*
X174181816Y-137795000D01*
X174167674Y-137780858D01*
X174205858Y-137742674D01*
X174220000Y-137756816D01*
X174964108Y-137012708D01*
X174921938Y-136782931D01*
X174481204Y-136591350D01*
X174000704Y-136583014D01*
X173683961Y-136707822D01*
X173561180Y-136623929D01*
X173320000Y-136575089D01*
X172120000Y-136575089D01*
X171894689Y-136617484D01*
X171687754Y-136750643D01*
X171548929Y-136953820D01*
X171500089Y-137195000D01*
X170201976Y-137195000D01*
X170175808Y-137128590D01*
X170152069Y-137093062D01*
X169922292Y-137050892D01*
X169178184Y-137795000D01*
X169101816Y-137795000D01*
X169087674Y-137780858D01*
X169125858Y-137742674D01*
X169140000Y-137756816D01*
X169884108Y-137012708D01*
X169841938Y-136782931D01*
X169401204Y-136591350D01*
X168920704Y-136583014D01*
X168603961Y-136707822D01*
X168481180Y-136623929D01*
X168240000Y-136575089D01*
X167040000Y-136575089D01*
X166814689Y-136617484D01*
X166607754Y-136750643D01*
X166468929Y-136953820D01*
X166420089Y-137195000D01*
X165280490Y-137195000D01*
X165437746Y-136816286D01*
X165438253Y-136236258D01*
X165216753Y-135700188D01*
X164806969Y-135289688D01*
X164676505Y-135235515D01*
X164709812Y-135221753D01*
X165120312Y-134811969D01*
X165342746Y-134276286D01*
X165343253Y-133696258D01*
X165121753Y-133160188D01*
X164711969Y-132749688D01*
X164176286Y-132527254D01*
X163596258Y-132526747D01*
X163060188Y-132748247D01*
X162649688Y-133158031D01*
X162427254Y-133693714D01*
X162426747Y-134273742D01*
X160842748Y-134273742D01*
X160843253Y-133696258D01*
X160621753Y-133160188D01*
X160211969Y-132749688D01*
X159676286Y-132527254D01*
X159096258Y-132526747D01*
X158560188Y-132748247D01*
X158149688Y-133158031D01*
X157927254Y-133693714D01*
X157926747Y-134273742D01*
X157087748Y-134273742D01*
X157088253Y-133696258D01*
X156866753Y-133160188D01*
X156456969Y-132749688D01*
X155921286Y-132527254D01*
X155341258Y-132526747D01*
X154805188Y-132748247D01*
X154394688Y-133158031D01*
X154172254Y-133693714D01*
X154171747Y-134273742D01*
X153953200Y-134273742D01*
X153953200Y-128447578D01*
X154705606Y-128447578D01*
X154778207Y-128703327D01*
X155309280Y-128936555D01*
X155889179Y-128948797D01*
X156429621Y-128738188D01*
X156481793Y-128703327D01*
X156554394Y-128447578D01*
X155630000Y-127523184D01*
X154705606Y-128447578D01*
X153953200Y-128447578D01*
X153953200Y-127744179D01*
X154166203Y-127744179D01*
X154376812Y-128284621D01*
X154411673Y-128336793D01*
X154667422Y-128409394D01*
X155591816Y-127485000D01*
X155668184Y-127485000D01*
X156592578Y-128409394D01*
X156848327Y-128336793D01*
X157081555Y-127805720D01*
X157082230Y-127773742D01*
X157926747Y-127773742D01*
X158148247Y-128309812D01*
X158558031Y-128720312D01*
X159093714Y-128942746D01*
X159673742Y-128943253D01*
X160209812Y-128721753D01*
X160484466Y-128447578D01*
X162960606Y-128447578D01*
X163033207Y-128703327D01*
X163564280Y-128936555D01*
X164144179Y-128948797D01*
X164684621Y-128738188D01*
X164736793Y-128703327D01*
X164809394Y-128447578D01*
X163885000Y-127523184D01*
X162960606Y-128447578D01*
X160484466Y-128447578D01*
X160620312Y-128311969D01*
X160842746Y-127776286D01*
X160842774Y-127744179D01*
X162421203Y-127744179D01*
X162631812Y-128284621D01*
X162666673Y-128336793D01*
X162922422Y-128409394D01*
X163846816Y-127485000D01*
X163923184Y-127485000D01*
X164847578Y-128409394D01*
X165103327Y-128336793D01*
X165336555Y-127805720D01*
X165348797Y-127225821D01*
X165138188Y-126685379D01*
X165103327Y-126633207D01*
X164847578Y-126560606D01*
X163923184Y-127485000D01*
X163846816Y-127485000D01*
X162922422Y-126560606D01*
X162666673Y-126633207D01*
X162433445Y-127164280D01*
X162421203Y-127744179D01*
X160842774Y-127744179D01*
X160843253Y-127196258D01*
X160621753Y-126660188D01*
X160484228Y-126522422D01*
X162960606Y-126522422D01*
X163885000Y-127446816D01*
X164809394Y-126522422D01*
X164736793Y-126266673D01*
X164205720Y-126033445D01*
X163625821Y-126021203D01*
X163085379Y-126231812D01*
X163033207Y-126266673D01*
X162960606Y-126522422D01*
X160484228Y-126522422D01*
X160211969Y-126249688D01*
X159676286Y-126027254D01*
X159096258Y-126026747D01*
X158560188Y-126248247D01*
X158149688Y-126658031D01*
X157927254Y-127193714D01*
X157926747Y-127773742D01*
X157082230Y-127773742D01*
X157093797Y-127225821D01*
X156883188Y-126685379D01*
X156848327Y-126633207D01*
X156592578Y-126560606D01*
X155668184Y-127485000D01*
X155591816Y-127485000D01*
X154667422Y-126560606D01*
X154411673Y-126633207D01*
X154178445Y-127164280D01*
X154166203Y-127744179D01*
X153953200Y-127744179D01*
X153953200Y-126522422D01*
X154705606Y-126522422D01*
X155630000Y-127446816D01*
X156554394Y-126522422D01*
X156481793Y-126266673D01*
X155950720Y-126033445D01*
X155370821Y-126021203D01*
X154830379Y-126231812D01*
X154778207Y-126266673D01*
X154705606Y-126522422D01*
X153953200Y-126522422D01*
X153953200Y-112636200D01*
X153897404Y-112355693D01*
X153738509Y-112117891D01*
X150568018Y-108947400D01*
X156950482Y-108947400D01*
X160281391Y-112278310D01*
X160414112Y-112366991D01*
X160519193Y-112437204D01*
X160715098Y-112476172D01*
X160901810Y-112755606D01*
X161312470Y-113030000D01*
X160901810Y-113304394D01*
X160596594Y-113761182D01*
X160489416Y-114300000D01*
X160596594Y-114838818D01*
X160901810Y-115295606D01*
X161312470Y-115570000D01*
X160901810Y-115844394D01*
X160596594Y-116301182D01*
X160489416Y-116840000D01*
X160596594Y-117378818D01*
X160901810Y-117835606D01*
X161312470Y-118110000D01*
X160901810Y-118384394D01*
X160596594Y-118841182D01*
X160489416Y-119380000D01*
X160596594Y-119918818D01*
X160901810Y-120375606D01*
X161312470Y-120650000D01*
X160901810Y-120924394D01*
X160596594Y-121381182D01*
X160489416Y-121920000D01*
X160596594Y-122458818D01*
X160901810Y-122915606D01*
X161312470Y-123190000D01*
X160901810Y-123464394D01*
X160596594Y-123921182D01*
X160489416Y-124460000D01*
X160596594Y-124998818D01*
X160901810Y-125455606D01*
X161358598Y-125760822D01*
X161897416Y-125868000D01*
X161952584Y-125868000D01*
X162491402Y-125760822D01*
X162948190Y-125455606D01*
X163253406Y-124998818D01*
X163301154Y-124758772D01*
X165915707Y-127373325D01*
X165676594Y-127731182D01*
X165569416Y-128270000D01*
X165676594Y-128808818D01*
X165981810Y-129265606D01*
X166392470Y-129540000D01*
X165981810Y-129814394D01*
X165676594Y-130271182D01*
X165569416Y-130810000D01*
X165676594Y-131348818D01*
X165981810Y-131805606D01*
X166438598Y-132110822D01*
X166977416Y-132218000D01*
X167032584Y-132218000D01*
X167571402Y-132110822D01*
X168028190Y-131805606D01*
X168333406Y-131348818D01*
X168440584Y-130810000D01*
X168333406Y-130271182D01*
X168028190Y-129814394D01*
X167617530Y-129540000D01*
X168028190Y-129265606D01*
X168333406Y-128808818D01*
X168440584Y-128270000D01*
X168333406Y-127731182D01*
X168028190Y-127274394D01*
X167723271Y-127070654D01*
X167698461Y-126945924D01*
X168028190Y-126725606D01*
X168333406Y-126268818D01*
X168440584Y-125730000D01*
X168333406Y-125191182D01*
X168263363Y-125086355D01*
X168648609Y-124701109D01*
X168807504Y-124463307D01*
X168863300Y-124182800D01*
X168863300Y-117539300D01*
X168807504Y-117258793D01*
X168648609Y-117020991D01*
X168094293Y-116466675D01*
X168333406Y-116108818D01*
X168440584Y-115570000D01*
X168333406Y-115031182D01*
X168028190Y-114574394D01*
X167617530Y-114300000D01*
X168028190Y-114025606D01*
X168333406Y-113568818D01*
X168440584Y-113030000D01*
X168333406Y-112491182D01*
X168028190Y-112034394D01*
X167833783Y-111904495D01*
X168030311Y-111867516D01*
X168237246Y-111734357D01*
X168376071Y-111531180D01*
X168424911Y-111290000D01*
X168424911Y-109690000D01*
X168382516Y-109464689D01*
X168249357Y-109257754D01*
X168046180Y-109118929D01*
X167805000Y-109070089D01*
X166205000Y-109070089D01*
X165979689Y-109112484D01*
X165772754Y-109245643D01*
X165633929Y-109448820D01*
X165585089Y-109690000D01*
X165585089Y-111290000D01*
X165627484Y-111515311D01*
X165760643Y-111722246D01*
X165963820Y-111861071D01*
X166176691Y-111904178D01*
X165981810Y-112034394D01*
X165676594Y-112491182D01*
X165569416Y-113030000D01*
X165676594Y-113568818D01*
X165981810Y-114025606D01*
X166392470Y-114300000D01*
X165981810Y-114574394D01*
X165676594Y-115031182D01*
X165569416Y-115570000D01*
X165676594Y-116108818D01*
X165981810Y-116565606D01*
X166286729Y-116769346D01*
X166312330Y-116898053D01*
X166246435Y-116923809D01*
X165850242Y-117304393D01*
X165629850Y-117807623D01*
X165618814Y-117863113D01*
X165749290Y-118083000D01*
X166978000Y-118083000D01*
X166978000Y-118063000D01*
X167032000Y-118063000D01*
X167032000Y-118083000D01*
X167052000Y-118083000D01*
X167052000Y-118137000D01*
X167032000Y-118137000D01*
X167032000Y-119365743D01*
X167251887Y-119496188D01*
X167397300Y-119439351D01*
X167397300Y-121770089D01*
X166205000Y-121770089D01*
X165979689Y-121812484D01*
X165772754Y-121945643D01*
X165633929Y-122148820D01*
X165585089Y-122390000D01*
X165585089Y-123990000D01*
X165627484Y-124215311D01*
X165760643Y-124422246D01*
X165963820Y-124561071D01*
X166176691Y-124604178D01*
X165981810Y-124734394D01*
X165728747Y-125113129D01*
X163783300Y-123167682D01*
X163783300Y-118356887D01*
X165618814Y-118356887D01*
X165629850Y-118412377D01*
X165850242Y-118915607D01*
X166246435Y-119296191D01*
X166758113Y-119496188D01*
X166978000Y-119365743D01*
X166978000Y-118137000D01*
X165749290Y-118137000D01*
X165618814Y-118356887D01*
X163783300Y-118356887D01*
X163783300Y-108649200D01*
X163727504Y-108368693D01*
X163568609Y-108130891D01*
X163014333Y-107576615D01*
X163253406Y-107218818D01*
X163360584Y-106680000D01*
X163253406Y-106141182D01*
X162948190Y-105684394D01*
X162537530Y-105410000D01*
X162948190Y-105135606D01*
X163253406Y-104678818D01*
X163360584Y-104140000D01*
X163253406Y-103601182D01*
X162948190Y-103144394D01*
X162537530Y-102870000D01*
X162948190Y-102595606D01*
X163201253Y-102216871D01*
X172766700Y-111782319D01*
X172766700Y-128840800D01*
X172822496Y-129121307D01*
X172981391Y-129359109D01*
X173535667Y-129913385D01*
X173296594Y-130271182D01*
X173189416Y-130810000D01*
X173296594Y-131348818D01*
X173601810Y-131805606D01*
X174058598Y-132110822D01*
X174597416Y-132218000D01*
X174652584Y-132218000D01*
X175191402Y-132110822D01*
X175648190Y-131805606D01*
X175953406Y-131348818D01*
X176060584Y-130810000D01*
X175953406Y-130271182D01*
X175648190Y-129814394D01*
X175343271Y-129610654D01*
X175317670Y-129481947D01*
X175383565Y-129456191D01*
X175779758Y-129075607D01*
X176000150Y-128572377D01*
X176011186Y-128516887D01*
X175880710Y-128297000D01*
X174652000Y-128297000D01*
X174652000Y-128317000D01*
X174598000Y-128317000D01*
X174598000Y-128297000D01*
X174578000Y-128297000D01*
X174578000Y-128243000D01*
X174598000Y-128243000D01*
X174598000Y-128223000D01*
X174652000Y-128223000D01*
X174652000Y-128243000D01*
X175880710Y-128243000D01*
X176011186Y-128023113D01*
X176000150Y-127967623D01*
X175779758Y-127464393D01*
X175383565Y-127083809D01*
X175212291Y-127016864D01*
X175648190Y-126725606D01*
X175953406Y-126268818D01*
X176060584Y-125730000D01*
X175953406Y-125191182D01*
X175648190Y-124734394D01*
X175237530Y-124460000D01*
X175648190Y-124185606D01*
X175953406Y-123728818D01*
X176060584Y-123190000D01*
X175953406Y-122651182D01*
X175648190Y-122194394D01*
X175191402Y-121889178D01*
X174652584Y-121782000D01*
X174597416Y-121782000D01*
X174232700Y-121854547D01*
X174232700Y-119445453D01*
X174597416Y-119518000D01*
X174652584Y-119518000D01*
X175191402Y-119410822D01*
X175648190Y-119105606D01*
X175953406Y-118648818D01*
X176060584Y-118110000D01*
X175953406Y-117571182D01*
X175648190Y-117114394D01*
X175237530Y-116840000D01*
X175648190Y-116565606D01*
X175953406Y-116108818D01*
X176060584Y-115570000D01*
X175953406Y-115031182D01*
X175648190Y-114574394D01*
X175237530Y-114300000D01*
X175648190Y-114025606D01*
X175953406Y-113568818D01*
X176060584Y-113030000D01*
X175953406Y-112491182D01*
X175648190Y-112034394D01*
X175237530Y-111760000D01*
X175648190Y-111485606D01*
X175953406Y-111028818D01*
X176060584Y-110490000D01*
X175953406Y-109951182D01*
X175648190Y-109494394D01*
X175191402Y-109189178D01*
X174652584Y-109082000D01*
X174597416Y-109082000D01*
X174058598Y-109189178D01*
X173601810Y-109494394D01*
X173296594Y-109951182D01*
X173248846Y-110191227D01*
X163014293Y-99956675D01*
X163253406Y-99598818D01*
X163360584Y-99060000D01*
X163253406Y-98521182D01*
X162948190Y-98064394D01*
X162537530Y-97790000D01*
X162948190Y-97515606D01*
X163253406Y-97058818D01*
X163360584Y-96520000D01*
X163253406Y-95981182D01*
X162948190Y-95524394D01*
X162491402Y-95219178D01*
X161952584Y-95112000D01*
X161897416Y-95112000D01*
X161358598Y-95219178D01*
X160901810Y-95524394D01*
X160596594Y-95981182D01*
X160489416Y-96520000D01*
X160596594Y-97058818D01*
X160901810Y-97515606D01*
X161312470Y-97790000D01*
X160901810Y-98064394D01*
X160596594Y-98521182D01*
X160489416Y-99060000D01*
X160596594Y-99598818D01*
X160901810Y-100055606D01*
X161206729Y-100259346D01*
X161231539Y-100384076D01*
X160901810Y-100604394D01*
X160596594Y-101061182D01*
X160489416Y-101600000D01*
X160596594Y-102138818D01*
X160901810Y-102595606D01*
X161312470Y-102870000D01*
X160901810Y-103144394D01*
X160596594Y-103601182D01*
X160489416Y-104140000D01*
X160596594Y-104678818D01*
X160901810Y-105135606D01*
X161312470Y-105410000D01*
X160901810Y-105684394D01*
X160596594Y-106141182D01*
X160489416Y-106680000D01*
X160596594Y-107218818D01*
X160901810Y-107675606D01*
X161206729Y-107879346D01*
X161231539Y-108004076D01*
X160901810Y-108224394D01*
X160596594Y-108681182D01*
X160489416Y-109220000D01*
X160596594Y-109758818D01*
X160901810Y-110215606D01*
X161312470Y-110490000D01*
X160901810Y-110764394D01*
X160877338Y-110801019D01*
X157772409Y-107696091D01*
X157534607Y-107537196D01*
X157254100Y-107481400D01*
X150265165Y-107481400D01*
X150228912Y-107445084D01*
X149895305Y-107306558D01*
X149534080Y-107306243D01*
X149200231Y-107444186D01*
X149132459Y-107511841D01*
X148543300Y-106922682D01*
X148543300Y-106109200D01*
X148487504Y-105828693D01*
X148328609Y-105590891D01*
X147774333Y-105036615D01*
X148013406Y-104678818D01*
X148120584Y-104140000D01*
X148013406Y-103601182D01*
X147708190Y-103144394D01*
X147297530Y-102870000D01*
X147708190Y-102595606D01*
X148013406Y-102138818D01*
X148120584Y-101600000D01*
X148013406Y-101061182D01*
X147774293Y-100703325D01*
X148330909Y-100146709D01*
X148489804Y-99908907D01*
X148545600Y-99628400D01*
X148545600Y-92595122D01*
X160947662Y-92595122D01*
X161014178Y-92845677D01*
X161527183Y-93070574D01*
X162087203Y-93082034D01*
X162608979Y-92878312D01*
X162657822Y-92845677D01*
X162724338Y-92595122D01*
X161836000Y-91706784D01*
X160947662Y-92595122D01*
X148545600Y-92595122D01*
X148545600Y-91919803D01*
X160422566Y-91919803D01*
X160626288Y-92441579D01*
X160658923Y-92490422D01*
X160909478Y-92556938D01*
X161797816Y-91668600D01*
X161874184Y-91668600D01*
X162762522Y-92556938D01*
X163013077Y-92490422D01*
X163237974Y-91977417D01*
X163249434Y-91417397D01*
X163045712Y-90895621D01*
X163013077Y-90846778D01*
X162762522Y-90780262D01*
X161874184Y-91668600D01*
X161797816Y-91668600D01*
X160909478Y-90780262D01*
X160658923Y-90846778D01*
X160434026Y-91359783D01*
X160422566Y-91919803D01*
X148545600Y-91919803D01*
X148545600Y-90823700D01*
X148529365Y-90742078D01*
X160947662Y-90742078D01*
X161836000Y-91630416D01*
X162724338Y-90742078D01*
X162657822Y-90491523D01*
X162144817Y-90266626D01*
X161584797Y-90255166D01*
X161063021Y-90458888D01*
X161014178Y-90491523D01*
X160947662Y-90742078D01*
X148529365Y-90742078D01*
X148489804Y-90543193D01*
X148444942Y-90476052D01*
X148330910Y-90305391D01*
X147830519Y-89805000D01*
X166955089Y-89805000D01*
X166955089Y-91805000D01*
X166997484Y-92030311D01*
X167130643Y-92237246D01*
X167333820Y-92376071D01*
X167575000Y-92424911D01*
X168567300Y-92424911D01*
X168567300Y-98855300D01*
X168623096Y-99135807D01*
X168781991Y-99373609D01*
X169588471Y-100180089D01*
X168745000Y-100180089D01*
X168519689Y-100222484D01*
X168312754Y-100355643D01*
X168173929Y-100558820D01*
X168125089Y-100800000D01*
X168125089Y-102400000D01*
X168167484Y-102625311D01*
X168300643Y-102832246D01*
X168503820Y-102971071D01*
X168745000Y-103019911D01*
X170345000Y-103019911D01*
X170570311Y-102977516D01*
X170777246Y-102844357D01*
X170916071Y-102641180D01*
X170946228Y-102492261D01*
X171246391Y-102792948D01*
X171763703Y-103007755D01*
X172323840Y-103008244D01*
X172841526Y-102794340D01*
X173237948Y-102398609D01*
X173452755Y-101881297D01*
X173453244Y-101321160D01*
X173239340Y-100803474D01*
X172843609Y-100407052D01*
X172326297Y-100192245D01*
X171766160Y-100191756D01*
X171700503Y-100218885D01*
X170033300Y-98551682D01*
X170033300Y-93188069D01*
X170333660Y-93312790D01*
X170814232Y-93313209D01*
X171258383Y-93129690D01*
X171514287Y-92874231D01*
X171566566Y-93137053D01*
X171850104Y-93561399D01*
X172274450Y-93844937D01*
X172775000Y-93944503D01*
X173275550Y-93844937D01*
X173699896Y-93561399D01*
X173983434Y-93137053D01*
X174083000Y-92636503D01*
X174083000Y-91973497D01*
X173983434Y-91472947D01*
X173699896Y-91048601D01*
X173275550Y-90765063D01*
X172775000Y-90665497D01*
X172274450Y-90765063D01*
X171850104Y-91048601D01*
X171600138Y-91422702D01*
X171599690Y-91421617D01*
X171260170Y-91081505D01*
X170816340Y-90897210D01*
X170335768Y-90896791D01*
X170033300Y-91021768D01*
X170033300Y-86805000D01*
X169977504Y-86524493D01*
X169818609Y-86286691D01*
X169580807Y-86127796D01*
X169511493Y-86114009D01*
X169483434Y-85972947D01*
X169199896Y-85548601D01*
X168808277Y-85286930D01*
X169180804Y-85048988D01*
X169450726Y-84662531D01*
X169367210Y-84863660D01*
X169366791Y-85344232D01*
X169550310Y-85788383D01*
X169889830Y-86128495D01*
X170333660Y-86312790D01*
X170814232Y-86313209D01*
X171258383Y-86129690D01*
X171598495Y-85790170D01*
X171782790Y-85346340D01*
X171783209Y-84865768D01*
X171599690Y-84421617D01*
X171260170Y-84081505D01*
X170816340Y-83897210D01*
X170335768Y-83896791D01*
X169891617Y-84080310D01*
X169551505Y-84419830D01*
X169483371Y-84583913D01*
X169583000Y-84132000D01*
X169583000Y-83832000D01*
X168302000Y-83832000D01*
X168302000Y-83852000D01*
X168248000Y-83852000D01*
X168248000Y-83832000D01*
X166967000Y-83832000D01*
X166967000Y-84132000D01*
X167076898Y-84630495D01*
X167369196Y-85048988D01*
X167741723Y-85286930D01*
X167350104Y-85548601D01*
X167066566Y-85972947D01*
X166967000Y-86473497D01*
X166967000Y-87136503D01*
X167066566Y-87637053D01*
X167350104Y-88061399D01*
X167774450Y-88344937D01*
X168275000Y-88444503D01*
X168567300Y-88386361D01*
X168567300Y-89185089D01*
X167575000Y-89185089D01*
X167349689Y-89227484D01*
X167142754Y-89360643D01*
X167003929Y-89563820D01*
X166955089Y-89805000D01*
X147830519Y-89805000D01*
X142352959Y-84327440D01*
X145187756Y-84327440D01*
X145401660Y-84845126D01*
X145797391Y-85241548D01*
X146314703Y-85456355D01*
X146874840Y-85456844D01*
X147392526Y-85242940D01*
X147788948Y-84847209D01*
X148003755Y-84329897D01*
X148003757Y-84327440D01*
X160427756Y-84327440D01*
X160641660Y-84845126D01*
X161037391Y-85241548D01*
X161554703Y-85456355D01*
X162114840Y-85456844D01*
X162632526Y-85242940D01*
X163028948Y-84847209D01*
X163243755Y-84329897D01*
X163244244Y-83769760D01*
X163123691Y-83478000D01*
X166967000Y-83478000D01*
X166967000Y-83778000D01*
X168248000Y-83778000D01*
X168248000Y-82349315D01*
X168302000Y-82349315D01*
X168302000Y-83778000D01*
X169583000Y-83778000D01*
X169583000Y-83478000D01*
X169582008Y-83473497D01*
X172467000Y-83473497D01*
X172467000Y-84136503D01*
X172566566Y-84637053D01*
X172850104Y-85061399D01*
X173274450Y-85344937D01*
X173775000Y-85444503D01*
X174275550Y-85344937D01*
X174699896Y-85061399D01*
X174983434Y-84637053D01*
X175083000Y-84136503D01*
X175083000Y-83473497D01*
X174983434Y-82972947D01*
X174699896Y-82548601D01*
X174275550Y-82265063D01*
X173775000Y-82165497D01*
X173274450Y-82265063D01*
X172850104Y-82548601D01*
X172566566Y-82972947D01*
X172467000Y-83473497D01*
X169582008Y-83473497D01*
X169473102Y-82979505D01*
X169180804Y-82561012D01*
X168750605Y-82286233D01*
X168506240Y-82217603D01*
X168302000Y-82349315D01*
X168248000Y-82349315D01*
X168043760Y-82217603D01*
X167799395Y-82286233D01*
X167369196Y-82561012D01*
X167076898Y-82979505D01*
X166967000Y-83478000D01*
X163123691Y-83478000D01*
X163030340Y-83252074D01*
X162634609Y-82855652D01*
X162117297Y-82640845D01*
X161557160Y-82640356D01*
X161039474Y-82854260D01*
X160643052Y-83249991D01*
X160428245Y-83767303D01*
X160427756Y-84327440D01*
X148003757Y-84327440D01*
X148004244Y-83769760D01*
X147790340Y-83252074D01*
X147394609Y-82855652D01*
X146877297Y-82640845D01*
X146317160Y-82640356D01*
X145799474Y-82854260D01*
X145403052Y-83249991D01*
X145188245Y-83767303D01*
X145187756Y-84327440D01*
X142352959Y-84327440D01*
X140410409Y-82384891D01*
X140196271Y-82241808D01*
X140383755Y-81790297D01*
X140384244Y-81230160D01*
X140170340Y-80712474D01*
X139774609Y-80316052D01*
X139257297Y-80101245D01*
X138697160Y-80100756D01*
X138179474Y-80314660D01*
X137783052Y-80710391D01*
X137568245Y-81227703D01*
X137567756Y-81787840D01*
X137725744Y-82170200D01*
X125144000Y-82170200D01*
X125144000Y-81688000D01*
X124992000Y-81536000D01*
X123763000Y-81536000D01*
X123763000Y-81556000D01*
X123709000Y-81556000D01*
X123709000Y-81536000D01*
X122480000Y-81536000D01*
X122328000Y-81688000D01*
X122328000Y-82429939D01*
X122420563Y-82653405D01*
X122459720Y-82692562D01*
X121608291Y-83543991D01*
X121449396Y-83781793D01*
X121393600Y-84062300D01*
X121393600Y-133239600D01*
X121449396Y-133520107D01*
X121608291Y-133757909D01*
X122354604Y-134504222D01*
X122328245Y-134567703D01*
X122327756Y-135127840D01*
X122541660Y-135645526D01*
X122937391Y-136041948D01*
X123122769Y-136118924D01*
X122939474Y-136194660D01*
X122543052Y-136590391D01*
X122328245Y-137107703D01*
X122327756Y-137667840D01*
X122354885Y-137733497D01*
X122068291Y-138020091D01*
X121909396Y-138257893D01*
X121853600Y-138538400D01*
X121853600Y-140413800D01*
X121909396Y-140694307D01*
X122068291Y-140932109D01*
X123328182Y-142192000D01*
X121987267Y-142192000D01*
X121700485Y-142134955D01*
X121514390Y-142010611D01*
X121390045Y-141824515D01*
X121333000Y-141537732D01*
X121333000Y-80588061D01*
X122328000Y-80588061D01*
X122328000Y-81330000D01*
X122480000Y-81482000D01*
X123709000Y-81482000D01*
X123709000Y-80253000D01*
X123763000Y-80253000D01*
X123763000Y-81482000D01*
X124992000Y-81482000D01*
X125144000Y-81330000D01*
X125144000Y-80588061D01*
X125051437Y-80364595D01*
X124880404Y-80193562D01*
X124656938Y-80101000D01*
X123915000Y-80101000D01*
X123763000Y-80253000D01*
X123709000Y-80253000D01*
X123557000Y-80101000D01*
X122815062Y-80101000D01*
X122591596Y-80193562D01*
X122420563Y-80364595D01*
X122328000Y-80588061D01*
X121333000Y-80588061D01*
X121333000Y-79442268D01*
X121390045Y-79155485D01*
X121514390Y-78969389D01*
X121700485Y-78845045D01*
X121987267Y-78788000D01*
X175827732Y-78788000D01*
X176114515Y-78845045D01*
X176114515Y-78845045D01*
G37*
X176114515Y-78845045D02*
X176300611Y-78969390D01*
X176424955Y-79155485D01*
X176482000Y-79442267D01*
X176482000Y-141537733D01*
X176424955Y-141824515D01*
X176300611Y-142010610D01*
X176114515Y-142134955D01*
X175827732Y-142192000D01*
X164846364Y-142192000D01*
X164904394Y-141987578D01*
X163980000Y-141063184D01*
X163055606Y-141987578D01*
X163113636Y-142192000D01*
X158374687Y-142192000D01*
X158715312Y-141851969D01*
X158937746Y-141316286D01*
X158937774Y-141284179D01*
X162516203Y-141284179D01*
X162726812Y-141824621D01*
X162761673Y-141876793D01*
X163017422Y-141949394D01*
X163941816Y-141025000D01*
X164018184Y-141025000D01*
X164942578Y-141949394D01*
X165198327Y-141876793D01*
X165431555Y-141345720D01*
X165443797Y-140765821D01*
X165233188Y-140225379D01*
X165198327Y-140173207D01*
X164942578Y-140100606D01*
X164018184Y-141025000D01*
X163941816Y-141025000D01*
X163017422Y-140100606D01*
X162761673Y-140173207D01*
X162528445Y-140704280D01*
X162516203Y-141284179D01*
X158937774Y-141284179D01*
X158938253Y-140736258D01*
X158716753Y-140200188D01*
X158579228Y-140062422D01*
X163055606Y-140062422D01*
X163980000Y-140986816D01*
X164904394Y-140062422D01*
X164831793Y-139806673D01*
X164300720Y-139573445D01*
X163720821Y-139561203D01*
X163180379Y-139771812D01*
X163128207Y-139806673D01*
X163055606Y-140062422D01*
X158579228Y-140062422D01*
X158306969Y-139789688D01*
X157771286Y-139567254D01*
X157191258Y-139566747D01*
X156655188Y-139788247D01*
X156244688Y-140198031D01*
X156022254Y-140733714D01*
X156021747Y-141313742D01*
X156243247Y-141849812D01*
X156584838Y-142192000D01*
X150241364Y-142192000D01*
X150299394Y-141987578D01*
X149375000Y-141063184D01*
X148450606Y-141987578D01*
X148508636Y-142192000D01*
X147124718Y-142192000D01*
X147945228Y-141371490D01*
X148121812Y-141824621D01*
X148156673Y-141876793D01*
X148412422Y-141949394D01*
X149336816Y-141025000D01*
X149413184Y-141025000D01*
X150337578Y-141949394D01*
X150593327Y-141876793D01*
X150826555Y-141345720D01*
X150838797Y-140765821D01*
X150628188Y-140225379D01*
X150593327Y-140173207D01*
X150337578Y-140100606D01*
X149413184Y-141025000D01*
X149336816Y-141025000D01*
X149322674Y-141010858D01*
X149360858Y-140972674D01*
X149375000Y-140986816D01*
X150299394Y-140062422D01*
X150226793Y-139806673D01*
X149728762Y-139587956D01*
X152502976Y-136813742D01*
X156021747Y-136813742D01*
X156243247Y-137349812D01*
X156653031Y-137760312D01*
X157188714Y-137982746D01*
X157768742Y-137983253D01*
X158304812Y-137761753D01*
X158715312Y-137351969D01*
X158937746Y-136816286D01*
X158938253Y-136236258D01*
X158716753Y-135700188D01*
X158306969Y-135289688D01*
X157771286Y-135067254D01*
X157191258Y-135066747D01*
X156655188Y-135288247D01*
X156244688Y-135698031D01*
X156022254Y-136233714D01*
X156021747Y-136813742D01*
X152502976Y-136813742D01*
X153738509Y-135578209D01*
X153897404Y-135340407D01*
X153953200Y-135059900D01*
X153953200Y-134273742D01*
X154171747Y-134273742D01*
X154393247Y-134809812D01*
X154803031Y-135220312D01*
X155338714Y-135442746D01*
X155918742Y-135443253D01*
X156454812Y-135221753D01*
X156865312Y-134811969D01*
X157087746Y-134276286D01*
X157087748Y-134273742D01*
X157926747Y-134273742D01*
X158148247Y-134809812D01*
X158558031Y-135220312D01*
X159093714Y-135442746D01*
X159673742Y-135443253D01*
X160209812Y-135221753D01*
X160620312Y-134811969D01*
X160842746Y-134276286D01*
X160842748Y-134273742D01*
X162426747Y-134273742D01*
X162648247Y-134809812D01*
X163058031Y-135220312D01*
X163188495Y-135274485D01*
X163155188Y-135288247D01*
X162744688Y-135698031D01*
X162522254Y-136233714D01*
X162521747Y-136813742D01*
X162743247Y-137349812D01*
X163153031Y-137760312D01*
X163688714Y-137982746D01*
X164268742Y-137983253D01*
X164804812Y-137761753D01*
X165215312Y-137351969D01*
X165280490Y-137195000D01*
X166420089Y-137195000D01*
X166420089Y-138395000D01*
X166462484Y-138620311D01*
X166595643Y-138827246D01*
X166798820Y-138966071D01*
X167040000Y-139014911D01*
X168240000Y-139014911D01*
X168465311Y-138972516D01*
X168607777Y-138880842D01*
X168878796Y-138998650D01*
X169359296Y-139006986D01*
X169806410Y-138830808D01*
X169841938Y-138807069D01*
X169884108Y-138577292D01*
X169140000Y-137833184D01*
X169125858Y-137847326D01*
X169087674Y-137809142D01*
X169101816Y-137795000D01*
X169178184Y-137795000D01*
X169922292Y-138539108D01*
X170152069Y-138496938D01*
X170343650Y-138056204D01*
X170351986Y-137575704D01*
X170201976Y-137195000D01*
X171500089Y-137195000D01*
X171500089Y-138395000D01*
X171542484Y-138620311D01*
X171675643Y-138827246D01*
X171878820Y-138966071D01*
X172120000Y-139014911D01*
X173320000Y-139014911D01*
X173545311Y-138972516D01*
X173687777Y-138880842D01*
X173958796Y-138998650D01*
X174439296Y-139006986D01*
X174886410Y-138830808D01*
X174921938Y-138807069D01*
X174964108Y-138577292D01*
X174220000Y-137833184D01*
X174205858Y-137847326D01*
X174167674Y-137809142D01*
X174181816Y-137795000D01*
X174258184Y-137795000D01*
X175002292Y-138539108D01*
X175232069Y-138496938D01*
X175423650Y-138056204D01*
X175431986Y-137575704D01*
X175255808Y-137128590D01*
X175232069Y-137093062D01*
X175002292Y-137050892D01*
X174258184Y-137795000D01*
X174181816Y-137795000D01*
X174167674Y-137780858D01*
X174205858Y-137742674D01*
X174220000Y-137756816D01*
X174964108Y-137012708D01*
X174921938Y-136782931D01*
X174481204Y-136591350D01*
X174000704Y-136583014D01*
X173683961Y-136707822D01*
X173561180Y-136623929D01*
X173320000Y-136575089D01*
X172120000Y-136575089D01*
X171894689Y-136617484D01*
X171687754Y-136750643D01*
X171548929Y-136953820D01*
X171500089Y-137195000D01*
X170201976Y-137195000D01*
X170175808Y-137128590D01*
X170152069Y-137093062D01*
X169922292Y-137050892D01*
X169178184Y-137795000D01*
X169101816Y-137795000D01*
X169087674Y-137780858D01*
X169125858Y-137742674D01*
X169140000Y-137756816D01*
X169884108Y-137012708D01*
X169841938Y-136782931D01*
X169401204Y-136591350D01*
X168920704Y-136583014D01*
X168603961Y-136707822D01*
X168481180Y-136623929D01*
X168240000Y-136575089D01*
X167040000Y-136575089D01*
X166814689Y-136617484D01*
X166607754Y-136750643D01*
X166468929Y-136953820D01*
X166420089Y-137195000D01*
X165280490Y-137195000D01*
X165437746Y-136816286D01*
X165438253Y-136236258D01*
X165216753Y-135700188D01*
X164806969Y-135289688D01*
X164676505Y-135235515D01*
X164709812Y-135221753D01*
X165120312Y-134811969D01*
X165342746Y-134276286D01*
X165343253Y-133696258D01*
X165121753Y-133160188D01*
X164711969Y-132749688D01*
X164176286Y-132527254D01*
X163596258Y-132526747D01*
X163060188Y-132748247D01*
X162649688Y-133158031D01*
X162427254Y-133693714D01*
X162426747Y-134273742D01*
X160842748Y-134273742D01*
X160843253Y-133696258D01*
X160621753Y-133160188D01*
X160211969Y-132749688D01*
X159676286Y-132527254D01*
X159096258Y-132526747D01*
X158560188Y-132748247D01*
X158149688Y-133158031D01*
X157927254Y-133693714D01*
X157926747Y-134273742D01*
X157087748Y-134273742D01*
X157088253Y-133696258D01*
X156866753Y-133160188D01*
X156456969Y-132749688D01*
X155921286Y-132527254D01*
X155341258Y-132526747D01*
X154805188Y-132748247D01*
X154394688Y-133158031D01*
X154172254Y-133693714D01*
X154171747Y-134273742D01*
X153953200Y-134273742D01*
X153953200Y-128447578D01*
X154705606Y-128447578D01*
X154778207Y-128703327D01*
X155309280Y-128936555D01*
X155889179Y-128948797D01*
X156429621Y-128738188D01*
X156481793Y-128703327D01*
X156554394Y-128447578D01*
X155630000Y-127523184D01*
X154705606Y-128447578D01*
X153953200Y-128447578D01*
X153953200Y-127744179D01*
X154166203Y-127744179D01*
X154376812Y-128284621D01*
X154411673Y-128336793D01*
X154667422Y-128409394D01*
X155591816Y-127485000D01*
X155668184Y-127485000D01*
X156592578Y-128409394D01*
X156848327Y-128336793D01*
X157081555Y-127805720D01*
X157082230Y-127773742D01*
X157926747Y-127773742D01*
X158148247Y-128309812D01*
X158558031Y-128720312D01*
X159093714Y-128942746D01*
X159673742Y-128943253D01*
X160209812Y-128721753D01*
X160484466Y-128447578D01*
X162960606Y-128447578D01*
X163033207Y-128703327D01*
X163564280Y-128936555D01*
X164144179Y-128948797D01*
X164684621Y-128738188D01*
X164736793Y-128703327D01*
X164809394Y-128447578D01*
X163885000Y-127523184D01*
X162960606Y-128447578D01*
X160484466Y-128447578D01*
X160620312Y-128311969D01*
X160842746Y-127776286D01*
X160842774Y-127744179D01*
X162421203Y-127744179D01*
X162631812Y-128284621D01*
X162666673Y-128336793D01*
X162922422Y-128409394D01*
X163846816Y-127485000D01*
X163923184Y-127485000D01*
X164847578Y-128409394D01*
X165103327Y-128336793D01*
X165336555Y-127805720D01*
X165348797Y-127225821D01*
X165138188Y-126685379D01*
X165103327Y-126633207D01*
X164847578Y-126560606D01*
X163923184Y-127485000D01*
X163846816Y-127485000D01*
X162922422Y-126560606D01*
X162666673Y-126633207D01*
X162433445Y-127164280D01*
X162421203Y-127744179D01*
X160842774Y-127744179D01*
X160843253Y-127196258D01*
X160621753Y-126660188D01*
X160484228Y-126522422D01*
X162960606Y-126522422D01*
X163885000Y-127446816D01*
X164809394Y-126522422D01*
X164736793Y-126266673D01*
X164205720Y-126033445D01*
X163625821Y-126021203D01*
X163085379Y-126231812D01*
X163033207Y-126266673D01*
X162960606Y-126522422D01*
X160484228Y-126522422D01*
X160211969Y-126249688D01*
X159676286Y-126027254D01*
X159096258Y-126026747D01*
X158560188Y-126248247D01*
X158149688Y-126658031D01*
X157927254Y-127193714D01*
X157926747Y-127773742D01*
X157082230Y-127773742D01*
X157093797Y-127225821D01*
X156883188Y-126685379D01*
X156848327Y-126633207D01*
X156592578Y-126560606D01*
X155668184Y-127485000D01*
X155591816Y-127485000D01*
X154667422Y-126560606D01*
X154411673Y-126633207D01*
X154178445Y-127164280D01*
X154166203Y-127744179D01*
X153953200Y-127744179D01*
X153953200Y-126522422D01*
X154705606Y-126522422D01*
X155630000Y-127446816D01*
X156554394Y-126522422D01*
X156481793Y-126266673D01*
X155950720Y-126033445D01*
X155370821Y-126021203D01*
X154830379Y-126231812D01*
X154778207Y-126266673D01*
X154705606Y-126522422D01*
X153953200Y-126522422D01*
X153953200Y-112636200D01*
X153897404Y-112355693D01*
X153738509Y-112117891D01*
X150568018Y-108947400D01*
X156950482Y-108947400D01*
X160281391Y-112278310D01*
X160414112Y-112366991D01*
X160519193Y-112437204D01*
X160715098Y-112476172D01*
X160901810Y-112755606D01*
X161312470Y-113030000D01*
X160901810Y-113304394D01*
X160596594Y-113761182D01*
X160489416Y-114300000D01*
X160596594Y-114838818D01*
X160901810Y-115295606D01*
X161312470Y-115570000D01*
X160901810Y-115844394D01*
X160596594Y-116301182D01*
X160489416Y-116840000D01*
X160596594Y-117378818D01*
X160901810Y-117835606D01*
X161312470Y-118110000D01*
X160901810Y-118384394D01*
X160596594Y-118841182D01*
X160489416Y-119380000D01*
X160596594Y-119918818D01*
X160901810Y-120375606D01*
X161312470Y-120650000D01*
X160901810Y-120924394D01*
X160596594Y-121381182D01*
X160489416Y-121920000D01*
X160596594Y-122458818D01*
X160901810Y-122915606D01*
X161312470Y-123190000D01*
X160901810Y-123464394D01*
X160596594Y-123921182D01*
X160489416Y-124460000D01*
X160596594Y-124998818D01*
X160901810Y-125455606D01*
X161358598Y-125760822D01*
X161897416Y-125868000D01*
X161952584Y-125868000D01*
X162491402Y-125760822D01*
X162948190Y-125455606D01*
X163253406Y-124998818D01*
X163301154Y-124758772D01*
X165915707Y-127373325D01*
X165676594Y-127731182D01*
X165569416Y-128270000D01*
X165676594Y-128808818D01*
X165981810Y-129265606D01*
X166392470Y-129540000D01*
X165981810Y-129814394D01*
X165676594Y-130271182D01*
X165569416Y-130810000D01*
X165676594Y-131348818D01*
X165981810Y-131805606D01*
X166438598Y-132110822D01*
X166977416Y-132218000D01*
X167032584Y-132218000D01*
X167571402Y-132110822D01*
X168028190Y-131805606D01*
X168333406Y-131348818D01*
X168440584Y-130810000D01*
X168333406Y-130271182D01*
X168028190Y-129814394D01*
X167617530Y-129540000D01*
X168028190Y-129265606D01*
X168333406Y-128808818D01*
X168440584Y-128270000D01*
X168333406Y-127731182D01*
X168028190Y-127274394D01*
X167723271Y-127070654D01*
X167698461Y-126945924D01*
X168028190Y-126725606D01*
X168333406Y-126268818D01*
X168440584Y-125730000D01*
X168333406Y-125191182D01*
X168263363Y-125086355D01*
X168648609Y-124701109D01*
X168807504Y-124463307D01*
X168863300Y-124182800D01*
X168863300Y-117539300D01*
X168807504Y-117258793D01*
X168648609Y-117020991D01*
X168094293Y-116466675D01*
X168333406Y-116108818D01*
X168440584Y-115570000D01*
X168333406Y-115031182D01*
X168028190Y-114574394D01*
X167617530Y-114300000D01*
X168028190Y-114025606D01*
X168333406Y-113568818D01*
X168440584Y-113030000D01*
X168333406Y-112491182D01*
X168028190Y-112034394D01*
X167833783Y-111904495D01*
X168030311Y-111867516D01*
X168237246Y-111734357D01*
X168376071Y-111531180D01*
X168424911Y-111290000D01*
X168424911Y-109690000D01*
X168382516Y-109464689D01*
X168249357Y-109257754D01*
X168046180Y-109118929D01*
X167805000Y-109070089D01*
X166205000Y-109070089D01*
X165979689Y-109112484D01*
X165772754Y-109245643D01*
X165633929Y-109448820D01*
X165585089Y-109690000D01*
X165585089Y-111290000D01*
X165627484Y-111515311D01*
X165760643Y-111722246D01*
X165963820Y-111861071D01*
X166176691Y-111904178D01*
X165981810Y-112034394D01*
X165676594Y-112491182D01*
X165569416Y-113030000D01*
X165676594Y-113568818D01*
X165981810Y-114025606D01*
X166392470Y-114300000D01*
X165981810Y-114574394D01*
X165676594Y-115031182D01*
X165569416Y-115570000D01*
X165676594Y-116108818D01*
X165981810Y-116565606D01*
X166286729Y-116769346D01*
X166312330Y-116898053D01*
X166246435Y-116923809D01*
X165850242Y-117304393D01*
X165629850Y-117807623D01*
X165618814Y-117863113D01*
X165749290Y-118083000D01*
X166978000Y-118083000D01*
X166978000Y-118063000D01*
X167032000Y-118063000D01*
X167032000Y-118083000D01*
X167052000Y-118083000D01*
X167052000Y-118137000D01*
X167032000Y-118137000D01*
X167032000Y-119365743D01*
X167251887Y-119496188D01*
X167397300Y-119439351D01*
X167397300Y-121770089D01*
X166205000Y-121770089D01*
X165979689Y-121812484D01*
X165772754Y-121945643D01*
X165633929Y-122148820D01*
X165585089Y-122390000D01*
X165585089Y-123990000D01*
X165627484Y-124215311D01*
X165760643Y-124422246D01*
X165963820Y-124561071D01*
X166176691Y-124604178D01*
X165981810Y-124734394D01*
X165728747Y-125113129D01*
X163783300Y-123167682D01*
X163783300Y-118356887D01*
X165618814Y-118356887D01*
X165629850Y-118412377D01*
X165850242Y-118915607D01*
X166246435Y-119296191D01*
X166758113Y-119496188D01*
X166978000Y-119365743D01*
X166978000Y-118137000D01*
X165749290Y-118137000D01*
X165618814Y-118356887D01*
X163783300Y-118356887D01*
X163783300Y-108649200D01*
X163727504Y-108368693D01*
X163568609Y-108130891D01*
X163014333Y-107576615D01*
X163253406Y-107218818D01*
X163360584Y-106680000D01*
X163253406Y-106141182D01*
X162948190Y-105684394D01*
X162537530Y-105410000D01*
X162948190Y-105135606D01*
X163253406Y-104678818D01*
X163360584Y-104140000D01*
X163253406Y-103601182D01*
X162948190Y-103144394D01*
X162537530Y-102870000D01*
X162948190Y-102595606D01*
X163201253Y-102216871D01*
X172766700Y-111782319D01*
X172766700Y-128840800D01*
X172822496Y-129121307D01*
X172981391Y-129359109D01*
X173535667Y-129913385D01*
X173296594Y-130271182D01*
X173189416Y-130810000D01*
X173296594Y-131348818D01*
X173601810Y-131805606D01*
X174058598Y-132110822D01*
X174597416Y-132218000D01*
X174652584Y-132218000D01*
X175191402Y-132110822D01*
X175648190Y-131805606D01*
X175953406Y-131348818D01*
X176060584Y-130810000D01*
X175953406Y-130271182D01*
X175648190Y-129814394D01*
X175343271Y-129610654D01*
X175317670Y-129481947D01*
X175383565Y-129456191D01*
X175779758Y-129075607D01*
X176000150Y-128572377D01*
X176011186Y-128516887D01*
X175880710Y-128297000D01*
X174652000Y-128297000D01*
X174652000Y-128317000D01*
X174598000Y-128317000D01*
X174598000Y-128297000D01*
X174578000Y-128297000D01*
X174578000Y-128243000D01*
X174598000Y-128243000D01*
X174598000Y-128223000D01*
X174652000Y-128223000D01*
X174652000Y-128243000D01*
X175880710Y-128243000D01*
X176011186Y-128023113D01*
X176000150Y-127967623D01*
X175779758Y-127464393D01*
X175383565Y-127083809D01*
X175212291Y-127016864D01*
X175648190Y-126725606D01*
X175953406Y-126268818D01*
X176060584Y-125730000D01*
X175953406Y-125191182D01*
X175648190Y-124734394D01*
X175237530Y-124460000D01*
X175648190Y-124185606D01*
X175953406Y-123728818D01*
X176060584Y-123190000D01*
X175953406Y-122651182D01*
X175648190Y-122194394D01*
X175191402Y-121889178D01*
X174652584Y-121782000D01*
X174597416Y-121782000D01*
X174232700Y-121854547D01*
X174232700Y-119445453D01*
X174597416Y-119518000D01*
X174652584Y-119518000D01*
X175191402Y-119410822D01*
X175648190Y-119105606D01*
X175953406Y-118648818D01*
X176060584Y-118110000D01*
X175953406Y-117571182D01*
X175648190Y-117114394D01*
X175237530Y-116840000D01*
X175648190Y-116565606D01*
X175953406Y-116108818D01*
X176060584Y-115570000D01*
X175953406Y-115031182D01*
X175648190Y-114574394D01*
X175237530Y-114300000D01*
X175648190Y-114025606D01*
X175953406Y-113568818D01*
X176060584Y-113030000D01*
X175953406Y-112491182D01*
X175648190Y-112034394D01*
X175237530Y-111760000D01*
X175648190Y-111485606D01*
X175953406Y-111028818D01*
X176060584Y-110490000D01*
X175953406Y-109951182D01*
X175648190Y-109494394D01*
X175191402Y-109189178D01*
X174652584Y-109082000D01*
X174597416Y-109082000D01*
X174058598Y-109189178D01*
X173601810Y-109494394D01*
X173296594Y-109951182D01*
X173248846Y-110191227D01*
X163014293Y-99956675D01*
X163253406Y-99598818D01*
X163360584Y-99060000D01*
X163253406Y-98521182D01*
X162948190Y-98064394D01*
X162537530Y-97790000D01*
X162948190Y-97515606D01*
X163253406Y-97058818D01*
X163360584Y-96520000D01*
X163253406Y-95981182D01*
X162948190Y-95524394D01*
X162491402Y-95219178D01*
X161952584Y-95112000D01*
X161897416Y-95112000D01*
X161358598Y-95219178D01*
X160901810Y-95524394D01*
X160596594Y-95981182D01*
X160489416Y-96520000D01*
X160596594Y-97058818D01*
X160901810Y-97515606D01*
X161312470Y-97790000D01*
X160901810Y-98064394D01*
X160596594Y-98521182D01*
X160489416Y-99060000D01*
X160596594Y-99598818D01*
X160901810Y-100055606D01*
X161206729Y-100259346D01*
X161231539Y-100384076D01*
X160901810Y-100604394D01*
X160596594Y-101061182D01*
X160489416Y-101600000D01*
X160596594Y-102138818D01*
X160901810Y-102595606D01*
X161312470Y-102870000D01*
X160901810Y-103144394D01*
X160596594Y-103601182D01*
X160489416Y-104140000D01*
X160596594Y-104678818D01*
X160901810Y-105135606D01*
X161312470Y-105410000D01*
X160901810Y-105684394D01*
X160596594Y-106141182D01*
X160489416Y-106680000D01*
X160596594Y-107218818D01*
X160901810Y-107675606D01*
X161206729Y-107879346D01*
X161231539Y-108004076D01*
X160901810Y-108224394D01*
X160596594Y-108681182D01*
X160489416Y-109220000D01*
X160596594Y-109758818D01*
X160901810Y-110215606D01*
X161312470Y-110490000D01*
X160901810Y-110764394D01*
X160877338Y-110801019D01*
X157772409Y-107696091D01*
X157534607Y-107537196D01*
X157254100Y-107481400D01*
X150265165Y-107481400D01*
X150228912Y-107445084D01*
X149895305Y-107306558D01*
X149534080Y-107306243D01*
X149200231Y-107444186D01*
X149132459Y-107511841D01*
X148543300Y-106922682D01*
X148543300Y-106109200D01*
X148487504Y-105828693D01*
X148328609Y-105590891D01*
X147774333Y-105036615D01*
X148013406Y-104678818D01*
X148120584Y-104140000D01*
X148013406Y-103601182D01*
X147708190Y-103144394D01*
X147297530Y-102870000D01*
X147708190Y-102595606D01*
X148013406Y-102138818D01*
X148120584Y-101600000D01*
X148013406Y-101061182D01*
X147774293Y-100703325D01*
X148330909Y-100146709D01*
X148489804Y-99908907D01*
X148545600Y-99628400D01*
X148545600Y-92595122D01*
X160947662Y-92595122D01*
X161014178Y-92845677D01*
X161527183Y-93070574D01*
X162087203Y-93082034D01*
X162608979Y-92878312D01*
X162657822Y-92845677D01*
X162724338Y-92595122D01*
X161836000Y-91706784D01*
X160947662Y-92595122D01*
X148545600Y-92595122D01*
X148545600Y-91919803D01*
X160422566Y-91919803D01*
X160626288Y-92441579D01*
X160658923Y-92490422D01*
X160909478Y-92556938D01*
X161797816Y-91668600D01*
X161874184Y-91668600D01*
X162762522Y-92556938D01*
X163013077Y-92490422D01*
X163237974Y-91977417D01*
X163249434Y-91417397D01*
X163045712Y-90895621D01*
X163013077Y-90846778D01*
X162762522Y-90780262D01*
X161874184Y-91668600D01*
X161797816Y-91668600D01*
X160909478Y-90780262D01*
X160658923Y-90846778D01*
X160434026Y-91359783D01*
X160422566Y-91919803D01*
X148545600Y-91919803D01*
X148545600Y-90823700D01*
X148529365Y-90742078D01*
X160947662Y-90742078D01*
X161836000Y-91630416D01*
X162724338Y-90742078D01*
X162657822Y-90491523D01*
X162144817Y-90266626D01*
X161584797Y-90255166D01*
X161063021Y-90458888D01*
X161014178Y-90491523D01*
X160947662Y-90742078D01*
X148529365Y-90742078D01*
X148489804Y-90543193D01*
X148444942Y-90476052D01*
X148330910Y-90305391D01*
X147830519Y-89805000D01*
X166955089Y-89805000D01*
X166955089Y-91805000D01*
X166997484Y-92030311D01*
X167130643Y-92237246D01*
X167333820Y-92376071D01*
X167575000Y-92424911D01*
X168567300Y-92424911D01*
X168567300Y-98855300D01*
X168623096Y-99135807D01*
X168781991Y-99373609D01*
X169588471Y-100180089D01*
X168745000Y-100180089D01*
X168519689Y-100222484D01*
X168312754Y-100355643D01*
X168173929Y-100558820D01*
X168125089Y-100800000D01*
X168125089Y-102400000D01*
X168167484Y-102625311D01*
X168300643Y-102832246D01*
X168503820Y-102971071D01*
X168745000Y-103019911D01*
X170345000Y-103019911D01*
X170570311Y-102977516D01*
X170777246Y-102844357D01*
X170916071Y-102641180D01*
X170946228Y-102492261D01*
X171246391Y-102792948D01*
X171763703Y-103007755D01*
X172323840Y-103008244D01*
X172841526Y-102794340D01*
X173237948Y-102398609D01*
X173452755Y-101881297D01*
X173453244Y-101321160D01*
X173239340Y-100803474D01*
X172843609Y-100407052D01*
X172326297Y-100192245D01*
X171766160Y-100191756D01*
X171700503Y-100218885D01*
X170033300Y-98551682D01*
X170033300Y-93188069D01*
X170333660Y-93312790D01*
X170814232Y-93313209D01*
X171258383Y-93129690D01*
X171514287Y-92874231D01*
X171566566Y-93137053D01*
X171850104Y-93561399D01*
X172274450Y-93844937D01*
X172775000Y-93944503D01*
X173275550Y-93844937D01*
X173699896Y-93561399D01*
X173983434Y-93137053D01*
X174083000Y-92636503D01*
X174083000Y-91973497D01*
X173983434Y-91472947D01*
X173699896Y-91048601D01*
X173275550Y-90765063D01*
X172775000Y-90665497D01*
X172274450Y-90765063D01*
X171850104Y-91048601D01*
X171600138Y-91422702D01*
X171599690Y-91421617D01*
X171260170Y-91081505D01*
X170816340Y-90897210D01*
X170335768Y-90896791D01*
X170033300Y-91021768D01*
X170033300Y-86805000D01*
X169977504Y-86524493D01*
X169818609Y-86286691D01*
X169580807Y-86127796D01*
X169511493Y-86114009D01*
X169483434Y-85972947D01*
X169199896Y-85548601D01*
X168808277Y-85286930D01*
X169180804Y-85048988D01*
X169450726Y-84662531D01*
X169367210Y-84863660D01*
X169366791Y-85344232D01*
X169550310Y-85788383D01*
X169889830Y-86128495D01*
X170333660Y-86312790D01*
X170814232Y-86313209D01*
X171258383Y-86129690D01*
X171598495Y-85790170D01*
X171782790Y-85346340D01*
X171783209Y-84865768D01*
X171599690Y-84421617D01*
X171260170Y-84081505D01*
X170816340Y-83897210D01*
X170335768Y-83896791D01*
X169891617Y-84080310D01*
X169551505Y-84419830D01*
X169483371Y-84583913D01*
X169583000Y-84132000D01*
X169583000Y-83832000D01*
X168302000Y-83832000D01*
X168302000Y-83852000D01*
X168248000Y-83852000D01*
X168248000Y-83832000D01*
X166967000Y-83832000D01*
X166967000Y-84132000D01*
X167076898Y-84630495D01*
X167369196Y-85048988D01*
X167741723Y-85286930D01*
X167350104Y-85548601D01*
X167066566Y-85972947D01*
X166967000Y-86473497D01*
X166967000Y-87136503D01*
X167066566Y-87637053D01*
X167350104Y-88061399D01*
X167774450Y-88344937D01*
X168275000Y-88444503D01*
X168567300Y-88386361D01*
X168567300Y-89185089D01*
X167575000Y-89185089D01*
X167349689Y-89227484D01*
X167142754Y-89360643D01*
X167003929Y-89563820D01*
X166955089Y-89805000D01*
X147830519Y-89805000D01*
X142352959Y-84327440D01*
X145187756Y-84327440D01*
X145401660Y-84845126D01*
X145797391Y-85241548D01*
X146314703Y-85456355D01*
X146874840Y-85456844D01*
X147392526Y-85242940D01*
X147788948Y-84847209D01*
X148003755Y-84329897D01*
X148003757Y-84327440D01*
X160427756Y-84327440D01*
X160641660Y-84845126D01*
X161037391Y-85241548D01*
X161554703Y-85456355D01*
X162114840Y-85456844D01*
X162632526Y-85242940D01*
X163028948Y-84847209D01*
X163243755Y-84329897D01*
X163244244Y-83769760D01*
X163123691Y-83478000D01*
X166967000Y-83478000D01*
X166967000Y-83778000D01*
X168248000Y-83778000D01*
X168248000Y-82349315D01*
X168302000Y-82349315D01*
X168302000Y-83778000D01*
X169583000Y-83778000D01*
X169583000Y-83478000D01*
X169582008Y-83473497D01*
X172467000Y-83473497D01*
X172467000Y-84136503D01*
X172566566Y-84637053D01*
X172850104Y-85061399D01*
X173274450Y-85344937D01*
X173775000Y-85444503D01*
X174275550Y-85344937D01*
X174699896Y-85061399D01*
X174983434Y-84637053D01*
X175083000Y-84136503D01*
X175083000Y-83473497D01*
X174983434Y-82972947D01*
X174699896Y-82548601D01*
X174275550Y-82265063D01*
X173775000Y-82165497D01*
X173274450Y-82265063D01*
X172850104Y-82548601D01*
X172566566Y-82972947D01*
X172467000Y-83473497D01*
X169582008Y-83473497D01*
X169473102Y-82979505D01*
X169180804Y-82561012D01*
X168750605Y-82286233D01*
X168506240Y-82217603D01*
X168302000Y-82349315D01*
X168248000Y-82349315D01*
X168043760Y-82217603D01*
X167799395Y-82286233D01*
X167369196Y-82561012D01*
X167076898Y-82979505D01*
X166967000Y-83478000D01*
X163123691Y-83478000D01*
X163030340Y-83252074D01*
X162634609Y-82855652D01*
X162117297Y-82640845D01*
X161557160Y-82640356D01*
X161039474Y-82854260D01*
X160643052Y-83249991D01*
X160428245Y-83767303D01*
X160427756Y-84327440D01*
X148003757Y-84327440D01*
X148004244Y-83769760D01*
X147790340Y-83252074D01*
X147394609Y-82855652D01*
X146877297Y-82640845D01*
X146317160Y-82640356D01*
X145799474Y-82854260D01*
X145403052Y-83249991D01*
X145188245Y-83767303D01*
X145187756Y-84327440D01*
X142352959Y-84327440D01*
X140410409Y-82384891D01*
X140196271Y-82241808D01*
X140383755Y-81790297D01*
X140384244Y-81230160D01*
X140170340Y-80712474D01*
X139774609Y-80316052D01*
X139257297Y-80101245D01*
X138697160Y-80100756D01*
X138179474Y-80314660D01*
X137783052Y-80710391D01*
X137568245Y-81227703D01*
X137567756Y-81787840D01*
X137725744Y-82170200D01*
X125144000Y-82170200D01*
X125144000Y-81688000D01*
X124992000Y-81536000D01*
X123763000Y-81536000D01*
X123763000Y-81556000D01*
X123709000Y-81556000D01*
X123709000Y-81536000D01*
X122480000Y-81536000D01*
X122328000Y-81688000D01*
X122328000Y-82429939D01*
X122420563Y-82653405D01*
X122459720Y-82692562D01*
X121608291Y-83543991D01*
X121449396Y-83781793D01*
X121393600Y-84062300D01*
X121393600Y-133239600D01*
X121449396Y-133520107D01*
X121608291Y-133757909D01*
X122354604Y-134504222D01*
X122328245Y-134567703D01*
X122327756Y-135127840D01*
X122541660Y-135645526D01*
X122937391Y-136041948D01*
X123122769Y-136118924D01*
X122939474Y-136194660D01*
X122543052Y-136590391D01*
X122328245Y-137107703D01*
X122327756Y-137667840D01*
X122354885Y-137733497D01*
X122068291Y-138020091D01*
X121909396Y-138257893D01*
X121853600Y-138538400D01*
X121853600Y-140413800D01*
X121909396Y-140694307D01*
X122068291Y-140932109D01*
X123328182Y-142192000D01*
X121987267Y-142192000D01*
X121700485Y-142134955D01*
X121514390Y-142010611D01*
X121390045Y-141824515D01*
X121333000Y-141537732D01*
X121333000Y-80588061D01*
X122328000Y-80588061D01*
X122328000Y-81330000D01*
X122480000Y-81482000D01*
X123709000Y-81482000D01*
X123709000Y-80253000D01*
X123763000Y-80253000D01*
X123763000Y-81482000D01*
X124992000Y-81482000D01*
X125144000Y-81330000D01*
X125144000Y-80588061D01*
X125051437Y-80364595D01*
X124880404Y-80193562D01*
X124656938Y-80101000D01*
X123915000Y-80101000D01*
X123763000Y-80253000D01*
X123709000Y-80253000D01*
X123557000Y-80101000D01*
X122815062Y-80101000D01*
X122591596Y-80193562D01*
X122420563Y-80364595D01*
X122328000Y-80588061D01*
X121333000Y-80588061D01*
X121333000Y-79442268D01*
X121390045Y-79155485D01*
X121514390Y-78969389D01*
X121700485Y-78845045D01*
X121987267Y-78788000D01*
X175827732Y-78788000D01*
X176114515Y-78845045D01*
G36*
X133246777Y-118353795D02*
X133099474Y-118414660D01*
X132703052Y-118810391D01*
X132626076Y-118995769D01*
X132550340Y-118812474D01*
X132154609Y-118416052D01*
X131637297Y-118201245D01*
X131077160Y-118200756D01*
X130559474Y-118414660D01*
X130163052Y-118810391D01*
X129948245Y-119327703D01*
X129947756Y-119887840D01*
X130161660Y-120405526D01*
X130557391Y-120801948D01*
X130742769Y-120878924D01*
X130559474Y-120954660D01*
X130163052Y-121350391D01*
X129948245Y-121867703D01*
X129947756Y-122427840D01*
X130161660Y-122945526D01*
X130557391Y-123341948D01*
X130742769Y-123418924D01*
X130559474Y-123494660D01*
X130163052Y-123890391D01*
X129948245Y-124407703D01*
X129947756Y-124967840D01*
X130161660Y-125485526D01*
X130557391Y-125881948D01*
X130740277Y-125957889D01*
X130583021Y-126019288D01*
X130534178Y-126051923D01*
X130467662Y-126302478D01*
X131356000Y-127190816D01*
X132244338Y-126302478D01*
X132177822Y-126051923D01*
X131967584Y-125959757D01*
X132152526Y-125883340D01*
X132548948Y-125487609D01*
X132625924Y-125302231D01*
X132701660Y-125485526D01*
X133097391Y-125881948D01*
X133282769Y-125958924D01*
X133099474Y-126034660D01*
X132703052Y-126430391D01*
X132627111Y-126613277D01*
X132565712Y-126456021D01*
X132533077Y-126407178D01*
X132282522Y-126340662D01*
X131394184Y-127229000D01*
X132282522Y-128117338D01*
X132533077Y-128050822D01*
X132625243Y-127840584D01*
X132701660Y-128025526D01*
X133097391Y-128421948D01*
X133282769Y-128498924D01*
X133099474Y-128574660D01*
X132703052Y-128970391D01*
X132626076Y-129155769D01*
X132550340Y-128972474D01*
X132154609Y-128576052D01*
X131971723Y-128500111D01*
X132128979Y-128438712D01*
X132177822Y-128406077D01*
X132244338Y-128155522D01*
X131356000Y-127267184D01*
X130467662Y-128155522D01*
X130534178Y-128406077D01*
X130744416Y-128498243D01*
X130559474Y-128574660D01*
X130163052Y-128970391D01*
X129948245Y-129487703D01*
X129947756Y-130047840D01*
X130161660Y-130565526D01*
X130557391Y-130961948D01*
X130742769Y-131038924D01*
X130559474Y-131114660D01*
X130163052Y-131510391D01*
X129948245Y-132027703D01*
X129947756Y-132587840D01*
X130161660Y-133105526D01*
X130557391Y-133501948D01*
X130742769Y-133578924D01*
X130559474Y-133654660D01*
X130163052Y-134050391D01*
X129948245Y-134567703D01*
X129947756Y-135127840D01*
X130161660Y-135645526D01*
X130557391Y-136041948D01*
X130742769Y-136118924D01*
X130559474Y-136194660D01*
X130163052Y-136590391D01*
X129948245Y-137107703D01*
X129947756Y-137667840D01*
X130161660Y-138185526D01*
X130557391Y-138581948D01*
X130742769Y-138658924D01*
X130559474Y-138734660D01*
X130163052Y-139130391D01*
X129948245Y-139647703D01*
X129947756Y-140207840D01*
X130006785Y-140350700D01*
X125194319Y-140350700D01*
X125117396Y-140273777D01*
X125143755Y-140210297D01*
X125144244Y-139650160D01*
X124930340Y-139132474D01*
X124534609Y-138736052D01*
X124349231Y-138659076D01*
X124532526Y-138583340D01*
X124928948Y-138187609D01*
X125143755Y-137670297D01*
X125144244Y-137110160D01*
X124930340Y-136592474D01*
X124534609Y-136196052D01*
X124349231Y-136119076D01*
X124532526Y-136043340D01*
X124928948Y-135647609D01*
X125143755Y-135130297D01*
X125144244Y-134570160D01*
X124930340Y-134052474D01*
X124534609Y-133656052D01*
X124349231Y-133579076D01*
X124532526Y-133503340D01*
X124928948Y-133107609D01*
X125143755Y-132590297D01*
X125144244Y-132030160D01*
X124930340Y-131512474D01*
X124534609Y-131116052D01*
X124349231Y-131039076D01*
X124532526Y-130963340D01*
X124928948Y-130567609D01*
X125143755Y-130050297D01*
X125144244Y-129490160D01*
X124930340Y-128972474D01*
X124534609Y-128576052D01*
X124349231Y-128499076D01*
X124532526Y-128423340D01*
X124928948Y-128027609D01*
X125005924Y-127842231D01*
X125081660Y-128025526D01*
X125477391Y-128421948D01*
X125994703Y-128636755D01*
X126554840Y-128637244D01*
X127072526Y-128423340D01*
X127468948Y-128027609D01*
X127545924Y-127842231D01*
X127621660Y-128025526D01*
X128017391Y-128421948D01*
X128534703Y-128636755D01*
X129094840Y-128637244D01*
X129612526Y-128423340D01*
X130008948Y-128027609D01*
X130084889Y-127844723D01*
X130146288Y-128001979D01*
X130178923Y-128050822D01*
X130429478Y-128117338D01*
X131317816Y-127229000D01*
X130429478Y-126340662D01*
X130178923Y-126407178D01*
X130086757Y-126617416D01*
X130010340Y-126432474D01*
X129614609Y-126036052D01*
X129097297Y-125821245D01*
X128537160Y-125820756D01*
X128019474Y-126034660D01*
X127623052Y-126430391D01*
X127546076Y-126615769D01*
X127470340Y-126432474D01*
X127074609Y-126036052D01*
X126557297Y-125821245D01*
X125997160Y-125820756D01*
X125479474Y-126034660D01*
X125083052Y-126430391D01*
X125006076Y-126615769D01*
X124930340Y-126432474D01*
X124534609Y-126036052D01*
X124349231Y-125959076D01*
X124532526Y-125883340D01*
X124928948Y-125487609D01*
X125143755Y-124970297D01*
X125144244Y-124410160D01*
X124930340Y-123892474D01*
X124534609Y-123496052D01*
X124349231Y-123419076D01*
X124532526Y-123343340D01*
X124928948Y-122947609D01*
X125143755Y-122430297D01*
X125144244Y-121870160D01*
X124930340Y-121352474D01*
X124534609Y-120956052D01*
X124349231Y-120879076D01*
X124532526Y-120803340D01*
X124928948Y-120407609D01*
X125143755Y-119890297D01*
X125144244Y-119330160D01*
X124930340Y-118812474D01*
X124534609Y-118416052D01*
X124349231Y-118339076D01*
X124532526Y-118263340D01*
X124928948Y-117867609D01*
X125143755Y-117350297D01*
X125144244Y-116790160D01*
X124930340Y-116272474D01*
X124534609Y-115876052D01*
X124349231Y-115799076D01*
X124532526Y-115723340D01*
X124928948Y-115327609D01*
X125143755Y-114810297D01*
X125144244Y-114250160D01*
X124930340Y-113732474D01*
X124534609Y-113336052D01*
X124349231Y-113259076D01*
X124532526Y-113183340D01*
X124928948Y-112787609D01*
X125143755Y-112270297D01*
X125144244Y-111710160D01*
X124930340Y-111192474D01*
X124534609Y-110796052D01*
X124349231Y-110719076D01*
X124532526Y-110643340D01*
X124928948Y-110247609D01*
X124991045Y-110098063D01*
X133246777Y-118353795D01*
X133246777Y-118353795D01*
G37*
X133246777Y-118353795D02*
X133099474Y-118414660D01*
X132703052Y-118810391D01*
X132626076Y-118995769D01*
X132550340Y-118812474D01*
X132154609Y-118416052D01*
X131637297Y-118201245D01*
X131077160Y-118200756D01*
X130559474Y-118414660D01*
X130163052Y-118810391D01*
X129948245Y-119327703D01*
X129947756Y-119887840D01*
X130161660Y-120405526D01*
X130557391Y-120801948D01*
X130742769Y-120878924D01*
X130559474Y-120954660D01*
X130163052Y-121350391D01*
X129948245Y-121867703D01*
X129947756Y-122427840D01*
X130161660Y-122945526D01*
X130557391Y-123341948D01*
X130742769Y-123418924D01*
X130559474Y-123494660D01*
X130163052Y-123890391D01*
X129948245Y-124407703D01*
X129947756Y-124967840D01*
X130161660Y-125485526D01*
X130557391Y-125881948D01*
X130740277Y-125957889D01*
X130583021Y-126019288D01*
X130534178Y-126051923D01*
X130467662Y-126302478D01*
X131356000Y-127190816D01*
X132244338Y-126302478D01*
X132177822Y-126051923D01*
X131967584Y-125959757D01*
X132152526Y-125883340D01*
X132548948Y-125487609D01*
X132625924Y-125302231D01*
X132701660Y-125485526D01*
X133097391Y-125881948D01*
X133282769Y-125958924D01*
X133099474Y-126034660D01*
X132703052Y-126430391D01*
X132627111Y-126613277D01*
X132565712Y-126456021D01*
X132533077Y-126407178D01*
X132282522Y-126340662D01*
X131394184Y-127229000D01*
X132282522Y-128117338D01*
X132533077Y-128050822D01*
X132625243Y-127840584D01*
X132701660Y-128025526D01*
X133097391Y-128421948D01*
X133282769Y-128498924D01*
X133099474Y-128574660D01*
X132703052Y-128970391D01*
X132626076Y-129155769D01*
X132550340Y-128972474D01*
X132154609Y-128576052D01*
X131971723Y-128500111D01*
X132128979Y-128438712D01*
X132177822Y-128406077D01*
X132244338Y-128155522D01*
X131356000Y-127267184D01*
X130467662Y-128155522D01*
X130534178Y-128406077D01*
X130744416Y-128498243D01*
X130559474Y-128574660D01*
X130163052Y-128970391D01*
X129948245Y-129487703D01*
X129947756Y-130047840D01*
X130161660Y-130565526D01*
X130557391Y-130961948D01*
X130742769Y-131038924D01*
X130559474Y-131114660D01*
X130163052Y-131510391D01*
X129948245Y-132027703D01*
X129947756Y-132587840D01*
X130161660Y-133105526D01*
X130557391Y-133501948D01*
X130742769Y-133578924D01*
X130559474Y-133654660D01*
X130163052Y-134050391D01*
X129948245Y-134567703D01*
X129947756Y-135127840D01*
X130161660Y-135645526D01*
X130557391Y-136041948D01*
X130742769Y-136118924D01*
X130559474Y-136194660D01*
X130163052Y-136590391D01*
X129948245Y-137107703D01*
X129947756Y-137667840D01*
X130161660Y-138185526D01*
X130557391Y-138581948D01*
X130742769Y-138658924D01*
X130559474Y-138734660D01*
X130163052Y-139130391D01*
X129948245Y-139647703D01*
X129947756Y-140207840D01*
X130006785Y-140350700D01*
X125194319Y-140350700D01*
X125117396Y-140273777D01*
X125143755Y-140210297D01*
X125144244Y-139650160D01*
X124930340Y-139132474D01*
X124534609Y-138736052D01*
X124349231Y-138659076D01*
X124532526Y-138583340D01*
X124928948Y-138187609D01*
X125143755Y-137670297D01*
X125144244Y-137110160D01*
X124930340Y-136592474D01*
X124534609Y-136196052D01*
X124349231Y-136119076D01*
X124532526Y-136043340D01*
X124928948Y-135647609D01*
X125143755Y-135130297D01*
X125144244Y-134570160D01*
X124930340Y-134052474D01*
X124534609Y-133656052D01*
X124349231Y-133579076D01*
X124532526Y-133503340D01*
X124928948Y-133107609D01*
X125143755Y-132590297D01*
X125144244Y-132030160D01*
X124930340Y-131512474D01*
X124534609Y-131116052D01*
X124349231Y-131039076D01*
X124532526Y-130963340D01*
X124928948Y-130567609D01*
X125143755Y-130050297D01*
X125144244Y-129490160D01*
X124930340Y-128972474D01*
X124534609Y-128576052D01*
X124349231Y-128499076D01*
X124532526Y-128423340D01*
X124928948Y-128027609D01*
X125005924Y-127842231D01*
X125081660Y-128025526D01*
X125477391Y-128421948D01*
X125994703Y-128636755D01*
X126554840Y-128637244D01*
X127072526Y-128423340D01*
X127468948Y-128027609D01*
X127545924Y-127842231D01*
X127621660Y-128025526D01*
X128017391Y-128421948D01*
X128534703Y-128636755D01*
X129094840Y-128637244D01*
X129612526Y-128423340D01*
X130008948Y-128027609D01*
X130084889Y-127844723D01*
X130146288Y-128001979D01*
X130178923Y-128050822D01*
X130429478Y-128117338D01*
X131317816Y-127229000D01*
X130429478Y-126340662D01*
X130178923Y-126407178D01*
X130086757Y-126617416D01*
X130010340Y-126432474D01*
X129614609Y-126036052D01*
X129097297Y-125821245D01*
X128537160Y-125820756D01*
X128019474Y-126034660D01*
X127623052Y-126430391D01*
X127546076Y-126615769D01*
X127470340Y-126432474D01*
X127074609Y-126036052D01*
X126557297Y-125821245D01*
X125997160Y-125820756D01*
X125479474Y-126034660D01*
X125083052Y-126430391D01*
X125006076Y-126615769D01*
X124930340Y-126432474D01*
X124534609Y-126036052D01*
X124349231Y-125959076D01*
X124532526Y-125883340D01*
X124928948Y-125487609D01*
X125143755Y-124970297D01*
X125144244Y-124410160D01*
X124930340Y-123892474D01*
X124534609Y-123496052D01*
X124349231Y-123419076D01*
X124532526Y-123343340D01*
X124928948Y-122947609D01*
X125143755Y-122430297D01*
X125144244Y-121870160D01*
X124930340Y-121352474D01*
X124534609Y-120956052D01*
X124349231Y-120879076D01*
X124532526Y-120803340D01*
X124928948Y-120407609D01*
X125143755Y-119890297D01*
X125144244Y-119330160D01*
X124930340Y-118812474D01*
X124534609Y-118416052D01*
X124349231Y-118339076D01*
X124532526Y-118263340D01*
X124928948Y-117867609D01*
X125143755Y-117350297D01*
X125144244Y-116790160D01*
X124930340Y-116272474D01*
X124534609Y-115876052D01*
X124349231Y-115799076D01*
X124532526Y-115723340D01*
X124928948Y-115327609D01*
X125143755Y-114810297D01*
X125144244Y-114250160D01*
X124930340Y-113732474D01*
X124534609Y-113336052D01*
X124349231Y-113259076D01*
X124532526Y-113183340D01*
X124928948Y-112787609D01*
X125143755Y-112270297D01*
X125144244Y-111710160D01*
X124930340Y-111192474D01*
X124534609Y-110796052D01*
X124349231Y-110719076D01*
X124532526Y-110643340D01*
X124928948Y-110247609D01*
X124991045Y-110098063D01*
X133246777Y-118353795D01*
G36*
X151581900Y-115997519D02*
X151581900Y-126093946D01*
X151421286Y-126027254D01*
X150841258Y-126026747D01*
X150305188Y-126248247D01*
X149894688Y-126658031D01*
X149672254Y-127193714D01*
X149671747Y-127773742D01*
X149893247Y-128309812D01*
X150303031Y-128720312D01*
X150838714Y-128942746D01*
X151418742Y-128943253D01*
X151581900Y-128875837D01*
X151581900Y-132593946D01*
X151421286Y-132527254D01*
X150841258Y-132526747D01*
X150747221Y-132565603D01*
X147119551Y-128937933D01*
X147634179Y-128948797D01*
X148174621Y-128738188D01*
X148226793Y-128703327D01*
X148299394Y-128447578D01*
X147375000Y-127523184D01*
X147360858Y-127537326D01*
X147322674Y-127499142D01*
X147336816Y-127485000D01*
X147413184Y-127485000D01*
X148337578Y-128409394D01*
X148593327Y-128336793D01*
X148826555Y-127805720D01*
X148838797Y-127225821D01*
X148628188Y-126685379D01*
X148593327Y-126633207D01*
X148337578Y-126560606D01*
X147413184Y-127485000D01*
X147336816Y-127485000D01*
X147322674Y-127470858D01*
X147360858Y-127432674D01*
X147375000Y-127446816D01*
X148299394Y-126522422D01*
X148226793Y-126266673D01*
X147877855Y-126113432D01*
X147877888Y-126076231D01*
X148376509Y-125577610D01*
X148535404Y-125339807D01*
X148535823Y-125337700D01*
X148591200Y-125059300D01*
X148591200Y-113777200D01*
X148535404Y-113496693D01*
X148376509Y-113258891D01*
X147774293Y-112656675D01*
X147961253Y-112376871D01*
X151581900Y-115997519D01*
X151581900Y-115997519D01*
G37*
X151581900Y-115997519D02*
X151581900Y-126093946D01*
X151421286Y-126027254D01*
X150841258Y-126026747D01*
X150305188Y-126248247D01*
X149894688Y-126658031D01*
X149672254Y-127193714D01*
X149671747Y-127773742D01*
X149893247Y-128309812D01*
X150303031Y-128720312D01*
X150838714Y-128942746D01*
X151418742Y-128943253D01*
X151581900Y-128875837D01*
X151581900Y-132593946D01*
X151421286Y-132527254D01*
X150841258Y-132526747D01*
X150747221Y-132565603D01*
X147119551Y-128937933D01*
X147634179Y-128948797D01*
X148174621Y-128738188D01*
X148226793Y-128703327D01*
X148299394Y-128447578D01*
X147375000Y-127523184D01*
X147360858Y-127537326D01*
X147322674Y-127499142D01*
X147336816Y-127485000D01*
X147413184Y-127485000D01*
X148337578Y-128409394D01*
X148593327Y-128336793D01*
X148826555Y-127805720D01*
X148838797Y-127225821D01*
X148628188Y-126685379D01*
X148593327Y-126633207D01*
X148337578Y-126560606D01*
X147413184Y-127485000D01*
X147336816Y-127485000D01*
X147322674Y-127470858D01*
X147360858Y-127432674D01*
X147375000Y-127446816D01*
X148299394Y-126522422D01*
X148226793Y-126266673D01*
X147877855Y-126113432D01*
X147877888Y-126076231D01*
X148376509Y-125577610D01*
X148535404Y-125339807D01*
X148535823Y-125337700D01*
X148591200Y-125059300D01*
X148591200Y-113777200D01*
X148535404Y-113496693D01*
X148376509Y-113258891D01*
X147774293Y-112656675D01*
X147961253Y-112376871D01*
X151581900Y-115997519D01*
G36*
X135028245Y-83767703D02*
X135027756Y-84327840D01*
X135241660Y-84845526D01*
X135637391Y-85241948D01*
X136154703Y-85456755D01*
X136714840Y-85457244D01*
X137232526Y-85243340D01*
X137628948Y-84847609D01*
X137705924Y-84662231D01*
X137781660Y-84845526D01*
X138177391Y-85241948D01*
X138362769Y-85318924D01*
X138179474Y-85394660D01*
X137783052Y-85790391D01*
X137568245Y-86307703D01*
X137567756Y-86867840D01*
X137781660Y-87385526D01*
X138177391Y-87781948D01*
X138362769Y-87858924D01*
X138179474Y-87934660D01*
X137783052Y-88330391D01*
X137706076Y-88515769D01*
X137630340Y-88332474D01*
X137234609Y-87936052D01*
X136717297Y-87721245D01*
X136157160Y-87720756D01*
X135639474Y-87934660D01*
X135243052Y-88330391D01*
X135028245Y-88847703D01*
X135027756Y-89407840D01*
X135241660Y-89925526D01*
X135637391Y-90321948D01*
X135822769Y-90398924D01*
X135639474Y-90474660D01*
X135243052Y-90870391D01*
X135028245Y-91387703D01*
X135027756Y-91947840D01*
X135241660Y-92465526D01*
X135637391Y-92861948D01*
X135822769Y-92938924D01*
X135639474Y-93014660D01*
X135243052Y-93410391D01*
X135028245Y-93927703D01*
X135027756Y-94487840D01*
X135241660Y-95005526D01*
X135637391Y-95401948D01*
X136154703Y-95616755D01*
X136714840Y-95617244D01*
X137091500Y-95461611D01*
X137091500Y-102269200D01*
X137147296Y-102549707D01*
X137306191Y-102787509D01*
X137936196Y-103417514D01*
X137783052Y-103570391D01*
X137568245Y-104087703D01*
X137567756Y-104647840D01*
X137781660Y-105165526D01*
X138177391Y-105561948D01*
X138362769Y-105638924D01*
X138179474Y-105714660D01*
X137783052Y-106110391D01*
X137568245Y-106627703D01*
X137567756Y-107187840D01*
X137781660Y-107705526D01*
X138177391Y-108101948D01*
X138362769Y-108178924D01*
X138179474Y-108254660D01*
X137783052Y-108650391D01*
X137568245Y-109167703D01*
X137567756Y-109727840D01*
X137781660Y-110245526D01*
X138177391Y-110641948D01*
X138362769Y-110718924D01*
X138179474Y-110794660D01*
X137783052Y-111190391D01*
X137568245Y-111707703D01*
X137567756Y-112267840D01*
X137781660Y-112785526D01*
X138177391Y-113181948D01*
X138362769Y-113258924D01*
X138179474Y-113334660D01*
X137783052Y-113730391D01*
X137568245Y-114247703D01*
X137567756Y-114807840D01*
X137781660Y-115325526D01*
X138177391Y-115721948D01*
X138360277Y-115797889D01*
X138203021Y-115859288D01*
X138154178Y-115891923D01*
X138087662Y-116142478D01*
X138976000Y-117030816D01*
X139864338Y-116142478D01*
X139797822Y-115891923D01*
X139587584Y-115799757D01*
X139772526Y-115723340D01*
X140168948Y-115327609D01*
X140383755Y-114810297D01*
X140384244Y-114250160D01*
X140170340Y-113732474D01*
X139774609Y-113336052D01*
X139589231Y-113259076D01*
X139772526Y-113183340D01*
X140168948Y-112787609D01*
X140383755Y-112270297D01*
X140384244Y-111710160D01*
X140170340Y-111192474D01*
X139774609Y-110796052D01*
X139589231Y-110719076D01*
X139772526Y-110643340D01*
X140168948Y-110247609D01*
X140383755Y-109730297D01*
X140384244Y-109170160D01*
X140170340Y-108652474D01*
X139774609Y-108256052D01*
X139589231Y-108179076D01*
X139772526Y-108103340D01*
X140168948Y-107707609D01*
X140383755Y-107190297D01*
X140384244Y-106630160D01*
X140170340Y-106112474D01*
X139774609Y-105716052D01*
X139589231Y-105639076D01*
X139772526Y-105563340D01*
X140168948Y-105167609D01*
X140216521Y-105053039D01*
X140665200Y-105501718D01*
X140665200Y-115789200D01*
X140720996Y-116069707D01*
X140879891Y-116307509D01*
X145595707Y-121023325D01*
X145356594Y-121381182D01*
X145249416Y-121920000D01*
X145356594Y-122458818D01*
X145661810Y-122915606D01*
X146097709Y-123206864D01*
X145926435Y-123273809D01*
X145530242Y-123654393D01*
X145309850Y-124157623D01*
X145298814Y-124213113D01*
X145429290Y-124433000D01*
X146658000Y-124433000D01*
X146658000Y-124413000D01*
X146712000Y-124413000D01*
X146712000Y-124433000D01*
X146732000Y-124433000D01*
X146732000Y-124487000D01*
X146712000Y-124487000D01*
X146712000Y-124507000D01*
X146658000Y-124507000D01*
X146658000Y-124487000D01*
X145429290Y-124487000D01*
X145298814Y-124706887D01*
X145309850Y-124762377D01*
X145530242Y-125265607D01*
X145926435Y-125646191D01*
X146086042Y-125708576D01*
X146062158Y-125766095D01*
X146061843Y-126127320D01*
X146199786Y-126461169D01*
X146324083Y-126585683D01*
X146156673Y-126633207D01*
X145923445Y-127164280D01*
X145911505Y-127729887D01*
X143827700Y-125646082D01*
X143827700Y-122135800D01*
X143771904Y-121855293D01*
X143613009Y-121617490D01*
X139942297Y-117946779D01*
X140153077Y-117890822D01*
X140377974Y-117377817D01*
X140389434Y-116817797D01*
X140185712Y-116296021D01*
X140153077Y-116247178D01*
X139902522Y-116180662D01*
X139014184Y-117069000D01*
X139028326Y-117083142D01*
X138990142Y-117121326D01*
X138976000Y-117107184D01*
X138961858Y-117121326D01*
X138923674Y-117083142D01*
X138937816Y-117069000D01*
X138049478Y-116180662D01*
X137798923Y-116247178D01*
X137737898Y-116386380D01*
X128967300Y-107615782D01*
X128967300Y-97027840D01*
X129947756Y-97027840D01*
X130161660Y-97545526D01*
X130557391Y-97941948D01*
X130742769Y-98018924D01*
X130559474Y-98094660D01*
X130163052Y-98490391D01*
X129948245Y-99007703D01*
X129947756Y-99567840D01*
X130161660Y-100085526D01*
X130557391Y-100481948D01*
X130742769Y-100558924D01*
X130559474Y-100634660D01*
X130163052Y-101030391D01*
X129948245Y-101547703D01*
X129947756Y-102107840D01*
X130161660Y-102625526D01*
X130557391Y-103021948D01*
X130742769Y-103098924D01*
X130559474Y-103174660D01*
X130163052Y-103570391D01*
X129948245Y-104087703D01*
X129947756Y-104647840D01*
X130161660Y-105165526D01*
X130557391Y-105561948D01*
X131074703Y-105776755D01*
X131634840Y-105777244D01*
X132152526Y-105563340D01*
X132548948Y-105167609D01*
X132625924Y-104982231D01*
X132701660Y-105165526D01*
X133097391Y-105561948D01*
X133614703Y-105776755D01*
X134174840Y-105777244D01*
X134692526Y-105563340D01*
X135088948Y-105167609D01*
X135303755Y-104650297D01*
X135304244Y-104090160D01*
X135090340Y-103572474D01*
X134694609Y-103176052D01*
X134509231Y-103099076D01*
X134692526Y-103023340D01*
X135088948Y-102627609D01*
X135303755Y-102110297D01*
X135304244Y-101550160D01*
X135090340Y-101032474D01*
X134694609Y-100636052D01*
X134509231Y-100559076D01*
X134692526Y-100483340D01*
X135088948Y-100087609D01*
X135303755Y-99570297D01*
X135304244Y-99010160D01*
X135090340Y-98492474D01*
X134694609Y-98096052D01*
X134509231Y-98019076D01*
X134692526Y-97943340D01*
X135088948Y-97547609D01*
X135303755Y-97030297D01*
X135304244Y-96470160D01*
X135090340Y-95952474D01*
X134694609Y-95556052D01*
X134177297Y-95341245D01*
X133617160Y-95340756D01*
X133099474Y-95554660D01*
X132703052Y-95950391D01*
X132626076Y-96135769D01*
X132550340Y-95952474D01*
X132154609Y-95556052D01*
X131637297Y-95341245D01*
X131077160Y-95340756D01*
X130559474Y-95554660D01*
X130163052Y-95950391D01*
X129948245Y-96467703D01*
X129947756Y-97027840D01*
X128967300Y-97027840D01*
X128967300Y-92780500D01*
X128911504Y-92499993D01*
X128828702Y-92376071D01*
X128752609Y-92262190D01*
X127808382Y-91317964D01*
X127928948Y-91197609D01*
X128143755Y-90680297D01*
X128144244Y-90120160D01*
X127930340Y-89602474D01*
X127534609Y-89206052D01*
X127349231Y-89129076D01*
X127532526Y-89053340D01*
X127928948Y-88657609D01*
X128143755Y-88140297D01*
X128144244Y-87580160D01*
X127930340Y-87062474D01*
X127534609Y-86666052D01*
X127017297Y-86451245D01*
X126457160Y-86450756D01*
X125939474Y-86664660D01*
X125543052Y-87060391D01*
X125455312Y-87271693D01*
X125117396Y-86933777D01*
X125143755Y-86870297D01*
X125144244Y-86310160D01*
X124930340Y-85792474D01*
X124534609Y-85396052D01*
X124349231Y-85319076D01*
X124532526Y-85243340D01*
X124928948Y-84847609D01*
X125143755Y-84330297D01*
X125144244Y-83770160D01*
X125088893Y-83636200D01*
X135082850Y-83636200D01*
X135028245Y-83767703D01*
X135028245Y-83767703D01*
G37*
X135028245Y-83767703D02*
X135027756Y-84327840D01*
X135241660Y-84845526D01*
X135637391Y-85241948D01*
X136154703Y-85456755D01*
X136714840Y-85457244D01*
X137232526Y-85243340D01*
X137628948Y-84847609D01*
X137705924Y-84662231D01*
X137781660Y-84845526D01*
X138177391Y-85241948D01*
X138362769Y-85318924D01*
X138179474Y-85394660D01*
X137783052Y-85790391D01*
X137568245Y-86307703D01*
X137567756Y-86867840D01*
X137781660Y-87385526D01*
X138177391Y-87781948D01*
X138362769Y-87858924D01*
X138179474Y-87934660D01*
X137783052Y-88330391D01*
X137706076Y-88515769D01*
X137630340Y-88332474D01*
X137234609Y-87936052D01*
X136717297Y-87721245D01*
X136157160Y-87720756D01*
X135639474Y-87934660D01*
X135243052Y-88330391D01*
X135028245Y-88847703D01*
X135027756Y-89407840D01*
X135241660Y-89925526D01*
X135637391Y-90321948D01*
X135822769Y-90398924D01*
X135639474Y-90474660D01*
X135243052Y-90870391D01*
X135028245Y-91387703D01*
X135027756Y-91947840D01*
X135241660Y-92465526D01*
X135637391Y-92861948D01*
X135822769Y-92938924D01*
X135639474Y-93014660D01*
X135243052Y-93410391D01*
X135028245Y-93927703D01*
X135027756Y-94487840D01*
X135241660Y-95005526D01*
X135637391Y-95401948D01*
X136154703Y-95616755D01*
X136714840Y-95617244D01*
X137091500Y-95461611D01*
X137091500Y-102269200D01*
X137147296Y-102549707D01*
X137306191Y-102787509D01*
X137936196Y-103417514D01*
X137783052Y-103570391D01*
X137568245Y-104087703D01*
X137567756Y-104647840D01*
X137781660Y-105165526D01*
X138177391Y-105561948D01*
X138362769Y-105638924D01*
X138179474Y-105714660D01*
X137783052Y-106110391D01*
X137568245Y-106627703D01*
X137567756Y-107187840D01*
X137781660Y-107705526D01*
X138177391Y-108101948D01*
X138362769Y-108178924D01*
X138179474Y-108254660D01*
X137783052Y-108650391D01*
X137568245Y-109167703D01*
X137567756Y-109727840D01*
X137781660Y-110245526D01*
X138177391Y-110641948D01*
X138362769Y-110718924D01*
X138179474Y-110794660D01*
X137783052Y-111190391D01*
X137568245Y-111707703D01*
X137567756Y-112267840D01*
X137781660Y-112785526D01*
X138177391Y-113181948D01*
X138362769Y-113258924D01*
X138179474Y-113334660D01*
X137783052Y-113730391D01*
X137568245Y-114247703D01*
X137567756Y-114807840D01*
X137781660Y-115325526D01*
X138177391Y-115721948D01*
X138360277Y-115797889D01*
X138203021Y-115859288D01*
X138154178Y-115891923D01*
X138087662Y-116142478D01*
X138976000Y-117030816D01*
X139864338Y-116142478D01*
X139797822Y-115891923D01*
X139587584Y-115799757D01*
X139772526Y-115723340D01*
X140168948Y-115327609D01*
X140383755Y-114810297D01*
X140384244Y-114250160D01*
X140170340Y-113732474D01*
X139774609Y-113336052D01*
X139589231Y-113259076D01*
X139772526Y-113183340D01*
X140168948Y-112787609D01*
X140383755Y-112270297D01*
X140384244Y-111710160D01*
X140170340Y-111192474D01*
X139774609Y-110796052D01*
X139589231Y-110719076D01*
X139772526Y-110643340D01*
X140168948Y-110247609D01*
X140383755Y-109730297D01*
X140384244Y-109170160D01*
X140170340Y-108652474D01*
X139774609Y-108256052D01*
X139589231Y-108179076D01*
X139772526Y-108103340D01*
X140168948Y-107707609D01*
X140383755Y-107190297D01*
X140384244Y-106630160D01*
X140170340Y-106112474D01*
X139774609Y-105716052D01*
X139589231Y-105639076D01*
X139772526Y-105563340D01*
X140168948Y-105167609D01*
X140216521Y-105053039D01*
X140665200Y-105501718D01*
X140665200Y-115789200D01*
X140720996Y-116069707D01*
X140879891Y-116307509D01*
X145595707Y-121023325D01*
X145356594Y-121381182D01*
X145249416Y-121920000D01*
X145356594Y-122458818D01*
X145661810Y-122915606D01*
X146097709Y-123206864D01*
X145926435Y-123273809D01*
X145530242Y-123654393D01*
X145309850Y-124157623D01*
X145298814Y-124213113D01*
X145429290Y-124433000D01*
X146658000Y-124433000D01*
X146658000Y-124413000D01*
X146712000Y-124413000D01*
X146712000Y-124433000D01*
X146732000Y-124433000D01*
X146732000Y-124487000D01*
X146712000Y-124487000D01*
X146712000Y-124507000D01*
X146658000Y-124507000D01*
X146658000Y-124487000D01*
X145429290Y-124487000D01*
X145298814Y-124706887D01*
X145309850Y-124762377D01*
X145530242Y-125265607D01*
X145926435Y-125646191D01*
X146086042Y-125708576D01*
X146062158Y-125766095D01*
X146061843Y-126127320D01*
X146199786Y-126461169D01*
X146324083Y-126585683D01*
X146156673Y-126633207D01*
X145923445Y-127164280D01*
X145911505Y-127729887D01*
X143827700Y-125646082D01*
X143827700Y-122135800D01*
X143771904Y-121855293D01*
X143613009Y-121617490D01*
X139942297Y-117946779D01*
X140153077Y-117890822D01*
X140377974Y-117377817D01*
X140389434Y-116817797D01*
X140185712Y-116296021D01*
X140153077Y-116247178D01*
X139902522Y-116180662D01*
X139014184Y-117069000D01*
X139028326Y-117083142D01*
X138990142Y-117121326D01*
X138976000Y-117107184D01*
X138961858Y-117121326D01*
X138923674Y-117083142D01*
X138937816Y-117069000D01*
X138049478Y-116180662D01*
X137798923Y-116247178D01*
X137737898Y-116386380D01*
X128967300Y-107615782D01*
X128967300Y-97027840D01*
X129947756Y-97027840D01*
X130161660Y-97545526D01*
X130557391Y-97941948D01*
X130742769Y-98018924D01*
X130559474Y-98094660D01*
X130163052Y-98490391D01*
X129948245Y-99007703D01*
X129947756Y-99567840D01*
X130161660Y-100085526D01*
X130557391Y-100481948D01*
X130742769Y-100558924D01*
X130559474Y-100634660D01*
X130163052Y-101030391D01*
X129948245Y-101547703D01*
X129947756Y-102107840D01*
X130161660Y-102625526D01*
X130557391Y-103021948D01*
X130742769Y-103098924D01*
X130559474Y-103174660D01*
X130163052Y-103570391D01*
X129948245Y-104087703D01*
X129947756Y-104647840D01*
X130161660Y-105165526D01*
X130557391Y-105561948D01*
X131074703Y-105776755D01*
X131634840Y-105777244D01*
X132152526Y-105563340D01*
X132548948Y-105167609D01*
X132625924Y-104982231D01*
X132701660Y-105165526D01*
X133097391Y-105561948D01*
X133614703Y-105776755D01*
X134174840Y-105777244D01*
X134692526Y-105563340D01*
X135088948Y-105167609D01*
X135303755Y-104650297D01*
X135304244Y-104090160D01*
X135090340Y-103572474D01*
X134694609Y-103176052D01*
X134509231Y-103099076D01*
X134692526Y-103023340D01*
X135088948Y-102627609D01*
X135303755Y-102110297D01*
X135304244Y-101550160D01*
X135090340Y-101032474D01*
X134694609Y-100636052D01*
X134509231Y-100559076D01*
X134692526Y-100483340D01*
X135088948Y-100087609D01*
X135303755Y-99570297D01*
X135304244Y-99010160D01*
X135090340Y-98492474D01*
X134694609Y-98096052D01*
X134509231Y-98019076D01*
X134692526Y-97943340D01*
X135088948Y-97547609D01*
X135303755Y-97030297D01*
X135304244Y-96470160D01*
X135090340Y-95952474D01*
X134694609Y-95556052D01*
X134177297Y-95341245D01*
X133617160Y-95340756D01*
X133099474Y-95554660D01*
X132703052Y-95950391D01*
X132626076Y-96135769D01*
X132550340Y-95952474D01*
X132154609Y-95556052D01*
X131637297Y-95341245D01*
X131077160Y-95340756D01*
X130559474Y-95554660D01*
X130163052Y-95950391D01*
X129948245Y-96467703D01*
X129947756Y-97027840D01*
X128967300Y-97027840D01*
X128967300Y-92780500D01*
X128911504Y-92499993D01*
X128828702Y-92376071D01*
X128752609Y-92262190D01*
X127808382Y-91317964D01*
X127928948Y-91197609D01*
X128143755Y-90680297D01*
X128144244Y-90120160D01*
X127930340Y-89602474D01*
X127534609Y-89206052D01*
X127349231Y-89129076D01*
X127532526Y-89053340D01*
X127928948Y-88657609D01*
X128143755Y-88140297D01*
X128144244Y-87580160D01*
X127930340Y-87062474D01*
X127534609Y-86666052D01*
X127017297Y-86451245D01*
X126457160Y-86450756D01*
X125939474Y-86664660D01*
X125543052Y-87060391D01*
X125455312Y-87271693D01*
X125117396Y-86933777D01*
X125143755Y-86870297D01*
X125144244Y-86310160D01*
X124930340Y-85792474D01*
X124534609Y-85396052D01*
X124349231Y-85319076D01*
X124532526Y-85243340D01*
X124928948Y-84847609D01*
X125143755Y-84330297D01*
X125144244Y-83770160D01*
X125088893Y-83636200D01*
X135082850Y-83636200D01*
X135028245Y-83767703D01*
G36*
X126788326Y-98004858D02*
X126774184Y-98019000D01*
X126788326Y-98033142D01*
X126750142Y-98071326D01*
X126736000Y-98057184D01*
X126721858Y-98071326D01*
X126683674Y-98033142D01*
X126697816Y-98019000D01*
X126683674Y-98004858D01*
X126721858Y-97966674D01*
X126736000Y-97980816D01*
X126750142Y-97966674D01*
X126788326Y-98004858D01*
X126788326Y-98004858D01*
G37*
X126788326Y-98004858D02*
X126774184Y-98019000D01*
X126788326Y-98033142D01*
X126750142Y-98071326D01*
X126736000Y-98057184D01*
X126721858Y-98071326D01*
X126683674Y-98033142D01*
X126697816Y-98019000D01*
X126683674Y-98004858D01*
X126721858Y-97966674D01*
X126736000Y-97980816D01*
X126750142Y-97966674D01*
X126788326Y-98004858D01*
G36*
X126788326Y-95464858D02*
X126774184Y-95479000D01*
X126788326Y-95493142D01*
X126750142Y-95531326D01*
X126736000Y-95517184D01*
X126721858Y-95531326D01*
X126683674Y-95493142D01*
X126697816Y-95479000D01*
X126683674Y-95464858D01*
X126721858Y-95426674D01*
X126736000Y-95440816D01*
X126750142Y-95426674D01*
X126788326Y-95464858D01*
X126788326Y-95464858D01*
G37*
X126788326Y-95464858D02*
X126774184Y-95479000D01*
X126788326Y-95493142D01*
X126750142Y-95531326D01*
X126736000Y-95517184D01*
X126721858Y-95531326D01*
X126683674Y-95493142D01*
X126697816Y-95479000D01*
X126683674Y-95464858D01*
X126721858Y-95426674D01*
X126736000Y-95440816D01*
X126750142Y-95426674D01*
X126788326Y-95464858D01*
M02*
