G04 #@! TF.FileFunction,Soldermask,Top*
%FSLAX46Y46*%
G04 Gerber Fmt 4.6, Leading zero omitted, Abs format (unit mm)*
G04 Created by KiCad (PCBNEW 4.0.6) date 01/20/18 20:01:26*
%MOMM*%
%LPD*%
G01*
G04 APERTURE LIST*
%ADD10C,0.100000*%
%ADD11R,1.600000X1.600000*%
%ADD12C,1.600000*%
%ADD13R,2.000000X2.000000*%
%ADD14C,2.000000*%
%ADD15O,1.800000X2.400000*%
%ADD16R,1.800000X2.400000*%
%ADD17O,2.000000X2.000000*%
G04 APERTURE END LIST*
D10*
D11*
X172720000Y-137795000D03*
D12*
X174220000Y-137795000D03*
D11*
X167640000Y-137795000D03*
D12*
X169140000Y-137795000D03*
D13*
X169545000Y-101600000D03*
D14*
X172045000Y-101600000D03*
D15*
X173775000Y-83805000D03*
X172775000Y-92305000D03*
D16*
X168275000Y-90805000D03*
D15*
X168275000Y-86805000D03*
X168275000Y-83805000D03*
D12*
X170575000Y-85105000D03*
X170575000Y-92105000D03*
D14*
X123736000Y-122149000D03*
X123736000Y-124689000D03*
X123736000Y-127229000D03*
X123736000Y-129769000D03*
X123736000Y-119609000D03*
X123736000Y-117069000D03*
X123736000Y-114529000D03*
X123736000Y-132309000D03*
X123736000Y-134849000D03*
X123736000Y-137389000D03*
X123736000Y-139929000D03*
X126276000Y-127229000D03*
X128816000Y-127229000D03*
X131356000Y-127229000D03*
X133896000Y-127229000D03*
X136436000Y-127229000D03*
X138976000Y-139929000D03*
X138976000Y-137389000D03*
X138976000Y-134849000D03*
X138976000Y-132309000D03*
X138976000Y-129769000D03*
X138976000Y-127229000D03*
X138976000Y-124689000D03*
X138976000Y-122149000D03*
X123736000Y-111989000D03*
X123736000Y-109449000D03*
X123736000Y-106909000D03*
X123736000Y-104369000D03*
X123736000Y-101829000D03*
X123736000Y-99289000D03*
X123736000Y-96749000D03*
X123736000Y-94209000D03*
X123736000Y-91669000D03*
X123736000Y-89129000D03*
X123736000Y-86589000D03*
X123736000Y-84049000D03*
D13*
X123736000Y-81509000D03*
D14*
X138976000Y-119609000D03*
X138976000Y-117069000D03*
X138976000Y-114529000D03*
X138976000Y-111989000D03*
X138976000Y-109449000D03*
X138976000Y-106909000D03*
X138976000Y-104369000D03*
X138976000Y-101829000D03*
X138976000Y-99289000D03*
X138976000Y-96749000D03*
X138976000Y-94209000D03*
X138976000Y-91669000D03*
X138976000Y-89129000D03*
X138976000Y-86589000D03*
X138976000Y-84049000D03*
X138976000Y-81509000D03*
X136436000Y-84049000D03*
X136436000Y-89129000D03*
X136436000Y-91669000D03*
X136436000Y-94209000D03*
X131356000Y-96749000D03*
X131356000Y-99289000D03*
X131356000Y-101829000D03*
X131356000Y-104369000D03*
X131356000Y-119609000D03*
X131356000Y-122149000D03*
X131356000Y-124689000D03*
X131356000Y-129769000D03*
X131356000Y-132309000D03*
X131356000Y-134849000D03*
X131356000Y-137389000D03*
X131356000Y-139929000D03*
X133896000Y-139929000D03*
X133896000Y-137389000D03*
X133896000Y-134849000D03*
X133896000Y-132309000D03*
X133896000Y-129769000D03*
X133896000Y-124689000D03*
X133896000Y-122149000D03*
X133896000Y-119609000D03*
X133896000Y-104369000D03*
X133896000Y-101829000D03*
X133896000Y-99289000D03*
X133896000Y-96749000D03*
X126736000Y-87859000D03*
X126736000Y-90399000D03*
X126736000Y-92939000D03*
X126736000Y-95479000D03*
X126736000Y-98019000D03*
D13*
X146596000Y-99288600D03*
D17*
X161836000Y-127228600D03*
X146596000Y-101828600D03*
X161836000Y-124688600D03*
X146596000Y-104368600D03*
X161836000Y-122148600D03*
X146596000Y-106908600D03*
X161836000Y-119608600D03*
X146596000Y-109448600D03*
X161836000Y-117068600D03*
X146596000Y-111988600D03*
X161836000Y-114528600D03*
X146596000Y-114528600D03*
X161836000Y-111988600D03*
X146596000Y-117068600D03*
X161836000Y-109448600D03*
X146596000Y-119608600D03*
X161836000Y-106908600D03*
X146596000Y-122148600D03*
X161836000Y-104368600D03*
X146596000Y-124688600D03*
X161836000Y-101828600D03*
X146596000Y-127228600D03*
X161836000Y-99288600D03*
D13*
X167005000Y-123190000D03*
D17*
X174625000Y-130810000D03*
X167005000Y-125730000D03*
X174625000Y-128270000D03*
X167005000Y-128270000D03*
X174625000Y-125730000D03*
X167005000Y-130810000D03*
X174625000Y-123190000D03*
D13*
X167005000Y-110490000D03*
D17*
X174625000Y-118110000D03*
X167005000Y-113030000D03*
X174625000Y-115570000D03*
X167005000Y-115570000D03*
X174625000Y-113030000D03*
X167005000Y-118110000D03*
X174625000Y-110490000D03*
D13*
X146596000Y-91668600D03*
D14*
X146596000Y-84048600D03*
X161836000Y-84048600D03*
X161836000Y-91668600D03*
M02*
