M48
;DRILL file {KiCad 4.0.7} date 02/06/18 12:48:31
;FORMAT={-:-/ absolute / inch / decimal}
FMAT,2
INCH,TZ
T1C0.016
T2C0.024
T3C0.031
T4C0.039
T5C0.043
T6C0.047
%
G90
G05
M72
T1
X5.706Y-4.3048
X5.7862Y-4.9586
X5.8942Y-4.2604
T2
X6.6Y-5.425
X6.6591Y-5.425
X6.8Y-5.425
X6.8591Y-5.425
T3
X5.7715Y-3.309
X5.7715Y-3.609
X5.775Y-3.8
X5.775Y-3.9
X5.775Y-4.
X5.775Y-4.1
X5.775Y-4.2
X5.775Y-4.3
X5.775Y-4.4
X5.775Y-4.5
X5.775Y-4.6
X5.775Y-4.7
X5.775Y-4.8
X5.775Y-4.9
X6.3715Y-3.309
X6.3715Y-3.609
X6.375Y-3.8
X6.375Y-3.9
X6.375Y-4.
X6.375Y-4.1
X6.375Y-4.2
X6.375Y-4.3
X6.375Y-4.4
X6.375Y-4.5
X6.375Y-4.6
X6.375Y-4.7
X6.375Y-4.8
X6.375Y-4.9
X6.575Y-4.35
X6.575Y-4.45
X6.575Y-4.55
X6.575Y-4.65
X6.575Y-4.85
X6.575Y-4.95
X6.575Y-5.05
X6.575Y-5.15
X6.675Y-4.
X6.7734Y-4.
X6.875Y-4.35
X6.875Y-4.45
X6.875Y-4.55
X6.875Y-4.65
X6.875Y-4.85
X6.875Y-4.95
X6.875Y-5.05
X6.875Y-5.15
T4
X5.625Y-5.0191
X5.625Y-5.275
X5.625Y-5.375
X5.625Y-5.5522
X5.8022Y-5.0191
X5.8022Y-5.275
X5.8809Y-5.375
X5.8809Y-5.5522
X5.95Y-5.0191
X5.95Y-5.275
X6.1272Y-5.0191
X6.1272Y-5.275
X6.2Y-5.375
X6.2Y-5.5522
X6.275Y-5.0191
X6.275Y-5.275
X6.4522Y-5.0191
X6.4522Y-5.275
X6.4559Y-5.375
X6.4559Y-5.5522
T5
X4.8715Y-3.209
X4.8715Y-3.309
X4.8715Y-3.409
X4.8715Y-3.509
X4.8715Y-3.609
X4.8715Y-3.709
X4.8715Y-3.809
X4.8715Y-3.909
X4.8715Y-4.009
X4.8715Y-4.109
X4.8715Y-4.209
X4.8715Y-4.309
X4.8715Y-4.409
X4.8715Y-4.509
X4.8715Y-4.609
X4.8715Y-4.709
X4.8715Y-4.809
X4.8715Y-4.909
X4.8715Y-5.009
X4.8715Y-5.109
X4.8715Y-5.209
X4.8715Y-5.309
X4.8715Y-5.409
X4.8715Y-5.509
X4.9715Y-5.009
X4.9896Y-3.459
X4.9896Y-3.559
X4.9896Y-3.659
X4.9896Y-3.759
X4.9896Y-3.859
X5.0715Y-5.009
X5.1715Y-3.809
X5.1715Y-3.909
X5.1715Y-4.009
X5.1715Y-4.109
X5.1715Y-4.709
X5.1715Y-4.809
X5.1715Y-4.909
X5.1715Y-5.009
X5.1715Y-5.109
X5.1715Y-5.209
X5.1715Y-5.309
X5.1715Y-5.409
X5.1715Y-5.509
X5.2715Y-3.809
X5.2715Y-3.909
X5.2715Y-4.009
X5.2715Y-4.109
X5.2715Y-4.709
X5.2715Y-4.809
X5.2715Y-4.909
X5.2715Y-5.009
X5.2715Y-5.109
X5.2715Y-5.209
X5.2715Y-5.309
X5.2715Y-5.409
X5.2715Y-5.509
X5.3715Y-3.309
X5.3715Y-3.509
X5.3715Y-3.609
X5.3715Y-3.709
X5.3715Y-5.009
X5.4715Y-3.209
X5.4715Y-3.309
X5.4715Y-3.409
X5.4715Y-3.509
X5.4715Y-3.609
X5.4715Y-3.709
X5.4715Y-3.809
X5.4715Y-3.909
X5.4715Y-4.009
X5.4715Y-4.109
X5.4715Y-4.209
X5.4715Y-4.309
X5.4715Y-4.409
X5.4715Y-4.509
X5.4715Y-4.609
X5.4715Y-4.709
X5.4715Y-4.809
X5.4715Y-4.909
X5.4715Y-5.009
X5.4715Y-5.109
X5.4715Y-5.209
X5.4715Y-5.309
X5.4715Y-5.409
X5.4715Y-5.509
T6
X6.7156Y-3.3506
X6.7156Y-3.6262
T2
X6.625Y-3.2876G85X6.625Y-3.3112
G05
X6.625Y-3.4057G85X6.625Y-3.4293
G05
X6.625Y-3.5632G85X6.625Y-3.5868
G05
X6.8022Y-3.6222G85X6.8022Y-3.6459
G05
X6.8415Y-3.2876G85X6.8415Y-3.3112
G05
T0
M30
