G04 #@! TF.FileFunction,Legend,Bot*
%FSLAX46Y46*%
G04 Gerber Fmt 4.6, Leading zero omitted, Abs format (unit mm)*
G04 Created by KiCad (PCBNEW 4.0.7) date 02/06/18 12:48:21*
%MOMM*%
%LPD*%
G01*
G04 APERTURE LIST*
%ADD10C,0.100000*%
%ADD11C,0.250000*%
G04 APERTURE END LIST*
D10*
D11*
X151846667Y-106331191D02*
X151846667Y-106807382D01*
X152132381Y-106235953D02*
X151132381Y-106569286D01*
X152132381Y-106902620D01*
X152132381Y-107664525D02*
X151132381Y-107664525D01*
X152084762Y-107664525D02*
X152132381Y-107569287D01*
X152132381Y-107378810D01*
X152084762Y-107283572D01*
X152037143Y-107235953D01*
X151941905Y-107188334D01*
X151656190Y-107188334D01*
X151560952Y-107235953D01*
X151513333Y-107283572D01*
X151465714Y-107378810D01*
X151465714Y-107569287D01*
X151513333Y-107664525D01*
X152132381Y-108283572D02*
X152084762Y-108188334D01*
X151989524Y-108140715D01*
X151132381Y-108140715D01*
X152132381Y-108664525D02*
X151465714Y-108664525D01*
X151132381Y-108664525D02*
X151180000Y-108616906D01*
X151227619Y-108664525D01*
X151180000Y-108712144D01*
X151132381Y-108664525D01*
X151227619Y-108664525D01*
X152132381Y-109140715D02*
X151132381Y-109140715D01*
X151513333Y-109140715D02*
X151465714Y-109235953D01*
X151465714Y-109426430D01*
X151513333Y-109521668D01*
X151560952Y-109569287D01*
X151656190Y-109616906D01*
X151941905Y-109616906D01*
X152037143Y-109569287D01*
X152084762Y-109521668D01*
X152132381Y-109426430D01*
X152132381Y-109235953D01*
X152084762Y-109140715D01*
X152132381Y-110807382D02*
X151132381Y-110807382D01*
X151846667Y-111140716D01*
X151132381Y-111474049D01*
X152132381Y-111474049D01*
X152132381Y-111950239D02*
X151465714Y-111950239D01*
X151132381Y-111950239D02*
X151180000Y-111902620D01*
X151227619Y-111950239D01*
X151180000Y-111997858D01*
X151132381Y-111950239D01*
X151227619Y-111950239D01*
X151465714Y-112426429D02*
X152132381Y-112426429D01*
X151560952Y-112426429D02*
X151513333Y-112474048D01*
X151465714Y-112569286D01*
X151465714Y-112712144D01*
X151513333Y-112807382D01*
X151608571Y-112855001D01*
X152132381Y-112855001D01*
X152132381Y-113331191D02*
X151465714Y-113331191D01*
X151132381Y-113331191D02*
X151180000Y-113283572D01*
X151227619Y-113331191D01*
X151180000Y-113378810D01*
X151132381Y-113331191D01*
X151227619Y-113331191D01*
X152882381Y-105355000D02*
X153882381Y-105688333D01*
X152882381Y-106021667D01*
X152930000Y-106878810D02*
X152882381Y-106783572D01*
X152882381Y-106640715D01*
X152930000Y-106497857D01*
X153025238Y-106402619D01*
X153120476Y-106355000D01*
X153310952Y-106307381D01*
X153453810Y-106307381D01*
X153644286Y-106355000D01*
X153739524Y-106402619D01*
X153834762Y-106497857D01*
X153882381Y-106640715D01*
X153882381Y-106735953D01*
X153834762Y-106878810D01*
X153787143Y-106926429D01*
X153453810Y-106926429D01*
X153453810Y-106735953D01*
X153882381Y-107355000D02*
X152882381Y-107355000D01*
X153596667Y-107688334D01*
X152882381Y-108021667D01*
X153882381Y-108021667D01*
X153882381Y-109259762D02*
X152882381Y-109259762D01*
X152882381Y-109640715D01*
X152930000Y-109735953D01*
X152977619Y-109783572D01*
X153072857Y-109831191D01*
X153215714Y-109831191D01*
X153310952Y-109783572D01*
X153358571Y-109735953D01*
X153406190Y-109640715D01*
X153406190Y-109259762D01*
X153882381Y-110735953D02*
X153882381Y-110259762D01*
X152882381Y-110259762D01*
X153596667Y-111021667D02*
X153596667Y-111497858D01*
X153882381Y-110926429D02*
X152882381Y-111259762D01*
X153882381Y-111593096D01*
X153406190Y-112116905D02*
X153882381Y-112116905D01*
X152882381Y-111783572D02*
X153406190Y-112116905D01*
X152882381Y-112450239D01*
X153358571Y-112783572D02*
X153358571Y-113116906D01*
X153882381Y-113259763D02*
X153882381Y-112783572D01*
X152882381Y-112783572D01*
X152882381Y-113259763D01*
X153882381Y-114259763D02*
X153406190Y-113926429D01*
X153882381Y-113688334D02*
X152882381Y-113688334D01*
X152882381Y-114069287D01*
X152930000Y-114164525D01*
X152977619Y-114212144D01*
X153072857Y-114259763D01*
X153215714Y-114259763D01*
X153310952Y-114212144D01*
X153358571Y-114164525D01*
X153406190Y-114069287D01*
X153406190Y-113688334D01*
X155346667Y-104212142D02*
X155346667Y-104688333D01*
X155632381Y-104116904D02*
X154632381Y-104450237D01*
X155632381Y-104783571D01*
X155632381Y-105116904D02*
X154965714Y-105116904D01*
X154632381Y-105116904D02*
X154680000Y-105069285D01*
X154727619Y-105116904D01*
X154680000Y-105164523D01*
X154632381Y-105116904D01*
X154727619Y-105116904D01*
X155632381Y-106021666D02*
X154632381Y-106021666D01*
X155584762Y-106021666D02*
X155632381Y-105926428D01*
X155632381Y-105735951D01*
X155584762Y-105640713D01*
X155537143Y-105593094D01*
X155441905Y-105545475D01*
X155156190Y-105545475D01*
X155060952Y-105593094D01*
X155013333Y-105640713D01*
X154965714Y-105735951D01*
X154965714Y-105926428D01*
X155013333Y-106021666D01*
X155632381Y-106926428D02*
X155108571Y-106926428D01*
X155013333Y-106878809D01*
X154965714Y-106783571D01*
X154965714Y-106593094D01*
X155013333Y-106497856D01*
X155584762Y-106926428D02*
X155632381Y-106831190D01*
X155632381Y-106593094D01*
X155584762Y-106497856D01*
X155489524Y-106450237D01*
X155394286Y-106450237D01*
X155299048Y-106497856D01*
X155251429Y-106593094D01*
X155251429Y-106831190D01*
X155203810Y-106926428D01*
X154965714Y-107402618D02*
X155632381Y-107402618D01*
X155060952Y-107402618D02*
X155013333Y-107450237D01*
X154965714Y-107545475D01*
X154965714Y-107688333D01*
X155013333Y-107783571D01*
X155108571Y-107831190D01*
X155632381Y-107831190D01*
X155632381Y-109545476D02*
X155632381Y-109069285D01*
X154632381Y-109069285D01*
X155632381Y-110307381D02*
X155108571Y-110307381D01*
X155013333Y-110259762D01*
X154965714Y-110164524D01*
X154965714Y-109974047D01*
X155013333Y-109878809D01*
X155584762Y-110307381D02*
X155632381Y-110212143D01*
X155632381Y-109974047D01*
X155584762Y-109878809D01*
X155489524Y-109831190D01*
X155394286Y-109831190D01*
X155299048Y-109878809D01*
X155251429Y-109974047D01*
X155251429Y-110212143D01*
X155203810Y-110307381D01*
X154965714Y-110688333D02*
X155632381Y-110878809D01*
X155156190Y-111069286D01*
X155632381Y-111259762D01*
X154965714Y-111450238D01*
X155632381Y-111831190D02*
X154965714Y-111831190D01*
X155156190Y-111831190D02*
X155060952Y-111878809D01*
X155013333Y-111926428D01*
X154965714Y-112021666D01*
X154965714Y-112116905D01*
X155584762Y-112831191D02*
X155632381Y-112735953D01*
X155632381Y-112545476D01*
X155584762Y-112450238D01*
X155489524Y-112402619D01*
X155108571Y-112402619D01*
X155013333Y-112450238D01*
X154965714Y-112545476D01*
X154965714Y-112735953D01*
X155013333Y-112831191D01*
X155108571Y-112878810D01*
X155203810Y-112878810D01*
X155299048Y-112402619D01*
X154965714Y-113307381D02*
X155632381Y-113307381D01*
X155060952Y-113307381D02*
X155013333Y-113355000D01*
X154965714Y-113450238D01*
X154965714Y-113593096D01*
X155013333Y-113688334D01*
X155108571Y-113735953D01*
X155632381Y-113735953D01*
X155584762Y-114640715D02*
X155632381Y-114545477D01*
X155632381Y-114355000D01*
X155584762Y-114259762D01*
X155537143Y-114212143D01*
X155441905Y-114164524D01*
X155156190Y-114164524D01*
X155060952Y-114212143D01*
X155013333Y-114259762D01*
X154965714Y-114355000D01*
X154965714Y-114545477D01*
X155013333Y-114640715D01*
X155584762Y-115450239D02*
X155632381Y-115355001D01*
X155632381Y-115164524D01*
X155584762Y-115069286D01*
X155489524Y-115021667D01*
X155108571Y-115021667D01*
X155013333Y-115069286D01*
X154965714Y-115164524D01*
X154965714Y-115355001D01*
X155013333Y-115450239D01*
X155108571Y-115497858D01*
X155203810Y-115497858D01*
X155299048Y-115021667D01*
X156715714Y-101069286D02*
X157382381Y-101259762D01*
X156906190Y-101450239D01*
X157382381Y-101640715D01*
X156715714Y-101831191D01*
X156715714Y-102116905D02*
X157382381Y-102307381D01*
X156906190Y-102497858D01*
X157382381Y-102688334D01*
X156715714Y-102878810D01*
X156715714Y-103164524D02*
X157382381Y-103355000D01*
X156906190Y-103545477D01*
X157382381Y-103735953D01*
X156715714Y-103926429D01*
X157287143Y-104307381D02*
X157334762Y-104355000D01*
X157382381Y-104307381D01*
X157334762Y-104259762D01*
X157287143Y-104307381D01*
X157382381Y-104307381D01*
X157382381Y-105212143D02*
X156858571Y-105212143D01*
X156763333Y-105164524D01*
X156715714Y-105069286D01*
X156715714Y-104878809D01*
X156763333Y-104783571D01*
X157334762Y-105212143D02*
X157382381Y-105116905D01*
X157382381Y-104878809D01*
X157334762Y-104783571D01*
X157239524Y-104735952D01*
X157144286Y-104735952D01*
X157049048Y-104783571D01*
X157001429Y-104878809D01*
X157001429Y-105116905D01*
X156953810Y-105212143D01*
X157382381Y-105688333D02*
X156715714Y-105688333D01*
X156382381Y-105688333D02*
X156430000Y-105640714D01*
X156477619Y-105688333D01*
X156430000Y-105735952D01*
X156382381Y-105688333D01*
X156477619Y-105688333D01*
X157382381Y-106593095D02*
X156382381Y-106593095D01*
X157334762Y-106593095D02*
X157382381Y-106497857D01*
X157382381Y-106307380D01*
X157334762Y-106212142D01*
X157287143Y-106164523D01*
X157191905Y-106116904D01*
X156906190Y-106116904D01*
X156810952Y-106164523D01*
X156763333Y-106212142D01*
X156715714Y-106307380D01*
X156715714Y-106497857D01*
X156763333Y-106593095D01*
X157382381Y-107497857D02*
X156858571Y-107497857D01*
X156763333Y-107450238D01*
X156715714Y-107355000D01*
X156715714Y-107164523D01*
X156763333Y-107069285D01*
X157334762Y-107497857D02*
X157382381Y-107402619D01*
X157382381Y-107164523D01*
X157334762Y-107069285D01*
X157239524Y-107021666D01*
X157144286Y-107021666D01*
X157049048Y-107069285D01*
X157001429Y-107164523D01*
X157001429Y-107402619D01*
X156953810Y-107497857D01*
X156715714Y-107974047D02*
X157382381Y-107974047D01*
X156810952Y-107974047D02*
X156763333Y-108021666D01*
X156715714Y-108116904D01*
X156715714Y-108259762D01*
X156763333Y-108355000D01*
X156858571Y-108402619D01*
X157382381Y-108402619D01*
X157382381Y-109021666D02*
X157334762Y-108926428D01*
X157239524Y-108878809D01*
X156382381Y-108878809D01*
X157382381Y-109831191D02*
X156858571Y-109831191D01*
X156763333Y-109783572D01*
X156715714Y-109688334D01*
X156715714Y-109497857D01*
X156763333Y-109402619D01*
X157334762Y-109831191D02*
X157382381Y-109735953D01*
X157382381Y-109497857D01*
X157334762Y-109402619D01*
X157239524Y-109355000D01*
X157144286Y-109355000D01*
X157049048Y-109402619D01*
X157001429Y-109497857D01*
X157001429Y-109735953D01*
X156953810Y-109831191D01*
X156715714Y-110212143D02*
X157382381Y-110402619D01*
X156906190Y-110593096D01*
X157382381Y-110783572D01*
X156715714Y-110974048D01*
X157382381Y-111355000D02*
X156715714Y-111355000D01*
X156906190Y-111355000D02*
X156810952Y-111402619D01*
X156763333Y-111450238D01*
X156715714Y-111545476D01*
X156715714Y-111640715D01*
X157334762Y-112355001D02*
X157382381Y-112259763D01*
X157382381Y-112069286D01*
X157334762Y-111974048D01*
X157239524Y-111926429D01*
X156858571Y-111926429D01*
X156763333Y-111974048D01*
X156715714Y-112069286D01*
X156715714Y-112259763D01*
X156763333Y-112355001D01*
X156858571Y-112402620D01*
X156953810Y-112402620D01*
X157049048Y-111926429D01*
X156715714Y-112831191D02*
X157382381Y-112831191D01*
X156810952Y-112831191D02*
X156763333Y-112878810D01*
X156715714Y-112974048D01*
X156715714Y-113116906D01*
X156763333Y-113212144D01*
X156858571Y-113259763D01*
X157382381Y-113259763D01*
X157334762Y-114164525D02*
X157382381Y-114069287D01*
X157382381Y-113878810D01*
X157334762Y-113783572D01*
X157287143Y-113735953D01*
X157191905Y-113688334D01*
X156906190Y-113688334D01*
X156810952Y-113735953D01*
X156763333Y-113783572D01*
X156715714Y-113878810D01*
X156715714Y-114069287D01*
X156763333Y-114164525D01*
X157334762Y-114974049D02*
X157382381Y-114878811D01*
X157382381Y-114688334D01*
X157334762Y-114593096D01*
X157239524Y-114545477D01*
X156858571Y-114545477D01*
X156763333Y-114593096D01*
X156715714Y-114688334D01*
X156715714Y-114878811D01*
X156763333Y-114974049D01*
X156858571Y-115021668D01*
X156953810Y-115021668D01*
X157049048Y-114545477D01*
X157287143Y-115450239D02*
X157334762Y-115497858D01*
X157382381Y-115450239D01*
X157334762Y-115402620D01*
X157287143Y-115450239D01*
X157382381Y-115450239D01*
X157334762Y-116355001D02*
X157382381Y-116259763D01*
X157382381Y-116069286D01*
X157334762Y-115974048D01*
X157287143Y-115926429D01*
X157191905Y-115878810D01*
X156906190Y-115878810D01*
X156810952Y-115926429D01*
X156763333Y-115974048D01*
X156715714Y-116069286D01*
X156715714Y-116259763D01*
X156763333Y-116355001D01*
X157382381Y-116926429D02*
X157334762Y-116831191D01*
X157287143Y-116783572D01*
X157191905Y-116735953D01*
X156906190Y-116735953D01*
X156810952Y-116783572D01*
X156763333Y-116831191D01*
X156715714Y-116926429D01*
X156715714Y-117069287D01*
X156763333Y-117164525D01*
X156810952Y-117212144D01*
X156906190Y-117259763D01*
X157191905Y-117259763D01*
X157287143Y-117212144D01*
X157334762Y-117164525D01*
X157382381Y-117069287D01*
X157382381Y-116926429D01*
X157382381Y-117688334D02*
X156715714Y-117688334D01*
X156810952Y-117688334D02*
X156763333Y-117735953D01*
X156715714Y-117831191D01*
X156715714Y-117974049D01*
X156763333Y-118069287D01*
X156858571Y-118116906D01*
X157382381Y-118116906D01*
X156858571Y-118116906D02*
X156763333Y-118164525D01*
X156715714Y-118259763D01*
X156715714Y-118402620D01*
X156763333Y-118497858D01*
X156858571Y-118545477D01*
X157382381Y-118545477D01*
M02*
